  0
SECTION
  2
HEADER
  9
$ACADVER
  1
AC1009
  0
ENDSEC
  0
SECTION
  2
TABLES
  0
TABLE
  2
LAYER
  70
2
  0
LAYER
  2
Layer_25
  70
0
  62
206
  6
CONTINUOUS
  0
LAYER
  2
Layer_27
  70
0
  62
138
  6
CONTINUOUS
  0
ENDTAB
  0
ENDSEC
  0
SECTION
  2
ENTITIES
  0
POLYLINE
  5
90
  8
Layer_25
  62
206
  70
1
  66
1
  10
0
  20
0
  30
0
  0
VERTEX
  5
90
  8
Layer_25
  10
131.83528
  20
52.25
  0
VERTEX
  5
91
  8
Layer_25
  10
2.1647186
  20
52.25
  0
VERTEX
  5
92
  8
Layer_25
  10
2.1647186
  20
1.75
  0
VERTEX
  5
93
  8
Layer_25
  10
131.83528
  20
1.75
  0
SEQEND
  0
CIRCLE
  5
95
  8
Layer_25
  62
206
  10
120.95803
  20
11.780998
  30
0
  40
1.5
  0
CIRCLE
  5
95
  8
Layer_25
  62
206
  10
120.95803
  20
42.219002
  30
0
  40
1.5
  0
CIRCLE
  5
95
  8
Layer_25
  62
206
  10
23.294571
  20
8.3000488
  30
0
  40
3.8499999
  0
CIRCLE
  5
95
  8
Layer_25
  62
206
  10
34.332947
  20
8.3000488
  30
0
  40
3.8499999
  0
CIRCLE
  5
95
  8
Layer_25
  62
206
  10
56.367798
  20
8.3000488
  30
0
  40
3.8499999
  0
CIRCLE
  5
95
  8
Layer_25
  62
206
  10
45.329422
  20
8.3000488
  30
0
  40
3.8499999
  0
CIRCLE
  5
95
  8
Layer_25
  62
206
  10
67.214691
  20
8.3000488
  30
0
  40
3.8499999
  0
CIRCLE
  5
95
  8
Layer_25
  62
206
  10
67.214691
  20
18.129913
  30
0
  40
3.8499999
  0
CIRCLE
  5
95
  8
Layer_25
  62
206
  10
56.367798
  20
18.129913
  30
0
  40
3.8499999
  0
CIRCLE
  5
95
  8
Layer_25
  62
206
  10
45.329422
  20
18.129913
  30
0
  40
3.8499999
  0
CIRCLE
  5
95
  8
Layer_25
  62
206
  10
34.332947
  20
18.129913
  30
0
  40
3.8499999
  0
CIRCLE
  5
95
  8
Layer_25
  62
206
  10
23.294571
  20
18.129913
  30
0
  40
3.8499999
  0
POLYLINE
  5
95
  8
Layer_25
  62
206
  70
1
  66
1
  10
0
  20
0
  30
0
  0
VERTEX
  5
95
  8
Layer_25
  10
118.49901
  20
43.154419
  0
VERTEX
  5
96
  8
Layer_25
  10
86.024719
  20
43.154419
  0
VERTEX
  5
97
  8
Layer_25
  10
86.024719
  20
10.727722
  0
VERTEX
  5
98
  8
Layer_25
  10
118.49901
  20
10.727722
  0
SEQEND
  0
POLYLINE
  5
9a
  8
Layer_25
  62
206
  70
1
  66
1
  10
0
  20
0
  30
0
  0
VERTEX
  5
9a
  8
Layer_25
  10
7.1147194
  20
11.5
  42
0.41421356
  0
VERTEX
  5
9b
  8
Layer_25
  10
6.1147194
  20
12.5
  0
VERTEX
  5
9c
  8
Layer_25
  10
4.7147179
  20
12.5
  42
0.41421356
  0
VERTEX
  5
9d
  8
Layer_25
  10
3.7147179
  20
11.5
  0
VERTEX
  5
9e
  8
Layer_25
  10
3.7147179
  20
8.5
  42
0.41421356
  0
VERTEX
  5
9f
  8
Layer_25
  10
4.7147179
  20
7.5
  0
VERTEX
  5
a0
  8
Layer_25
  10
6.1147194
  20
7.5
  42
0.41421356
  0
VERTEX
  5
a1
  8
Layer_25
  10
7.1147194
  20
8.5
  0
SEQEND
  0
POLYLINE
  5
a3
  8
Layer_25
  62
206
  70
1
  66
1
  10
0
  20
0
  30
0
  0
VERTEX
  5
a3
  8
Layer_25
  10
7.1147194
  20
47.5
  42
0.41421356
  0
VERTEX
  5
a4
  8
Layer_25
  10
6.1147194
  20
48.5
  0
VERTEX
  5
a5
  8
Layer_25
  10
4.7147179
  20
48.5
  42
0.41421356
  0
VERTEX
  5
a6
  8
Layer_25
  10
3.7147179
  20
47.5
  0
VERTEX
  5
a7
  8
Layer_25
  10
3.7147179
  20
44.5
  42
0.41421356
  0
VERTEX
  5
a8
  8
Layer_25
  10
4.7147179
  20
43.5
  0
VERTEX
  5
a9
  8
Layer_25
  10
6.1147194
  20
43.5
  42
0.41421356
  0
VERTEX
  5
aa
  8
Layer_25
  10
7.1147194
  20
44.5
  0
SEQEND
  0
POLYLINE
  5
ac
  8
Layer_25
  62
206
  70
1
  66
1
  10
0
  20
0
  30
0
  0
VERTEX
  5
ac
  8
Layer_25
  10
129.57872
  20
11.5
  42
0.41421356
  0
VERTEX
  5
ad
  8
Layer_25
  10
128.57872
  20
12.5
  0
VERTEX
  5
ae
  8
Layer_25
  10
127.17871
  20
12.5
  42
0.41421356
  0
VERTEX
  5
af
  8
Layer_25
  10
126.17871
  20
11.5
  0
VERTEX
  5
b0
  8
Layer_25
  10
126.17871
  20
8.5
  42
0.41421356
  0
VERTEX
  5
b1
  8
Layer_25
  10
127.17871
  20
7.5
  0
VERTEX
  5
b2
  8
Layer_25
  10
128.57872
  20
7.5
  42
0.41421356
  0
VERTEX
  5
b3
  8
Layer_25
  10
129.57872
  20
8.5
  0
SEQEND
  0
POLYLINE
  5
b5
  8
Layer_25
  62
206
  70
1
  66
1
  10
0
  20
0
  30
0
  0
VERTEX
  5
b5
  8
Layer_25
  10
129.57872
  20
47.5
  42
0.41421356
  0
VERTEX
  5
b6
  8
Layer_25
  10
128.57872
  20
48.5
  0
VERTEX
  5
b7
  8
Layer_25
  10
127.17871
  20
48.5
  42
0.41421356
  0
VERTEX
  5
b8
  8
Layer_25
  10
126.17871
  20
47.5
  0
VERTEX
  5
b9
  8
Layer_25
  10
126.17871
  20
44.5
  42
0.41421356
  0
VERTEX
  5
ba
  8
Layer_25
  10
127.17871
  20
43.5
  0
VERTEX
  5
bb
  8
Layer_25
  10
128.57872
  20
43.5
  42
0.41421356
  0
VERTEX
  5
bc
  8
Layer_25
  10
129.57872
  20
44.5
  0
SEQEND
  0
CIRCLE
  5
be
  8
Layer_25
  62
206
  10
56.414719
  20
36
  30
0
  40
3.5
  0
CIRCLE
  5
be
  8
Layer_25
  62
206
  10
78.870995
  20
11.780998
  30
0
  40
1.5
  0
CIRCLE
  5
be
  8
Layer_25
  62
206
  10
78.870995
  20
42.219002
  30
0
  40
1.5
  0
POLYLINE
  5
be
  8
Layer_27
  62
138
  70
1
  66
1
  10
0
  20
0
  30
0
  0
VERTEX
  5
be
  8
Layer_27
  10
60.734825
  20
32.18586
  0
VERTEX
  5
bf
  8
Layer_27
  10
60.734825
  20
32.680977
  0
VERTEX
  5
c0
  8
Layer_27
  10
55.064903
  20
32.680977
  0
VERTEX
  5
c1
  8
Layer_27
  10
55.064903
  20
32.18586
  0
SEQEND
  0
POLYLINE
  5
c3
  8
Layer_27
  62
138
  70
1
  66
1
  10
0
  20
0
  30
0
  0
VERTEX
  5
c3
  8
Layer_27
  10
54.984825
  20
43.513496
  42
0.25620934
  0
VERTEX
  5
c4
  8
Layer_27
  10
55.635216
  20
42.48127
  0
VERTEX
  5
c5
  8
Layer_27
  10
55.635216
  20
42.466621
  0
VERTEX
  5
c6
  8
Layer_27
  10
55.490685
  20
42.463692
  42
0.035712859
  0
VERTEX
  5
c7
  8
Layer_27
  10
55.064903
  20
42.421211
  0
VERTEX
  5
c8
  8
Layer_27
  10
55.064903
  20
41.941231
  0
VERTEX
  5
c9
  8
Layer_27
  10
55.227013
  20
41.963203
  42
-0.029049158
  0
VERTEX
  5
ca
  8
Layer_27
  10
55.852501
  20
42.001289
  0
VERTEX
  5
cb
  8
Layer_27
  10
57.419884
  20
42.001289
  42
0.4019498
  0
VERTEX
  5
cc
  8
Layer_27
  10
58.646446
  20
43.033516
  42
0.19289525
  0
VERTEX
  5
cd
  8
Layer_27
  10
58.274376
  20
44.63752
  0
VERTEX
  5
ce
  8
Layer_27
  10
58.155235
  20
44.768867
  0
VERTEX
  5
cf
  8
Layer_27
  10
57.802696
  20
44.469063
  0
VERTEX
  5
d0
  8
Layer_27
  10
57.982872
  20
44.230293
  42
-0.21070723
  0
VERTEX
  5
d1
  8
Layer_27
  10
58.158165
  20
43.002754
  42
-0.30281027
  0
VERTEX
  5
d2
  8
Layer_27
  10
57.519981
  20
42.510567
  42
-0.033297354
  0
VERTEX
  5
d3
  8
Layer_27
  10
57.217735
  20
42.496407
  0
VERTEX
  5
d4
  8
Layer_27
  10
57.217735
  20
42.743965
  42
0.090294926
  0
VERTEX
  5
d5
  8
Layer_27
  10
57.03756
  20
44.150215
  42
0.22549276
  0
VERTEX
  5
d6
  8
Layer_27
  10
56.384239
  20
44.870918
  42
0.32297293
  0
VERTEX
  5
d7
  8
Layer_27
  10
55.233849
  20
44.555
  42
0.18713942
  0
SEQEND
  0
POLYLINE
  5
d9
  8
Layer_27
  62
138
  70
1
  66
1
  10
0
  20
0
  30
0
  0
VERTEX
  5
d9
  8
Layer_27
  10
56.865196
  20
40.359688
  42
-0.22485969
  0
VERTEX
  5
da
  8
Layer_27
  10
57.944298
  20
39.96125
  42
-0.34057976
  0
VERTEX
  5
db
  8
Layer_27
  10
58.040001
  20
38.667305
  42
-0.19147161
  0
VERTEX
  5
dc
  8
Layer_27
  10
57.282677
  20
38.354805
  0
VERTEX
  5
dd
  8
Layer_27
  10
57.007286
  20
38.34211
  0
VERTEX
  5
de
  8
Layer_27
  10
55.064903
  20
38.34211
  0
VERTEX
  5
df
  8
Layer_27
  10
55.064903
  20
37.846992
  0
VERTEX
  5
e0
  8
Layer_27
  10
57.292442
  20
37.846992
  42
0.18850447
  0
VERTEX
  5
e1
  8
Layer_27
  10
58.308556
  20
38.169746
  42
0.23364736
  0
VERTEX
  5
e2
  8
Layer_27
  10
58.652794
  20
39.340645
  42
0.21072431
  0
VERTEX
  5
e3
  8
Layer_27
  10
58.012657
  20
40.359688
  0
VERTEX
  5
e4
  8
Layer_27
  10
58.293907
  20
40.363594
  42
0.020287821
  0
VERTEX
  5
e5
  8
Layer_27
  10
58.575157
  20
40.382149
  0
VERTEX
  5
e6
  8
Layer_27
  10
58.575157
  20
40.891914
  0
VERTEX
  5
e7
  8
Layer_27
  10
58.374474
  20
40.878242
  42
-0.017131632
  0
VERTEX
  5
e8
  8
Layer_27
  10
57.802696
  20
40.854805
  0
VERTEX
  5
e9
  8
Layer_27
  10
55.064903
  20
40.854805
  0
VERTEX
  5
ea
  8
Layer_27
  10
55.064903
  20
40.359688
  0
SEQEND
  0
POLYLINE
  5
ec
  8
Layer_27
  62
138
  70
1
  66
1
  10
0
  20
0
  30
0
  0
VERTEX
  5
ec
  8
Layer_27
  10
54.984825
  20
35.451973
  42
0.25613988
  0
VERTEX
  5
ed
  8
Layer_27
  10
55.635216
  20
34.420235
  0
VERTEX
  5
ee
  8
Layer_27
  10
55.635216
  20
34.405098
  0
VERTEX
  5
ef
  8
Layer_27
  10
55.490685
  20
34.402168
  42
0.034081936
  0
VERTEX
  5
f0
  8
Layer_27
  10
55.064903
  20
34.360176
  0
VERTEX
  5
f1
  8
Layer_27
  10
55.064903
  20
33.880196
  0
VERTEX
  5
f2
  8
Layer_27
  10
55.227013
  20
33.90168
  42
-0.027966199
  0
VERTEX
  5
f3
  8
Layer_27
  10
55.852501
  20
33.940254
  0
VERTEX
  5
f4
  8
Layer_27
  10
57.419884
  20
33.940254
  42
0.40238405
  0
VERTEX
  5
f5
  8
Layer_27
  10
58.646446
  20
34.972481
  42
0.19291565
  0
VERTEX
  5
f6
  8
Layer_27
  10
58.274376
  20
36.575996
  0
VERTEX
  5
f7
  8
Layer_27
  10
58.155235
  20
36.707832
  0
VERTEX
  5
f8
  8
Layer_27
  10
57.802696
  20
36.407539
  0
VERTEX
  5
f9
  8
Layer_27
  10
57.982872
  20
36.169258
  42
-0.21060518
  0
VERTEX
  5
fa
  8
Layer_27
  10
58.158165
  20
34.941231
  42
-0.30191389
  0
VERTEX
  5
fb
  8
Layer_27
  10
57.519981
  20
34.449043
  42
-0.033294141
  0
VERTEX
  5
fc
  8
Layer_27
  10
57.217735
  20
34.434883
  0
VERTEX
  5
fd
  8
Layer_27
  10
57.217735
  20
34.682442
  42
0.090330643
  0
VERTEX
  5
fe
  8
Layer_27
  10
57.03756
  20
36.088692
  42
0.22505588
  0
VERTEX
  5
ff
  8
Layer_27
  10
56.384239
  20
36.809883
  42
0.32229241
  0
VERTEX
  5
100
  8
Layer_27
  10
55.233849
  20
36.493965
  42
0.187093
  0
SEQEND
  0
POLYLINE
  5
102
  8
Layer_27
  62
138
  70
1
  66
1
  10
0
  20
0
  30
0
  0
VERTEX
  5
102
  8
Layer_27
  10
54.983849
  20
29.111641
  42
0.21736898
  0
VERTEX
  5
103
  8
Layer_27
  10
55.720196
  20
27.788622
  42
0.21736968
  0
VERTEX
  5
104
  8
Layer_27
  10
57.202599
  20
27.480293
  42
0.39843761
  0
VERTEX
  5
105
  8
Layer_27
  10
58.656212
  20
29.512032
  42
0.20500771
  0
VERTEX
  5
106
  8
Layer_27
  10
57.995319
  20
30.774397
  42
0.20500837
  0
VERTEX
  5
107
  8
Layer_27
  10
56.624962
  20
31.164864
  42
0.40086386
  0
VERTEX
  5
108
  8
Layer_27
  10
54.97506
  20
29.313301
  0
SEQEND
  0
POLYLINE
  5
10a
  8
Layer_27
  62
138
  70
1
  66
1
  10
0
  20
0
  30
0
  0
VERTEX
  5
10a
  8
Layer_27
  10
53.276329
  20
24.673653
  42
0.2798714
  0
VERTEX
  5
10b
  8
Layer_27
  10
54.178185
  20
23.249825
  42
0.10539146
  0
VERTEX
  5
10c
  8
Layer_27
  10
55.095177
  20
23.073555
  0
VERTEX
  5
10d
  8
Layer_27
  10
58.575157
  20
23.073555
  0
VERTEX
  5
10e
  8
Layer_27
  10
58.575157
  20
23.568672
  0
VERTEX
  5
10f
  8
Layer_27
  10
57.990196
  20
23.568672
  0
VERTEX
  5
110
  8
Layer_27
  10
57.990196
  20
23.583321
  0
VERTEX
  5
111
  8
Layer_27
  10
58.174767
  20
23.739082
  42
0.38269543
  0
VERTEX
  5
112
  8
Layer_27
  10
58.256798
  20
26.096016
  42
0.40407707
  0
VERTEX
  5
113
  8
Layer_27
  10
55.695274
  20
26.31086
  42
0.39071908
  0
VERTEX
  5
114
  8
Layer_27
  10
55.417442
  20
23.849922
  42
0.066061178
  0
VERTEX
  5
115
  8
Layer_27
  10
55.72506
  20
23.583321
  0
VERTEX
  5
116
  8
Layer_27
  10
55.72506
  20
23.568672
  0
VERTEX
  5
117
  8
Layer_27
  10
55.095177
  20
23.568672
  42
-0.157441
  0
VERTEX
  5
118
  8
Layer_27
  10
54.217735
  20
23.797188
  42
-0.25520841
  0
VERTEX
  5
119
  8
Layer_27
  10
53.714806
  20
24.933418
  42
-0.23833363
  0
VERTEX
  5
11a
  8
Layer_27
  10
54.359825
  20
26.276192
  0
VERTEX
  5
11b
  8
Layer_27
  10
53.970177
  20
26.643379
  42
0.22009008
  0
VERTEX
  5
11c
  8
Layer_27
  10
53.265099
  20
24.955879
  0
SEQEND
  0
POLYLINE
  5
11e
  8
Layer_27
  62
138
  70
1
  66
1
  10
0
  20
0
  30
0
  0
VERTEX
  5
11e
  8
Layer_27
  10
55.431602
  20
29.463203
  42
-0.40057439
  0
VERTEX
  5
11f
  8
Layer_27
  10
56.819786
  20
30.633125
  42
-0.36731764
  0
VERTEX
  5
120
  8
Layer_27
  10
58.18795
  20
29.604805
  42
-0.41158301
  0
VERTEX
  5
121
  8
Layer_27
  10
57.237755
  20
28.038399
  42
-0.30832274
  0
VERTEX
  5
122
  8
Layer_27
  10
55.662071
  20
28.535957
  42
-0.18273361
  0
SEQEND
  0
POLYLINE
  5
124
  8
Layer_27
  62
138
  70
1
  66
1
  10
0
  20
0
  30
0
  0
VERTEX
  5
124
  8
Layer_27
  10
55.521935
  20
25.017403
  42
-0.29320818
  0
VERTEX
  5
125
  8
Layer_27
  10
56.45245
  20
26.131397
  42
-0.29142991
  0
VERTEX
  5
126
  8
Layer_27
  10
57.856426
  20
25.755802
  42
-0.29321305
  0
VERTEX
  5
127
  8
Layer_27
  10
58.106407
  20
24.325996
  42
-0.32946718
  0
VERTEX
  5
128
  8
Layer_27
  10
56.714806
  20
23.556465
  42
-0.2055547
  0
VERTEX
  5
129
  8
Layer_27
  10
55.804924
  20
24.031
  42
-0.20555246
  0
SEQEND
  0
POLYLINE
  5
12b
  8
Layer_27
  62
138
  70
1
  66
1
  10
0
  20
0
  30
0
  0
VERTEX
  5
12b
  8
Layer_27
  10
55.433556
  20
43.710274
  42
-0.32180472
  0
VERTEX
  5
12c
  8
Layer_27
  10
55.90963
  20
44.368477
  42
-0.39183784
  0
VERTEX
  5
12d
  8
Layer_27
  10
56.612755
  20
44.000313
  42
-0.10911574
  0
VERTEX
  5
12e
  8
Layer_27
  10
56.812462
  20
42.751289
  0
VERTEX
  5
12f
  8
Layer_27
  10
56.812462
  20
42.496407
  42
-0.13724935
  0
VERTEX
  5
130
  8
Layer_27
  10
55.925743
  20
42.641914
  42
-0.30899639
  0
SEQEND
  0
POLYLINE
  5
132
  8
Layer_27
  62
138
  70
1
  66
1
  10
0
  20
0
  30
0
  0
VERTEX
  5
132
  8
Layer_27
  10
55.433556
  20
35.649239
  42
-0.17685494
  0
VERTEX
  5
133
  8
Layer_27
  10
55.661095
  20
36.170235
  42
-0.34834897
  0
VERTEX
  5
134
  8
Layer_27
  10
56.400352
  20
36.221992
  42
-0.17926878
  0
VERTEX
  5
135
  8
Layer_27
  10
56.761681
  20
35.434395
  42
-0.038232822
  0
VERTEX
  5
136
  8
Layer_27
  10
56.812462
  20
34.434883
  0
VERTEX
  5
137
  8
Layer_27
  10
56.557579
  20
34.434883
  42
-0.2492673
  0
VERTEX
  5
138
  8
Layer_27
  10
55.621056
  20
34.848457
  42
-0.18945909
  0
SEQEND
  0
POLYLINE
  5
13a
  8
Layer_27
  62
138
  70
1
  66
1
  10
0
  20
0
  30
0
  0
VERTEX
  5
13a
  8
Layer_27
  10
64.984375
  20
40.953232
  42
0.20985208
  0
VERTEX
  5
13b
  8
Layer_27
  10
65.649902
  20
39.750595
  0
VERTEX
  5
13c
  8
Layer_27
  10
65.064941
  20
39.750595
  0
VERTEX
  5
13d
  8
Layer_27
  10
65.064941
  20
39.255478
  0
VERTEX
  5
13e
  8
Layer_27
  10
70.734863
  20
39.255478
  0
VERTEX
  5
13f
  8
Layer_27
  10
70.734863
  20
39.750595
  0
VERTEX
  5
140
  8
Layer_27
  10
67.990234
  20
39.750595
  0
VERTEX
  5
141
  8
Layer_27
  10
67.990234
  20
39.765244
  0
VERTEX
  5
142
  8
Layer_27
  10
68.156738
  20
39.896591
  42
0.37573144
  0
VERTEX
  5
143
  8
Layer_27
  10
68.256836
  20
42.343369
  42
0.40150748
  0
VERTEX
  5
144
  8
Layer_27
  10
65.629395
  20
42.589951
  42
0.25130809
  0
SEQEND
  0
POLYLINE
  5
146
  8
Layer_27
  62
138
  70
1
  66
1
  10
0
  20
0
  30
0
  0
VERTEX
  5
146
  8
Layer_27
  10
70.734863
  20
23.005478
  0
VERTEX
  5
147
  8
Layer_27
  10
70.734863
  20
23.500595
  0
VERTEX
  5
148
  8
Layer_27
  10
65.064941
  20
23.500595
  0
VERTEX
  5
149
  8
Layer_27
  10
65.064941
  20
23.005478
  0
SEQEND
  0
POLYLINE
  5
14b
  8
Layer_27
  62
138
  70
1
  66
1
  10
0
  20
0
  30
0
  0
VERTEX
  5
14b
  8
Layer_27
  10
69.571289
  20
37.749619
  42
0.25351147
  0
VERTEX
  5
14c
  8
Layer_27
  10
69.78791
  20
37.482479
  42
0.25352405
  0
VERTEX
  5
14d
  8
Layer_27
  10
70.129883
  20
37.51915
  42
0.40310476
  0
VERTEX
  5
14e
  8
Layer_27
  10
70.228027
  20
38.005966
  42
0.37576123
  0
VERTEX
  5
14f
  8
Layer_27
  10
69.781738
  20
38.147568
  42
0.3426637
  0
SEQEND
  0
POLYLINE
  5
151
  8
Layer_27
  62
138
  70
1
  66
1
  10
0
  20
0
  30
0
  0
VERTEX
  5
151
  8
Layer_27
  10
69.571289
  20
31.367783
  42
0.31070254
  0
VERTEX
  5
152
  8
Layer_27
  10
69.857132
  20
31.079979
  42
0.3106723
  0
VERTEX
  5
153
  8
Layer_27
  10
70.228027
  20
31.244247
  42
0.4033951
  0
VERTEX
  5
154
  8
Layer_27
  10
70.129883
  20
31.730576
  42
0.37722088
  0
VERTEX
  5
155
  8
Layer_27
  10
69.666504
  20
31.681259
  42
0.2453072
  0
SEQEND
  0
POLYLINE
  5
157
  8
Layer_27
  62
138
  70
1
  66
1
  10
0
  20
0
  30
0
  0
VERTEX
  5
157
  8
Layer_27
  10
64.98291
  20
28.628525
  42
0.087477694
  0
VERTEX
  5
158
  8
Layer_27
  10
65.102539
  20
28.149033
  0
VERTEX
  5
159
  8
Layer_27
  10
65.560059
  20
28.171494
  42
-0.23719473
  0
VERTEX
  5
15a
  8
Layer_27
  10
65.487793
  20
28.974716
  42
-0.24626896
  0
VERTEX
  5
15b
  8
Layer_27
  10
65.87793
  20
29.182236
  0
VERTEX
  5
15c
  8
Layer_27
  10
66.055176
  20
29.191513
  0
VERTEX
  5
15d
  8
Layer_27
  10
68.125
  20
29.191513
  0
VERTEX
  5
15e
  8
Layer_27
  10
68.125
  20
28.178818
  0
VERTEX
  5
15f
  8
Layer_27
  10
68.575195
  20
28.178818
  0
VERTEX
  5
160
  8
Layer_27
  10
68.575195
  20
29.191513
  0
VERTEX
  5
161
  8
Layer_27
  10
69.564941
  20
29.191513
  0
VERTEX
  5
162
  8
Layer_27
  10
69.564941
  20
29.68663
  0
VERTEX
  5
163
  8
Layer_27
  10
68.575195
  20
29.68663
  0
VERTEX
  5
164
  8
Layer_27
  10
68.575195
  20
30.428818
  0
VERTEX
  5
165
  8
Layer_27
  10
68.125
  20
30.428818
  0
VERTEX
  5
166
  8
Layer_27
  10
68.125
  20
29.68663
  0
VERTEX
  5
167
  8
Layer_27
  10
65.912598
  20
29.68663
  42
0.29239896
  0
VERTEX
  5
168
  8
Layer_27
  10
65.066895
  20
29.259872
  42
0.13368152
  0
SEQEND
  0
POLYLINE
  5
16a
  8
Layer_27
  62
138
  70
1
  66
1
  10
0
  20
0
  30
0
  0
VERTEX
  5
16a
  8
Layer_27
  10
63.276367
  20
34.503525
  42
0.27986936
  0
VERTEX
  5
16b
  8
Layer_27
  10
64.178223
  20
33.079697
  42
0.10539074
  0
VERTEX
  5
16c
  8
Layer_27
  10
65.095215
  20
32.903427
  0
VERTEX
  5
16d
  8
Layer_27
  10
68.575195
  20
32.903427
  0
VERTEX
  5
16e
  8
Layer_27
  10
68.575195
  20
33.398544
  0
VERTEX
  5
16f
  8
Layer_27
  10
67.990234
  20
33.398544
  0
VERTEX
  5
170
  8
Layer_27
  10
67.990234
  20
33.413193
  0
VERTEX
  5
171
  8
Layer_27
  10
68.174805
  20
33.568954
  42
0.38269425
  0
VERTEX
  5
172
  8
Layer_27
  10
68.256836
  20
35.925888
  42
0.40407691
  0
VERTEX
  5
173
  8
Layer_27
  10
65.695313
  20
36.140732
  42
0.39072224
  0
VERTEX
  5
174
  8
Layer_27
  10
65.41748
  20
33.679794
  42
0.066041173
  0
VERTEX
  5
175
  8
Layer_27
  10
65.725098
  20
33.413193
  0
VERTEX
  5
176
  8
Layer_27
  10
65.725098
  20
33.398544
  0
VERTEX
  5
177
  8
Layer_27
  10
65.095215
  20
33.398544
  42
-0.15743555
  0
VERTEX
  5
178
  8
Layer_27
  10
64.217773
  20
33.62706
  42
-0.25520559
  0
VERTEX
  5
179
  8
Layer_27
  10
63.714844
  20
34.76329
  42
-0.23833142
  0
VERTEX
  5
17a
  8
Layer_27
  10
64.359863
  20
36.106064
  0
VERTEX
  5
17b
  8
Layer_27
  10
63.970215
  20
36.473251
  42
0.22008991
  0
VERTEX
  5
17c
  8
Layer_27
  10
63.265137
  20
34.785751
  0
SEQEND
  0
POLYLINE
  5
17e
  8
Layer_27
  62
138
  70
1
  66
1
  10
0
  20
0
  30
0
  0
VERTEX
  5
17e
  8
Layer_27
  10
64.984863
  20
26.271591
  42
0.25613936
  0
VERTEX
  5
17f
  8
Layer_27
  10
65.635254
  20
25.239853
  0
VERTEX
  5
180
  8
Layer_27
  10
65.635254
  20
25.224716
  0
VERTEX
  5
181
  8
Layer_27
  10
65.490723
  20
25.221786
  42
0.034088298
  0
VERTEX
  5
182
  8
Layer_27
  10
65.064941
  20
25.179794
  0
VERTEX
  5
183
  8
Layer_27
  10
65.064941
  20
24.699814
  0
VERTEX
  5
184
  8
Layer_27
  10
65.227051
  20
24.721298
  42
-0.028259148
  0
VERTEX
  5
185
  8
Layer_27
  10
65.852539
  20
24.759872
  0
VERTEX
  5
186
  8
Layer_27
  10
67.419922
  20
24.759872
  42
0.4023107
  0
VERTEX
  5
187
  8
Layer_27
  10
68.646484
  20
25.792099
  42
0.19306506
  0
VERTEX
  5
188
  8
Layer_27
  10
68.274414
  20
27.395615
  0
VERTEX
  5
189
  8
Layer_27
  10
68.155273
  20
27.527451
  0
VERTEX
  5
18a
  8
Layer_27
  10
67.802734
  20
27.227158
  0
VERTEX
  5
18b
  8
Layer_27
  10
67.98291
  20
26.988876
  42
-0.21060254
  0
VERTEX
  5
18c
  8
Layer_27
  10
68.158203
  20
25.760849
  42
-0.30182769
  0
VERTEX
  5
18d
  8
Layer_27
  10
67.52002
  20
25.268661
  42
-0.032160546
  0
VERTEX
  5
18e
  8
Layer_27
  10
67.217773
  20
25.25499
  0
VERTEX
  5
18f
  8
Layer_27
  10
67.217773
  20
25.502548
  42
0.090197829
  0
VERTEX
  5
190
  8
Layer_27
  10
67.037598
  20
26.908798
  42
0.22478171
  0
VERTEX
  5
191
  8
Layer_27
  10
66.384277
  20
27.629501
  42
0.32235086
  0
VERTEX
  5
192
  8
Layer_27
  10
65.233887
  20
27.313583
  42
0.18709301
  0
SEQEND
  0
POLYLINE
  5
194
  8
Layer_27
  62
138
  70
1
  66
1
  10
0
  20
0
  30
0
  0
VERTEX
  5
194
  8
Layer_27
  10
68.575195
  20
37.568466
  0
VERTEX
  5
195
  8
Layer_27
  10
68.575195
  20
38.063583
  0
VERTEX
  5
196
  8
Layer_27
  10
65.064941
  20
38.063583
  0
VERTEX
  5
197
  8
Layer_27
  10
65.064941
  20
37.568466
  0
SEQEND
  0
POLYLINE
  5
199
  8
Layer_27
  62
138
  70
1
  66
1
  10
0
  20
0
  30
0
  0
VERTEX
  5
199
  8
Layer_27
  10
68.575195
  20
31.18663
  0
VERTEX
  5
19a
  8
Layer_27
  10
68.575195
  20
31.681259
  0
VERTEX
  5
19b
  8
Layer_27
  10
65.064941
  20
31.681259
  0
VERTEX
  5
19c
  8
Layer_27
  10
65.064941
  20
31.18663
  0
SEQEND
  0
POLYLINE
  5
19e
  8
Layer_27
  62
138
  70
1
  66
1
  10
0
  20
0
  30
0
  0
VERTEX
  5
19e
  8
Layer_27
  10
65.431641
  20
41.28038
  42
-0.40038103
  0
VERTEX
  5
19f
  8
Layer_27
  10
66.819824
  20
42.458115
  42
-0.20753668
  0
VERTEX
  5
1a0
  8
Layer_27
  10
67.806259
  20
42.097889
  42
-0.2075366
  0
VERTEX
  5
1a1
  8
Layer_27
  10
68.214844
  20
41.130478
  42
-0.39545887
  0
VERTEX
  5
1a2
  8
Layer_27
  10
66.963867
  20
39.734482
  42
-0.39366418
  0
VERTEX
  5
1a3
  8
Layer_27
  10
65.452148
  20
40.840927
  42
-0.070277199
  0
SEQEND
  0
POLYLINE
  5
1a5
  8
Layer_27
  62
138
  70
1
  66
1
  10
0
  20
0
  30
0
  0
VERTEX
  5
1a5
  8
Layer_27
  10
65.521973
  20
34.847275
  42
-0.2932114
  0
VERTEX
  5
1a6
  8
Layer_27
  10
66.452484
  20
35.961273
  42
-0.29142902
  0
VERTEX
  5
1a7
  8
Layer_27
  10
67.856461
  20
35.585678
  42
-0.29320982
  0
VERTEX
  5
1a8
  8
Layer_27
  10
68.106445
  20
34.155869
  42
-0.3294664
  0
VERTEX
  5
1a9
  8
Layer_27
  10
66.714844
  20
33.386337
  42
-0.20555454
  0
VERTEX
  5
1aa
  8
Layer_27
  10
65.804962
  20
33.860874
  42
-0.20555378
  0
SEQEND
  0
POLYLINE
  5
1ac
  8
Layer_27
  62
138
  70
1
  66
1
  10
0
  20
0
  30
0
  0
VERTEX
  5
1ac
  8
Layer_27
  10
65.433594
  20
26.468857
  42
-0.070475271
  0
VERTEX
  5
1ad
  8
Layer_27
  10
65.503906
  20
26.755966
  42
-0.37621967
  0
VERTEX
  5
1ae
  8
Layer_27
  10
66.194336
  20
27.133408
  42
-0.26300283
  0
VERTEX
  5
1af
  8
Layer_27
  10
66.663086
  20
26.643173
  42
-0.084605298
  0
VERTEX
  5
1b0
  8
Layer_27
  10
66.8125
  20
25.25499
  0
VERTEX
  5
1b1
  8
Layer_27
  10
66.557617
  20
25.25499
  42
-0.24973522
  0
VERTEX
  5
1b2
  8
Layer_27
  10
65.621094
  20
25.668076
  42
-0.18946337
  0
SEQEND
  0
POLYLINE
  5
1b4
  8
Layer_27
  62
138
  70
1
  66
1
  10
0
  20
0
  30
0
  0
VERTEX
  5
1b4
  8
Layer_27
  10
47.504829
  20
37.408226
  0
VERTEX
  5
1b5
  8
Layer_27
  10
47.504829
  20
37.393089
  0
VERTEX
  5
1b6
  8
Layer_27
  10
42.914497
  20
35.473167
  0
VERTEX
  5
1b7
  8
Layer_27
  10
42.914497
  20
35.188011
  0
VERTEX
  5
1b8
  8
Layer_27
  10
47.504829
  20
33.268089
  0
VERTEX
  5
1b9
  8
Layer_27
  10
47.504829
  20
33.252953
  0
VERTEX
  5
1ba
  8
Layer_27
  10
42.914497
  20
33.252953
  0
VERTEX
  5
1bb
  8
Layer_27
  10
42.914497
  20
32.713402
  0
VERTEX
  5
1bc
  8
Layer_27
  10
48.224556
  20
32.713402
  0
VERTEX
  5
1bd
  8
Layer_27
  10
48.224556
  20
33.538109
  0
VERTEX
  5
1be
  8
Layer_27
  10
43.904732
  20
35.330589
  0
VERTEX
  5
1bf
  8
Layer_27
  10
48.224556
  20
37.12307
  0
VERTEX
  5
1c0
  8
Layer_27
  10
48.224556
  20
37.948265
  0
VERTEX
  5
1c1
  8
Layer_27
  10
42.914497
  20
37.948265
  0
VERTEX
  5
1c2
  8
Layer_27
  10
42.914497
  20
37.408226
  0
SEQEND
  0
POLYLINE
  5
1c4
  8
Layer_27
  62
138
  70
1
  66
1
  10
0
  20
0
  30
0
  0
VERTEX
  5
1c4
  8
Layer_27
  10
48.224556
  20
30.733421
  0
VERTEX
  5
1c5
  8
Layer_27
  10
48.224556
  20
31.272972
  0
VERTEX
  5
1c6
  8
Layer_27
  10
42.914497
  20
31.272972
  0
VERTEX
  5
1c7
  8
Layer_27
  10
42.914497
  20
30.733421
  0
SEQEND
  0
POLYLINE
  5
1c9
  8
Layer_27
  62
138
  70
1
  66
1
  10
0
  20
0
  30
0
  0
VERTEX
  5
1c9
  8
Layer_27
  10
42.924751
  20
27.358421
  42
0.26678491
  0
VERTEX
  5
1ca
  8
Layer_27
  10
44.407173
  20
25.063988
  42
0.27573233
  0
VERTEX
  5
1cb
  8
Layer_27
  10
47.185982
  20
25.349632
  42
0.2278847
  0
VERTEX
  5
1cc
  8
Layer_27
  10
48.224556
  20
27.606468
  0
VERTEX
  5
1cd
  8
Layer_27
  10
48.224556
  20
29.368675
  0
VERTEX
  5
1ce
  8
Layer_27
  10
42.914497
  20
29.368675
  0
VERTEX
  5
1cf
  8
Layer_27
  10
42.914497
  20
27.606468
  0
SEQEND
  0
POLYLINE
  5
1d1
  8
Layer_27
  62
138
  70
1
  66
1
  10
0
  20
0
  30
0
  0
VERTEX
  5
1d1
  8
Layer_27
  10
48.224556
  20
23.1968
  0
VERTEX
  5
1d2
  8
Layer_27
  10
48.224556
  20
23.736839
  0
VERTEX
  5
1d3
  8
Layer_27
  10
42.914497
  20
23.736839
  0
VERTEX
  5
1d4
  8
Layer_27
  10
42.914497
  20
23.1968
  0
SEQEND
  0
POLYLINE
  5
1d6
  8
Layer_27
  62
138
  70
1
  66
1
  10
0
  20
0
  30
0
  0
VERTEX
  5
1d6
  8
Layer_27
  10
43.409615
  20
28.829124
  0
VERTEX
  5
1d7
  8
Layer_27
  10
47.729439
  20
28.829124
  42
-0.019128644
  0
VERTEX
  5
1d8
  8
Layer_27
  10
47.718208
  20
27.485374
  42
-0.26748265
  0
VERTEX
  5
1d9
  8
Layer_27
  10
46.556099
  20
25.624535
  42
-0.37333754
  0
VERTEX
  5
1da
  8
Layer_27
  10
43.807076
  20
26.316429
  42
-0.15221776
  0
VERTEX
  5
1db
  8
Layer_27
  10
43.409615
  20
27.778831
  0
SEQEND
  0
POLYLINE
  5
1dd
  8
Layer_27
  62
138
  70
1
  66
1
  10
0
  20
0
  30
0
  0
VERTEX
  5
1dd
  8
Layer_27
  10
31.520332
  20
32.429504
  42
0.21950088
  0
VERTEX
  5
1de
  8
Layer_27
  10
32.476875
  20
30.786438
  0
VERTEX
  5
1df
  8
Layer_27
  10
32.791817
  20
31.228821
  0
VERTEX
  5
1e0
  8
Layer_27
  10
32.578926
  20
31.385071
  42
-0.22639869
  0
VERTEX
  5
1e1
  8
Layer_27
  10
31.996407
  20
32.751282
  42
-0.37951482
  0
VERTEX
  5
1e2
  8
Layer_27
  10
33.844551
  20
34.896301
  42
-0.28085697
  0
VERTEX
  5
1e3
  8
Layer_27
  10
36.18
  20
34.040344
  42
-0.35084006
  0
VERTEX
  5
1e4
  8
Layer_27
  10
36.144356
  20
31.611145
  42
-0.064917716
  0
VERTEX
  5
1e5
  8
Layer_27
  10
35.888985
  20
31.386047
  0
VERTEX
  5
1e6
  8
Layer_27
  10
36.241524
  20
30.913879
  42
0.23226555
  0
VERTEX
  5
1e7
  8
Layer_27
  10
37.081856
  20
32.751282
  42
0.39877224
  0
VERTEX
  5
1e8
  8
Layer_27
  10
34.58918
  20
35.505676
  42
0.28022677
  0
VERTEX
  5
1e9
  8
Layer_27
  10
31.961739
  20
34.322571
  42
0.17638856
  0
SEQEND
  0
POLYLINE
  5
1eb
  8
Layer_27
  62
138
  70
1
  66
1
  10
0
  20
0
  30
0
  0
VERTEX
  5
1eb
  8
Layer_27
  10
36.946602
  20
25.994446
  0
VERTEX
  5
1ec
  8
Layer_27
  10
36.946602
  20
26.579407
  0
VERTEX
  5
1ed
  8
Layer_27
  10
32.446602
  20
28.319641
  0
VERTEX
  5
1ee
  8
Layer_27
  10
32.446602
  20
28.33429
  0
VERTEX
  5
1ef
  8
Layer_27
  10
36.946602
  20
30.02179
  0
VERTEX
  5
1f0
  8
Layer_27
  10
36.946602
  20
30.621887
  0
VERTEX
  5
1f1
  8
Layer_27
  10
31.636543
  20
28.604309
  0
VERTEX
  5
1f2
  8
Layer_27
  10
31.636543
  20
28.06427
  0
SEQEND
  0
POLYLINE
  5
1f4
  8
Layer_27
  62
138
  70
1
  66
1
  10
0
  20
0
  30
0
  0
VERTEX
  5
1f4
  8
Layer_27
  10
36.946602
  20
23.407532
  0
VERTEX
  5
1f5
  8
Layer_27
  10
36.946602
  20
23.887512
  0
VERTEX
  5
1f6
  8
Layer_27
  10
35.836739
  20
25.23761
  0
VERTEX
  5
1f7
  8
Layer_27
  10
35.431465
  20
24.899719
  0
VERTEX
  5
1f8
  8
Layer_27
  10
36.271797
  20
23.947571
  0
VERTEX
  5
1f9
  8
Layer_27
  10
31.636543
  20
23.947571
  0
VERTEX
  5
1fa
  8
Layer_27
  10
31.636543
  20
23.407532
  0
SEQEND
  0
POLYLINE
  5
1fc
  8
Layer_27
  62
138
  70
1
  66
1
  10
0
  20
0
  30
0
  0
VERTEX
  5
1fc
  8
Layer_27
  10
20.90715
  20
32.770889
  42
0.21950135
  0
VERTEX
  5
1fd
  8
Layer_27
  10
21.863693
  20
31.127823
  0
VERTEX
  5
1fe
  8
Layer_27
  10
22.178635
  20
31.570206
  0
VERTEX
  5
1ff
  8
Layer_27
  10
21.965744
  20
31.726456
  42
-0.22639919
  0
VERTEX
  5
200
  8
Layer_27
  10
21.383224
  20
33.092667
  42
-0.37951508
  0
VERTEX
  5
201
  8
Layer_27
  10
23.231369
  20
35.237686
  42
-0.28085683
  0
VERTEX
  5
202
  8
Layer_27
  10
25.566818
  20
34.381729
  42
-0.35084011
  0
VERTEX
  5
203
  8
Layer_27
  10
25.531174
  20
31.95253
  42
-0.06491434
  0
VERTEX
  5
204
  8
Layer_27
  10
25.275803
  20
31.727432
  0
VERTEX
  5
205
  8
Layer_27
  10
25.628342
  20
31.255264
  42
0.23226567
  0
VERTEX
  5
206
  8
Layer_27
  10
26.468674
  20
33.092667
  42
0.39877252
  0
VERTEX
  5
207
  8
Layer_27
  10
23.975998
  20
35.847061
  42
0.28022677
  0
VERTEX
  5
208
  8
Layer_27
  10
21.348557
  20
34.663956
  42
0.17638818
  0
SEQEND
  0
POLYLINE
  5
20a
  8
Layer_27
  62
138
  70
1
  66
1
  10
0
  20
0
  30
0
  0
VERTEX
  5
20a
  8
Layer_27
  10
21.518478
  20
22.623917
  0
VERTEX
  5
20b
  8
Layer_27
  10
21.518478
  20
25.413956
  0
VERTEX
  5
20c
  8
Layer_27
  10
23.372971
  20
23.541397
  42
0.13470972
  0
VERTEX
  5
20d
  8
Layer_27
  10
24.61174
  20
22.721573
  42
0.27327252
  0
VERTEX
  5
20e
  8
Layer_27
  10
25.98674
  20
23.047745
  42
0.19703965
  0
VERTEX
  5
20f
  8
Layer_27
  10
26.423264
  20
24.273819
  42
0.27202833
  0
VERTEX
  5
210
  8
Layer_27
  10
25.684494
  20
25.671768
  42
0.085785697
  0
VERTEX
  5
211
  8
Layer_27
  10
25.156174
  20
25.863663
  0
VERTEX
  5
212
  8
Layer_27
  10
25.096115
  20
25.293839
  0
VERTEX
  5
213
  8
Layer_27
  10
25.277267
  20
25.239639
  42
-0.36333187
  0
VERTEX
  5
214
  8
Layer_27
  10
25.912521
  20
24.03212
  42
-0.21132176
  0
VERTEX
  5
215
  8
Layer_27
  10
25.547136
  20
23.385498
  42
-0.21132107
  0
VERTEX
  5
216
  8
Layer_27
  10
24.822189
  20
23.224014
  42
-0.14449108
  0
VERTEX
  5
217
  8
Layer_27
  10
23.798264
  20
23.883682
  0
VERTEX
  5
218
  8
Layer_27
  10
21.64592
  20
25.998917
  0
VERTEX
  5
219
  8
Layer_27
  10
21.023361
  20
25.998917
  0
VERTEX
  5
21a
  8
Layer_27
  10
21.023361
  20
22.623917
  0
SEQEND
  0
POLYLINE
  5
21c
  8
Layer_27
  62
138
  70
1
  66
1
  10
0
  20
0
  30
0
  0
VERTEX
  5
21c
  8
Layer_27
  10
26.33342
  20
26.335831
  0
VERTEX
  5
21d
  8
Layer_27
  10
26.33342
  20
26.920792
  0
VERTEX
  5
21e
  8
Layer_27
  10
21.83342
  20
28.661026
  0
VERTEX
  5
21f
  8
Layer_27
  10
21.83342
  20
28.675674
  0
VERTEX
  5
220
  8
Layer_27
  10
26.33342
  20
30.363174
  0
VERTEX
  5
221
  8
Layer_27
  10
26.33342
  20
30.963272
  0
VERTEX
  5
222
  8
Layer_27
  10
21.023361
  20
28.945694
  0
VERTEX
  5
223
  8
Layer_27
  10
21.023361
  20
28.405655
  0
SEQEND
  0
POLYLINE
  5
225
  8
Layer_27
  62
138
  70
1
  66
1
  10
0
  20
0
  30
0
  0
VERTEX
  5
225
  8
Layer_27
  10
72.149162
  20
11.09668
  42
0.20397844
  0
VERTEX
  5
226
  8
Layer_27
  10
72.823578
  20
9.8380117
  42
0.20397825
  0
VERTEX
  5
227
  8
Layer_27
  10
74.198967
  20
9.4541016
  42
0.20409456
  0
VERTEX
  5
228
  8
Layer_27
  10
75.458771
  20
10.116419
  42
0.20409447
  0
VERTEX
  5
229
  8
Layer_27
  10
75.851799
  20
11.484375
  42
0.39876524
  0
VERTEX
  5
22a
  8
Layer_27
  10
74.000237
  20
13.135254
  42
0.20487366
  0
VERTEX
  5
22b
  8
Layer_27
  10
72.674843
  20
12.611595
  42
0.20487373
  0
VERTEX
  5
22c
  8
Layer_27
  10
72.140373
  20
11.290527
  0
SEQEND
  0
POLYLINE
  5
22e
  8
Layer_27
  62
138
  70
1
  66
1
  10
0
  20
0
  30
0
  0
VERTEX
  5
22e
  8
Layer_27
  10
75.770256
  20
20.804199
  0
VERTEX
  5
22f
  8
Layer_27
  10
75.770256
  20
21.164063
  0
VERTEX
  5
230
  8
Layer_27
  10
72.230217
  20
21.164063
  0
VERTEX
  5
231
  8
Layer_27
  10
72.230217
  20
20.804199
  0
SEQEND
  0
POLYLINE
  5
233
  8
Layer_27
  62
138
  70
1
  66
1
  10
0
  20
0
  30
0
  0
VERTEX
  5
233
  8
Layer_27
  10
72.478264
  20
11.456055
  42
-0.39491916
  0
VERTEX
  5
234
  8
Layer_27
  10
74.000237
  20
12.745605
  42
-0.20550839
  0
VERTEX
  5
235
  8
Layer_27
  10
75.078468
  20
12.347345
  42
-0.20550848
  0
VERTEX
  5
236
  8
Layer_27
  10
75.53051
  20
11.290527
  42
-0.40503357
  0
VERTEX
  5
237
  8
Layer_27
  10
74.151115
  20
9.8417969
  42
-0.35161098
  0
VERTEX
  5
238
  8
Layer_27
  10
72.540764
  20
10.819824
  42
-0.10141615
  0
SEQEND
  0
POLYLINE
  5
23a
  8
Layer_27
  62
138
  70
1
  66
1
  10
0
  20
0
  30
0
  0
VERTEX
  5
23a
  8
Layer_27
  10
72.175529
  20
5.1557617
  42
0.088391084
  0
VERTEX
  5
23b
  8
Layer_27
  10
72.255608
  20
4.8359375
  0
VERTEX
  5
23c
  8
Layer_27
  10
72.560295
  20
4.8510742
  42
-0.29660187
  0
VERTEX
  5
23d
  8
Layer_27
  10
72.550529
  20
5.4360352
  42
-0.19483013
  0
VERTEX
  5
23e
  8
Layer_27
  10
72.890373
  20
5.5312505
  0
VERTEX
  5
23f
  8
Layer_27
  10
74.270256
  20
5.53125
  0
VERTEX
  5
240
  8
Layer_27
  10
74.270256
  20
4.855957
  0
VERTEX
  5
241
  8
Layer_27
  10
74.570549
  20
4.855957
  0
VERTEX
  5
242
  8
Layer_27
  10
74.570549
  20
5.53125
  0
VERTEX
  5
243
  8
Layer_27
  10
75.230217
  20
5.53125
  0
VERTEX
  5
244
  8
Layer_27
  10
75.230217
  20
5.8613281
  0
VERTEX
  5
245
  8
Layer_27
  10
74.570549
  20
5.8613281
  0
VERTEX
  5
246
  8
Layer_27
  10
74.570549
  20
6.355957
  0
VERTEX
  5
247
  8
Layer_27
  10
74.270256
  20
6.355957
  0
VERTEX
  5
248
  8
Layer_27
  10
74.270256
  20
5.8613281
  0
VERTEX
  5
249
  8
Layer_27
  10
72.795647
  20
5.8613286
  42
0.36839164
  0
VERTEX
  5
24a
  8
Layer_27
  10
72.195549
  20
5.4785156
  42
0.083906572
  0
SEQEND
  0
POLYLINE
  5
24c
  8
Layer_27
  62
138
  70
1
  66
1
  10
0
  20
0
  30
0
  0
VERTEX
  5
24c
  8
Layer_27
  10
73.430412
  20
19.634766
  42
-0.30828196
  0
VERTEX
  5
24d
  8
Layer_27
  10
74.272697
  20
19.182617
  42
-0.33107897
  0
VERTEX
  5
24e
  8
Layer_27
  10
74.122795
  20
18.424805
  42
-0.14273797
  0
VERTEX
  5
24f
  8
Layer_27
  10
73.525627
  20
18.289551
  0
VERTEX
  5
250
  8
Layer_27
  10
72.230217
  20
18.289551
  0
VERTEX
  5
251
  8
Layer_27
  10
72.230217
  20
17.959473
  0
VERTEX
  5
252
  8
Layer_27
  10
73.715569
  20
17.959473
  42
0.18866617
  0
VERTEX
  5
253
  8
Layer_27
  10
74.392815
  20
18.174805
  42
0.35092507
  0
VERTEX
  5
254
  8
Layer_27
  10
74.444572
  20
19.394531
  42
0.066070862
  0
VERTEX
  5
255
  8
Layer_27
  10
74.195549
  20
19.634766
  0
VERTEX
  5
256
  8
Layer_27
  10
74.383049
  20
19.637207
  42
0.017478456
  0
VERTEX
  5
257
  8
Layer_27
  10
74.570549
  20
19.649414
  0
VERTEX
  5
258
  8
Layer_27
  10
74.570549
  20
19.989746
  0
VERTEX
  5
259
  8
Layer_27
  10
74.295647
  20
19.972168
  42
-0.015228957
  0
VERTEX
  5
25a
  8
Layer_27
  10
74.055412
  20
19.964844
  0
VERTEX
  5
25b
  8
Layer_27
  10
72.230217
  20
19.964844
  0
VERTEX
  5
25c
  8
Layer_27
  10
72.230217
  20
19.634766
  0
SEQEND
  0
POLYLINE
  5
25e
  8
Layer_27
  62
138
  70
1
  66
1
  10
0
  20
0
  30
0
  0
VERTEX
  5
25e
  8
Layer_27
  10
72.178459
  20
7.8500981
  42
0.2105001
  0
VERTEX
  5
25f
  8
Layer_27
  10
72.605217
  20
7.1708989
  0
VERTEX
  5
260
  8
Layer_27
  10
72.417717
  20
7.1684575
  42
0.020038088
  0
VERTEX
  5
261
  8
Layer_27
  10
72.230217
  20
7.1557622
  0
VERTEX
  5
262
  8
Layer_27
  10
72.230217
  20
6.8159184
  0
VERTEX
  5
263
  8
Layer_27
  10
72.505608
  20
6.8334966
  42
-0.011195833
  0
VERTEX
  5
264
  8
Layer_27
  10
72.745354
  20
6.8408208
  0
VERTEX
  5
265
  8
Layer_27
  10
74.570549
  20
6.8408203
  0
VERTEX
  5
266
  8
Layer_27
  10
74.570549
  20
7.1708984
  0
VERTEX
  5
267
  8
Layer_27
  10
73.370354
  20
7.1708984
  42
-0.30799609
  0
VERTEX
  5
268
  8
Layer_27
  10
72.528069
  20
7.6225591
  42
-0.32814178
  0
VERTEX
  5
269
  8
Layer_27
  10
72.677971
  20
8.3833008
  42
-0.15076325
  0
VERTEX
  5
26a
  8
Layer_27
  10
73.275627
  20
8.515625
  0
VERTEX
  5
26b
  8
Layer_27
  10
74.570549
  20
8.515625
  0
VERTEX
  5
26c
  8
Layer_27
  10
74.570549
  20
8.8457031
  0
VERTEX
  5
26d
  8
Layer_27
  10
73.085197
  20
8.8457031
  42
0.18834348
  0
VERTEX
  5
26e
  8
Layer_27
  10
72.407951
  20
8.6308594
  42
0.22590573
  0
SEQEND
  0
ENDSEC
  0
EOF
