  0
SECTION
  2
HEADER
  9
$ACADVER
  1
AC1009
  0
ENDSEC
  0
SECTION
  2
TABLES
  0
TABLE
  2
LAYER
  70
2
  0
LAYER
  2
Layer_25
  70
0
  62
206
  6
CONTINUOUS
  0
LAYER
  2
Layer_27
  70
0
  62
138
  6
CONTINUOUS
  0
ENDTAB
  0
ENDSEC
  0
SECTION
  2
ENTITIES
  0
CIRCLE
  5
90
  8
Layer_25
  62
206
  10
127.35445
  20
20.855217
  30
0
  40
1.5
  0
CIRCLE
  5
90
  8
Layer_25
  62
206
  10
127.35445
  20
51.293221
  30
0
  40
1.5
  0
CIRCLE
  5
90
  8
Layer_25
  62
206
  10
29.690994
  20
17.374268
  30
0
  40
3.8499999
  0
CIRCLE
  5
90
  8
Layer_25
  62
206
  10
40.72937
  20
17.374268
  30
0
  40
3.8499999
  0
CIRCLE
  5
90
  8
Layer_25
  62
206
  10
62.764221
  20
17.374268
  30
0
  40
3.8499999
  0
CIRCLE
  5
90
  8
Layer_25
  62
206
  10
51.725845
  20
17.374268
  30
0
  40
3.8499999
  0
CIRCLE
  5
90
  8
Layer_25
  62
206
  10
73.611115
  20
17.374268
  30
0
  40
3.8499999
  0
CIRCLE
  5
90
  8
Layer_25
  62
206
  10
73.611115
  20
27.204132
  30
0
  40
3.8499999
  0
CIRCLE
  5
90
  8
Layer_25
  62
206
  10
62.764221
  20
27.204132
  30
0
  40
3.8499999
  0
CIRCLE
  5
90
  8
Layer_25
  62
206
  10
51.725845
  20
27.204132
  30
0
  40
3.8499999
  0
CIRCLE
  5
90
  8
Layer_25
  62
206
  10
40.72937
  20
27.204132
  30
0
  40
3.8499999
  0
CIRCLE
  5
90
  8
Layer_25
  62
206
  10
29.690994
  20
27.204132
  30
0
  40
3.8499999
  0
CIRCLE
  5
90
  8
Layer_25
  62
206
  10
62.811142
  20
45.074219
  30
0
  40
3.5
  0
CIRCLE
  5
90
  8
Layer_25
  62
206
  10
85.267426
  20
20.855217
  30
0
  40
1.5
  0
CIRCLE
  5
90
  8
Layer_25
  62
206
  10
85.267426
  20
51.293221
  30
0
  40
1.5
  0
POLYLINE
  5
90
  8
Layer_25
  62
206
  70
1
  66
1
  10
0
  20
0
  30
0
  0
VERTEX
  5
90
  8
Layer_25
  10
137.40282
  20
61.324219
  0
VERTEX
  5
91
  8
Layer_25
  10
8.797967
  20
61.324219
  0
VERTEX
  5
92
  8
Layer_25
  10
8.797967
  20
10.824219
  0
VERTEX
  5
93
  8
Layer_25
  10
137.40282
  20
10.824219
  0
SEQEND
  0
POLYLINE
  5
95
  8
Layer_25
  62
206
  70
1
  66
1
  10
0
  20
0
  30
0
  0
VERTEX
  5
95
  8
Layer_25
  10
124.89542
  20
52.228638
  0
VERTEX
  5
96
  8
Layer_25
  10
92.421135
  20
52.228638
  0
VERTEX
  5
97
  8
Layer_25
  10
92.421135
  20
19.801941
  0
VERTEX
  5
98
  8
Layer_25
  10
124.89542
  20
19.801941
  0
SEQEND
  0
POLYLINE
  5
9a
  8
Layer_25
  62
206
  70
1
  66
1
  10
0
  20
0
  30
0
  0
VERTEX
  5
9a
  8
Layer_25
  10
13.511135
  20
20.574219
  42
0.41421356
  0
VERTEX
  5
9b
  8
Layer_25
  10
12.511135
  20
21.574219
  0
VERTEX
  5
9c
  8
Layer_25
  10
11.111134
  20
21.574219
  42
0.41421356
  0
VERTEX
  5
9d
  8
Layer_25
  10
10.111134
  20
20.574219
  0
VERTEX
  5
9e
  8
Layer_25
  10
10.111134
  20
17.574219
  42
0.41421356
  0
VERTEX
  5
9f
  8
Layer_25
  10
11.111134
  20
16.574219
  0
VERTEX
  5
a0
  8
Layer_25
  10
12.511135
  20
16.574219
  42
0.41421356
  0
VERTEX
  5
a1
  8
Layer_25
  10
13.511135
  20
17.574219
  0
SEQEND
  0
POLYLINE
  5
a3
  8
Layer_25
  62
206
  70
1
  66
1
  10
0
  20
0
  30
0
  0
VERTEX
  5
a3
  8
Layer_25
  10
13.511135
  20
56.574219
  42
0.41421356
  0
VERTEX
  5
a4
  8
Layer_25
  10
12.511135
  20
57.574219
  0
VERTEX
  5
a5
  8
Layer_25
  10
11.111134
  20
57.574219
  42
0.41421356
  0
VERTEX
  5
a6
  8
Layer_25
  10
10.111134
  20
56.574219
  0
VERTEX
  5
a7
  8
Layer_25
  10
10.111134
  20
53.574219
  42
0.41421356
  0
VERTEX
  5
a8
  8
Layer_25
  10
11.111134
  20
52.574219
  0
VERTEX
  5
a9
  8
Layer_25
  10
12.511135
  20
52.574219
  42
0.41421356
  0
VERTEX
  5
aa
  8
Layer_25
  10
13.511135
  20
53.574219
  0
SEQEND
  0
POLYLINE
  5
ac
  8
Layer_25
  62
206
  70
1
  66
1
  10
0
  20
0
  30
0
  0
VERTEX
  5
ac
  8
Layer_25
  10
135.97514
  20
20.574219
  42
0.41421356
  0
VERTEX
  5
ad
  8
Layer_25
  10
134.97514
  20
21.574219
  0
VERTEX
  5
ae
  8
Layer_25
  10
133.57513
  20
21.574219
  42
0.41421356
  0
VERTEX
  5
af
  8
Layer_25
  10
132.57513
  20
20.574219
  0
VERTEX
  5
b0
  8
Layer_25
  10
132.57513
  20
17.574219
  42
0.41421356
  0
VERTEX
  5
b1
  8
Layer_25
  10
133.57513
  20
16.574219
  0
VERTEX
  5
b2
  8
Layer_25
  10
134.97514
  20
16.574219
  42
0.41421356
  0
VERTEX
  5
b3
  8
Layer_25
  10
135.97514
  20
17.574219
  0
SEQEND
  0
POLYLINE
  5
b5
  8
Layer_25
  62
206
  70
1
  66
1
  10
0
  20
0
  30
0
  0
VERTEX
  5
b5
  8
Layer_25
  10
135.97514
  20
56.574219
  42
0.41421356
  0
VERTEX
  5
b6
  8
Layer_25
  10
134.97514
  20
57.574219
  0
VERTEX
  5
b7
  8
Layer_25
  10
133.57513
  20
57.574219
  42
0.41421356
  0
VERTEX
  5
b8
  8
Layer_25
  10
132.57513
  20
56.574219
  0
VERTEX
  5
b9
  8
Layer_25
  10
132.57513
  20
53.574219
  42
0.41421356
  0
VERTEX
  5
ba
  8
Layer_25
  10
133.57513
  20
52.574219
  0
VERTEX
  5
bb
  8
Layer_25
  10
134.97514
  20
52.574219
  42
0.41421356
  0
VERTEX
  5
bc
  8
Layer_25
  10
135.97514
  20
53.574219
  0
SEQEND
  0
POLYLINE
  5
be
  8
Layer_27
  62
138
  70
1
  66
1
  10
0
  20
0
  30
0
  0
VERTEX
  5
be
  8
Layer_27
  10
67.131241
  20
41.260078
  0
VERTEX
  5
bf
  8
Layer_27
  10
67.131241
  20
41.755196
  0
VERTEX
  5
c0
  8
Layer_27
  10
61.461319
  20
41.755196
  0
VERTEX
  5
c1
  8
Layer_27
  10
61.461319
  20
41.260078
  0
SEQEND
  0
POLYLINE
  5
c3
  8
Layer_27
  62
138
  70
1
  66
1
  10
0
  20
0
  30
0
  0
VERTEX
  5
c3
  8
Layer_27
  10
61.381241
  20
52.587715
  42
0.25621304
  0
VERTEX
  5
c4
  8
Layer_27
  10
62.031631
  20
51.555489
  0
VERTEX
  5
c5
  8
Layer_27
  10
62.031631
  20
51.54084
  0
VERTEX
  5
c6
  8
Layer_27
  10
61.8871
  20
51.53791
  42
0.035707053
  0
VERTEX
  5
c7
  8
Layer_27
  10
61.461319
  20
51.49543
  0
VERTEX
  5
c8
  8
Layer_27
  10
61.461319
  20
51.01545
  0
VERTEX
  5
c9
  8
Layer_27
  10
61.623428
  20
51.037422
  42
-0.029049603
  0
VERTEX
  5
ca
  8
Layer_27
  10
62.248917
  20
51.075508
  0
VERTEX
  5
cb
  8
Layer_27
  10
63.816299
  20
51.075508
  42
0.4019494
  0
VERTEX
  5
cc
  8
Layer_27
  10
65.042862
  20
52.107735
  42
0.19289545
  0
VERTEX
  5
cd
  8
Layer_27
  10
64.670792
  20
53.711739
  0
VERTEX
  5
ce
  8
Layer_27
  10
64.551651
  20
53.843086
  0
VERTEX
  5
cf
  8
Layer_27
  10
64.199112
  20
53.543282
  0
VERTEX
  5
d0
  8
Layer_27
  10
64.379288
  20
53.304512
  42
-0.21070435
  0
VERTEX
  5
d1
  8
Layer_27
  10
64.554581
  20
52.076973
  42
-0.30280751
  0
VERTEX
  5
d2
  8
Layer_27
  10
63.916397
  20
51.584785
  42
-0.033282016
  0
VERTEX
  5
d3
  8
Layer_27
  10
63.614151
  20
51.570625
  0
VERTEX
  5
d4
  8
Layer_27
  10
63.614151
  20
51.818184
  42
0.090293433
  0
VERTEX
  5
d5
  8
Layer_27
  10
63.433975
  20
53.224434
  42
0.22549349
  0
VERTEX
  5
d6
  8
Layer_27
  10
62.780655
  20
53.945137
  42
0.32296909
  0
VERTEX
  5
d7
  8
Layer_27
  10
61.630264
  20
53.629219
  42
0.18713686
  0
SEQEND
  0
POLYLINE
  5
d9
  8
Layer_27
  62
138
  70
1
  66
1
  10
0
  20
0
  30
0
  0
VERTEX
  5
d9
  8
Layer_27
  10
63.261612
  20
49.433907
  42
-0.2248601
  0
VERTEX
  5
da
  8
Layer_27
  10
64.340714
  20
49.035469
  42
-0.34058018
  0
VERTEX
  5
db
  8
Layer_27
  10
64.436417
  20
47.741524
  42
-0.19147327
  0
VERTEX
  5
dc
  8
Layer_27
  10
63.679092
  20
47.429024
  0
VERTEX
  5
dd
  8
Layer_27
  10
63.403702
  20
47.416328
  0
VERTEX
  5
de
  8
Layer_27
  10
61.461319
  20
47.416328
  0
VERTEX
  5
df
  8
Layer_27
  10
61.461319
  20
46.921211
  0
VERTEX
  5
e0
  8
Layer_27
  10
63.688858
  20
46.921211
  42
0.18850447
  0
VERTEX
  5
e1
  8
Layer_27
  10
64.704971
  20
47.243965
  42
0.23365104
  0
VERTEX
  5
e2
  8
Layer_27
  10
65.04921
  20
48.414864
  42
0.21072485
  0
VERTEX
  5
e3
  8
Layer_27
  10
64.409073
  20
49.433907
  0
VERTEX
  5
e4
  8
Layer_27
  10
64.690323
  20
49.437813
  42
0.020304449
  0
VERTEX
  5
e5
  8
Layer_27
  10
64.971573
  20
49.456367
  0
VERTEX
  5
e6
  8
Layer_27
  10
64.971573
  20
49.966133
  0
VERTEX
  5
e7
  8
Layer_27
  10
64.770889
  20
49.952461
  42
-0.017137403
  0
VERTEX
  5
e8
  8
Layer_27
  10
64.199112
  20
49.929024
  0
VERTEX
  5
e9
  8
Layer_27
  10
61.461319
  20
49.929024
  0
VERTEX
  5
ea
  8
Layer_27
  10
61.461319
  20
49.433907
  0
SEQEND
  0
POLYLINE
  5
ec
  8
Layer_27
  62
138
  70
1
  66
1
  10
0
  20
0
  30
0
  0
VERTEX
  5
ec
  8
Layer_27
  10
61.381241
  20
44.526192
  42
0.25614233
  0
VERTEX
  5
ed
  8
Layer_27
  10
62.031631
  20
43.494453
  0
VERTEX
  5
ee
  8
Layer_27
  10
62.031631
  20
43.479317
  0
VERTEX
  5
ef
  8
Layer_27
  10
61.8871
  20
43.476387
  42
0.034081105
  0
VERTEX
  5
f0
  8
Layer_27
  10
61.461319
  20
43.434395
  0
VERTEX
  5
f1
  8
Layer_27
  10
61.461319
  20
42.954414
  0
VERTEX
  5
f2
  8
Layer_27
  10
61.623428
  20
42.975899
  42
-0.027965683
  0
VERTEX
  5
f3
  8
Layer_27
  10
62.248917
  20
43.014473
  0
VERTEX
  5
f4
  8
Layer_27
  10
63.816299
  20
43.014473
  42
0.40238288
  0
VERTEX
  5
f5
  8
Layer_27
  10
65.042862
  20
44.0467
  42
0.19291721
  0
VERTEX
  5
f6
  8
Layer_27
  10
64.670792
  20
45.650215
  0
VERTEX
  5
f7
  8
Layer_27
  10
64.551651
  20
45.782051
  0
VERTEX
  5
f8
  8
Layer_27
  10
64.199112
  20
45.481758
  0
VERTEX
  5
f9
  8
Layer_27
  10
64.379288
  20
45.243477
  42
-0.21060685
  0
VERTEX
  5
fa
  8
Layer_27
  10
64.554581
  20
44.01545
  42
-0.30191309
  0
VERTEX
  5
fb
  8
Layer_27
  10
63.916397
  20
43.523262
  42
-0.033300865
  0
VERTEX
  5
fc
  8
Layer_27
  10
63.614151
  20
43.509102
  0
VERTEX
  5
fd
  8
Layer_27
  10
63.614151
  20
43.75666
  42
0.090329995
  0
VERTEX
  5
fe
  8
Layer_27
  10
63.433975
  20
45.16291
  42
0.2250557
  0
VERTEX
  5
ff
  8
Layer_27
  10
62.780655
  20
45.884102
  42
0.32229128
  0
VERTEX
  5
100
  8
Layer_27
  10
61.630264
  20
45.568184
  42
0.18709139
  0
SEQEND
  0
POLYLINE
  5
102
  8
Layer_27
  62
138
  70
1
  66
1
  10
0
  20
0
  30
0
  0
VERTEX
  5
102
  8
Layer_27
  10
61.380264
  20
38.18586
  42
0.21737663
  0
VERTEX
  5
103
  8
Layer_27
  10
62.116611
  20
36.862839
  42
0.21737323
  0
VERTEX
  5
104
  8
Layer_27
  10
63.599014
  20
36.554512
  42
0.39843622
  0
VERTEX
  5
105
  8
Layer_27
  10
65.052628
  20
38.58625
  42
0.20501199
  0
VERTEX
  5
106
  8
Layer_27
  10
64.391739
  20
39.848618
  42
0.20501273
  0
VERTEX
  5
107
  8
Layer_27
  10
63.021378
  20
40.239082
  42
0.40086233
  0
VERTEX
  5
108
  8
Layer_27
  10
61.371475
  20
38.38752
  0
SEQEND
  0
POLYLINE
  5
10a
  8
Layer_27
  62
138
  70
1
  66
1
  10
0
  20
0
  30
0
  0
VERTEX
  5
10a
  8
Layer_27
  10
59.672745
  20
33.747871
  42
0.27987123
  0
VERTEX
  5
10b
  8
Layer_27
  10
60.5746
  20
32.324043
  42
0.10539264
  0
VERTEX
  5
10c
  8
Layer_27
  10
61.491592
  20
32.147774
  0
VERTEX
  5
10d
  8
Layer_27
  10
64.971573
  20
32.147774
  0
VERTEX
  5
10e
  8
Layer_27
  10
64.971573
  20
32.642891
  0
VERTEX
  5
10f
  8
Layer_27
  10
64.386612
  20
32.642891
  0
VERTEX
  5
110
  8
Layer_27
  10
64.386612
  20
32.657539
  0
VERTEX
  5
111
  8
Layer_27
  10
64.571182
  20
32.813301
  42
0.38269472
  0
VERTEX
  5
112
  8
Layer_27
  10
64.653214
  20
35.170235
  42
0.40407674
  0
VERTEX
  5
113
  8
Layer_27
  10
62.09169
  20
35.385078
  42
0.39072036
  0
VERTEX
  5
114
  8
Layer_27
  10
61.813858
  20
32.924141
  42
0.066055601
  0
VERTEX
  5
115
  8
Layer_27
  10
62.121475
  20
32.657539
  0
VERTEX
  5
116
  8
Layer_27
  10
62.121475
  20
32.642891
  0
VERTEX
  5
117
  8
Layer_27
  10
61.491592
  20
32.642891
  42
-0.15744144
  0
VERTEX
  5
118
  8
Layer_27
  10
60.614151
  20
32.871407
  42
-0.2552093
  0
VERTEX
  5
119
  8
Layer_27
  10
60.111221
  20
34.007637
  42
-0.23833416
  0
VERTEX
  5
11a
  8
Layer_27
  10
60.756241
  20
35.35041
  0
VERTEX
  5
11b
  8
Layer_27
  10
60.366592
  20
35.717598
  42
0.22009287
  0
VERTEX
  5
11c
  8
Layer_27
  10
59.661514
  20
34.030098
  0
SEQEND
  0
POLYLINE
  5
11e
  8
Layer_27
  62
138
  70
1
  66
1
  10
0
  20
0
  30
0
  0
VERTEX
  5
11e
  8
Layer_27
  10
61.828018
  20
38.537422
  42
-0.40057543
  0
VERTEX
  5
11f
  8
Layer_27
  10
63.216202
  20
39.707344
  42
-0.36731879
  0
VERTEX
  5
120
  8
Layer_27
  10
64.584366
  20
38.679024
  42
-0.41158483
  0
VERTEX
  5
121
  8
Layer_27
  10
63.634171
  20
37.112617
  42
-0.30832106
  0
VERTEX
  5
122
  8
Layer_27
  10
62.058487
  20
37.610176
  42
-0.18273658
  0
SEQEND
  0
POLYLINE
  5
124
  8
Layer_27
  62
138
  70
1
  66
1
  10
0
  20
0
  30
0
  0
VERTEX
  5
124
  8
Layer_27
  10
61.91835
  20
34.091621
  42
-0.29320969
  0
VERTEX
  5
125
  8
Layer_27
  10
62.848866
  20
35.205616
  42
-0.29143126
  0
VERTEX
  5
126
  8
Layer_27
  10
64.252838
  20
34.830021
  42
-0.29320863
  0
VERTEX
  5
127
  8
Layer_27
  10
64.502823
  20
33.400215
  42
-0.32946654
  0
VERTEX
  5
128
  8
Layer_27
  10
63.111221
  20
32.630684
  42
-0.20555586
  0
VERTEX
  5
129
  8
Layer_27
  10
62.20134
  20
33.105217
  42
-0.20555836
  0
SEQEND
  0
POLYLINE
  5
12b
  8
Layer_27
  62
138
  70
1
  66
1
  10
0
  20
0
  30
0
  0
VERTEX
  5
12b
  8
Layer_27
  10
61.829971
  20
52.784492
  42
-0.32179807
  0
VERTEX
  5
12c
  8
Layer_27
  10
62.306046
  20
53.442696
  42
-0.39184069
  0
VERTEX
  5
12d
  8
Layer_27
  10
63.009171
  20
53.074532
  42
-0.10911507
  0
VERTEX
  5
12e
  8
Layer_27
  10
63.208878
  20
51.825508
  0
VERTEX
  5
12f
  8
Layer_27
  10
63.208878
  20
51.570625
  42
-0.13725006
  0
VERTEX
  5
130
  8
Layer_27
  10
62.322159
  20
51.716133
  42
-0.30899575
  0
SEQEND
  0
POLYLINE
  5
132
  8
Layer_27
  62
138
  70
1
  66
1
  10
0
  20
0
  30
0
  0
VERTEX
  5
132
  8
Layer_27
  10
61.829971
  20
44.723457
  42
-0.17685204
  0
VERTEX
  5
133
  8
Layer_27
  10
62.05751
  20
45.244453
  42
-0.34835044
  0
VERTEX
  5
134
  8
Layer_27
  10
62.796768
  20
45.296211
  42
-0.17927247
  0
VERTEX
  5
135
  8
Layer_27
  10
63.158096
  20
44.508614
  42
-0.038232833
  0
VERTEX
  5
136
  8
Layer_27
  10
63.208878
  20
43.509102
  0
VERTEX
  5
137
  8
Layer_27
  10
62.953995
  20
43.509102
  42
-0.24926477
  0
VERTEX
  5
138
  8
Layer_27
  10
62.017471
  20
43.922676
  42
-0.18946512
  0
SEQEND
  0
POLYLINE
  5
13a
  8
Layer_27
  62
138
  70
1
  66
1
  10
0
  20
0
  30
0
  0
VERTEX
  5
13a
  8
Layer_27
  10
71.380791
  20
50.027451
  42
0.20984457
  0
VERTEX
  5
13b
  8
Layer_27
  10
72.046318
  20
48.824814
  0
VERTEX
  5
13c
  8
Layer_27
  10
71.461357
  20
48.824814
  0
VERTEX
  5
13d
  8
Layer_27
  10
71.461357
  20
48.329697
  0
VERTEX
  5
13e
  8
Layer_27
  10
77.131279
  20
48.329697
  0
VERTEX
  5
13f
  8
Layer_27
  10
77.131279
  20
48.824814
  0
VERTEX
  5
140
  8
Layer_27
  10
74.38665
  20
48.824814
  0
VERTEX
  5
141
  8
Layer_27
  10
74.38665
  20
48.839462
  0
VERTEX
  5
142
  8
Layer_27
  10
74.553154
  20
48.97081
  42
0.37573402
  0
VERTEX
  5
143
  8
Layer_27
  10
74.653252
  20
51.417587
  42
0.40150743
  0
VERTEX
  5
144
  8
Layer_27
  10
72.02581
  20
51.664169
  42
0.25130608
  0
SEQEND
  0
POLYLINE
  5
146
  8
Layer_27
  62
138
  70
1
  66
1
  10
0
  20
0
  30
0
  0
VERTEX
  5
146
  8
Layer_27
  10
77.131279
  20
32.079697
  0
VERTEX
  5
147
  8
Layer_27
  10
77.131279
  20
32.574814
  0
VERTEX
  5
148
  8
Layer_27
  10
71.461357
  20
32.574814
  0
VERTEX
  5
149
  8
Layer_27
  10
71.461357
  20
32.079697
  0
SEQEND
  0
POLYLINE
  5
14b
  8
Layer_27
  62
138
  70
1
  66
1
  10
0
  20
0
  30
0
  0
VERTEX
  5
14b
  8
Layer_27
  10
75.967705
  20
46.823837
  42
0.2535149
  0
VERTEX
  5
14c
  8
Layer_27
  10
76.184326
  20
46.556698
  42
0.25351094
  0
VERTEX
  5
14d
  8
Layer_27
  10
76.526299
  20
46.593369
  42
0.40309202
  0
VERTEX
  5
14e
  8
Layer_27
  10
76.624443
  20
47.080185
  42
0.37576818
  0
VERTEX
  5
14f
  8
Layer_27
  10
76.178154
  20
47.221786
  42
0.34267528
  0
SEQEND
  0
POLYLINE
  5
151
  8
Layer_27
  62
138
  70
1
  66
1
  10
0
  20
0
  30
0
  0
VERTEX
  5
151
  8
Layer_27
  10
75.967705
  20
40.442001
  42
0.31071399
  0
VERTEX
  5
152
  8
Layer_27
  10
76.253548
  20
40.154198
  42
0.31067706
  0
VERTEX
  5
153
  8
Layer_27
  10
76.624443
  20
40.318466
  42
0.40341171
  0
VERTEX
  5
154
  8
Layer_27
  10
76.526299
  20
40.804794
  42
0.3772245
  0
VERTEX
  5
155
  8
Layer_27
  10
76.06292
  20
40.755478
  42
0.24529082
  0
SEQEND
  0
POLYLINE
  5
157
  8
Layer_27
  62
138
  70
1
  66
1
  10
0
  20
0
  30
0
  0
VERTEX
  5
157
  8
Layer_27
  10
71.379326
  20
37.702744
  42
0.087484978
  0
VERTEX
  5
158
  8
Layer_27
  10
71.498955
  20
37.223251
  0
VERTEX
  5
159
  8
Layer_27
  10
71.956474
  20
37.245712
  42
-0.23719525
  0
VERTEX
  5
15a
  8
Layer_27
  10
71.884209
  20
38.048935
  42
-0.24627352
  0
VERTEX
  5
15b
  8
Layer_27
  10
72.274345
  20
38.256454
  0
VERTEX
  5
15c
  8
Layer_27
  10
72.451591
  20
38.265732
  0
VERTEX
  5
15d
  8
Layer_27
  10
74.521416
  20
38.265732
  0
VERTEX
  5
15e
  8
Layer_27
  10
74.521416
  20
37.253036
  0
VERTEX
  5
15f
  8
Layer_27
  10
74.971611
  20
37.253036
  0
VERTEX
  5
160
  8
Layer_27
  10
74.971611
  20
38.265732
  0
VERTEX
  5
161
  8
Layer_27
  10
75.961357
  20
38.265732
  0
VERTEX
  5
162
  8
Layer_27
  10
75.961357
  20
38.760849
  0
VERTEX
  5
163
  8
Layer_27
  10
74.971611
  20
38.760849
  0
VERTEX
  5
164
  8
Layer_27
  10
74.971611
  20
39.503036
  0
VERTEX
  5
165
  8
Layer_27
  10
74.521416
  20
39.503036
  0
VERTEX
  5
166
  8
Layer_27
  10
74.521416
  20
38.760849
  0
VERTEX
  5
167
  8
Layer_27
  10
72.309013
  20
38.760849
  42
0.29239278
  0
VERTEX
  5
168
  8
Layer_27
  10
71.46331
  20
38.334091
  42
0.13368221
  0
SEQEND
  0
POLYLINE
  5
16a
  8
Layer_27
  62
138
  70
1
  66
1
  10
0
  20
0
  30
0
  0
VERTEX
  5
16a
  8
Layer_27
  10
69.672783
  20
43.577744
  42
0.27986724
  0
VERTEX
  5
16b
  8
Layer_27
  10
70.574638
  20
42.153915
  42
0.1053901
  0
VERTEX
  5
16c
  8
Layer_27
  10
71.491631
  20
41.977646
  0
VERTEX
  5
16d
  8
Layer_27
  10
74.971611
  20
41.977646
  0
VERTEX
  5
16e
  8
Layer_27
  10
74.971611
  20
42.472763
  0
VERTEX
  5
16f
  8
Layer_27
  10
74.38665
  20
42.472763
  0
VERTEX
  5
170
  8
Layer_27
  10
74.38665
  20
42.487411
  0
VERTEX
  5
171
  8
Layer_27
  10
74.57122
  20
42.643173
  42
0.38269526
  0
VERTEX
  5
172
  8
Layer_27
  10
74.653252
  20
45.000107
  42
0.40407581
  0
VERTEX
  5
173
  8
Layer_27
  10
72.091728
  20
45.214951
  42
0.39072529
  0
VERTEX
  5
174
  8
Layer_27
  10
71.813896
  20
42.754013
  42
0.066042139
  0
VERTEX
  5
175
  8
Layer_27
  10
72.121513
  20
42.487411
  0
VERTEX
  5
176
  8
Layer_27
  10
72.121513
  20
42.472763
  0
VERTEX
  5
177
  8
Layer_27
  10
71.491631
  20
42.472763
  42
-0.15743739
  0
VERTEX
  5
178
  8
Layer_27
  10
70.614189
  20
42.701279
  42
-0.25521161
  0
VERTEX
  5
179
  8
Layer_27
  10
70.111259
  20
43.837509
  42
-0.23833416
  0
VERTEX
  5
17a
  8
Layer_27
  10
70.756279
  20
45.180283
  0
VERTEX
  5
17b
  8
Layer_27
  10
70.366631
  20
45.54747
  42
0.22008491
  0
VERTEX
  5
17c
  8
Layer_27
  10
69.661552
  20
43.85997
  0
SEQEND
  0
POLYLINE
  5
17e
  8
Layer_27
  62
138
  70
1
  66
1
  10
0
  20
0
  30
0
  0
VERTEX
  5
17e
  8
Layer_27
  10
71.381279
  20
35.34581
  42
0.25614438
  0
VERTEX
  5
17f
  8
Layer_27
  10
72.03167
  20
34.314072
  0
VERTEX
  5
180
  8
Layer_27
  10
72.03167
  20
34.298935
  0
VERTEX
  5
181
  8
Layer_27
  10
71.887138
  20
34.296005
  42
0.034087744
  0
VERTEX
  5
182
  8
Layer_27
  10
71.461357
  20
34.254013
  0
VERTEX
  5
183
  8
Layer_27
  10
71.461357
  20
33.774033
  0
VERTEX
  5
184
  8
Layer_27
  10
71.623466
  20
33.795517
  42
-0.028258464
  0
VERTEX
  5
185
  8
Layer_27
  10
72.248955
  20
33.834091
  0
VERTEX
  5
186
  8
Layer_27
  10
73.816338
  20
33.834091
  42
0.4023106
  0
VERTEX
  5
187
  8
Layer_27
  10
75.0429
  20
34.866318
  42
0.19305953
  0
VERTEX
  5
188
  8
Layer_27
  10
74.67083
  20
36.469833
  0
VERTEX
  5
189
  8
Layer_27
  10
74.551689
  20
36.601669
  0
VERTEX
  5
18a
  8
Layer_27
  10
74.19915
  20
36.301376
  0
VERTEX
  5
18b
  8
Layer_27
  10
74.379326
  20
36.063095
  42
-0.21060145
  0
VERTEX
  5
18c
  8
Layer_27
  10
74.554619
  20
34.835068
  42
-0.30181944
  0
VERTEX
  5
18d
  8
Layer_27
  10
73.916435
  20
34.34288
  42
-0.032156145
  0
VERTEX
  5
18e
  8
Layer_27
  10
73.614189
  20
34.329208
  0
VERTEX
  5
18f
  8
Layer_27
  10
73.614189
  20
34.576767
  42
0.090201768
  0
VERTEX
  5
190
  8
Layer_27
  10
73.434013
  20
35.983017
  42
0.22478148
  0
VERTEX
  5
191
  8
Layer_27
  10
72.780693
  20
36.70372
  42
0.32235285
  0
VERTEX
  5
192
  8
Layer_27
  10
71.630302
  20
36.387802
  42
0.18709404
  0
SEQEND
  0
POLYLINE
  5
194
  8
Layer_27
  62
138
  70
1
  66
1
  10
0
  20
0
  30
0
  0
VERTEX
  5
194
  8
Layer_27
  10
74.971611
  20
46.642685
  0
VERTEX
  5
195
  8
Layer_27
  10
74.971611
  20
47.137802
  0
VERTEX
  5
196
  8
Layer_27
  10
71.461357
  20
47.137802
  0
VERTEX
  5
197
  8
Layer_27
  10
71.461357
  20
46.642685
  0
SEQEND
  0
POLYLINE
  5
199
  8
Layer_27
  62
138
  70
1
  66
1
  10
0
  20
0
  30
0
  0
VERTEX
  5
199
  8
Layer_27
  10
74.971611
  20
40.260849
  0
VERTEX
  5
19a
  8
Layer_27
  10
74.971611
  20
40.755478
  0
VERTEX
  5
19b
  8
Layer_27
  10
71.461357
  20
40.755478
  0
VERTEX
  5
19c
  8
Layer_27
  10
71.461357
  20
40.260849
  0
SEQEND
  0
POLYLINE
  5
19e
  8
Layer_27
  62
138
  70
1
  66
1
  10
0
  20
0
  30
0
  0
VERTEX
  5
19e
  8
Layer_27
  10
71.828056
  20
50.354599
  42
-0.40038147
  0
VERTEX
  5
19f
  8
Layer_27
  10
73.21624
  20
51.532333
  42
-0.20752568
  0
VERTEX
  5
1a0
  8
Layer_27
  10
74.202675
  20
51.172108
  42
-0.20753241
  0
VERTEX
  5
1a1
  8
Layer_27
  10
74.611259
  20
50.204697
  42
-0.39546369
  0
VERTEX
  5
1a2
  8
Layer_27
  10
73.360283
  20
48.808701
  42
-0.39366515
  0
VERTEX
  5
1a3
  8
Layer_27
  10
71.848564
  20
49.915146
  42
-0.070272993
  0
SEQEND
  0
POLYLINE
  5
1a5
  8
Layer_27
  62
138
  70
1
  66
1
  10
0
  20
0
  30
0
  0
VERTEX
  5
1a5
  8
Layer_27
  10
71.918388
  20
43.921494
  42
-0.29321444
  0
VERTEX
  5
1a6
  8
Layer_27
  10
72.8489
  20
45.035492
  42
-0.2914284
  0
VERTEX
  5
1a7
  8
Layer_27
  10
74.252876
  20
44.659897
  42
-0.29320797
  0
VERTEX
  5
1a8
  8
Layer_27
  10
74.502861
  20
43.230087
  42
-0.32946766
  0
VERTEX
  5
1a9
  8
Layer_27
  10
73.111259
  20
42.460556
  42
-0.20555989
  0
VERTEX
  5
1aa
  8
Layer_27
  10
72.201378
  20
42.935093
  42
-0.20555638
  0
SEQEND
  0
POLYLINE
  5
1ac
  8
Layer_27
  62
138
  70
1
  66
1
  10
0
  20
0
  30
0
  0
VERTEX
  5
1ac
  8
Layer_27
  10
71.830009
  20
35.543076
  42
-0.070451295
  0
VERTEX
  5
1ad
  8
Layer_27
  10
71.900322
  20
35.830185
  42
-0.3762246
  0
VERTEX
  5
1ae
  8
Layer_27
  10
72.590752
  20
36.207626
  42
-0.2630042
  0
VERTEX
  5
1af
  8
Layer_27
  10
73.059502
  20
35.717392
  42
-0.084607343
  0
VERTEX
  5
1b0
  8
Layer_27
  10
73.208916
  20
34.329208
  0
VERTEX
  5
1b1
  8
Layer_27
  10
72.954033
  20
34.329208
  42
-0.24973395
  0
VERTEX
  5
1b2
  8
Layer_27
  10
72.017509
  20
34.742294
  42
-0.18945783
  0
SEQEND
  0
POLYLINE
  5
1b4
  8
Layer_27
  62
138
  70
1
  66
1
  10
0
  20
0
  30
0
  0
VERTEX
  5
1b4
  8
Layer_27
  10
53.901245
  20
46.482445
  0
VERTEX
  5
1b5
  8
Layer_27
  10
53.901245
  20
46.467308
  0
VERTEX
  5
1b6
  8
Layer_27
  10
49.310913
  20
44.547386
  0
VERTEX
  5
1b7
  8
Layer_27
  10
49.310913
  20
44.26223
  0
VERTEX
  5
1b8
  8
Layer_27
  10
53.901245
  20
42.342308
  0
VERTEX
  5
1b9
  8
Layer_27
  10
53.901245
  20
42.327171
  0
VERTEX
  5
1ba
  8
Layer_27
  10
49.310913
  20
42.327171
  0
VERTEX
  5
1bb
  8
Layer_27
  10
49.310913
  20
41.787621
  0
VERTEX
  5
1bc
  8
Layer_27
  10
54.620972
  20
41.787621
  0
VERTEX
  5
1bd
  8
Layer_27
  10
54.620972
  20
42.612328
  0
VERTEX
  5
1be
  8
Layer_27
  10
50.301147
  20
44.404808
  0
VERTEX
  5
1bf
  8
Layer_27
  10
54.620972
  20
46.197289
  0
VERTEX
  5
1c0
  8
Layer_27
  10
54.620972
  20
47.022484
  0
VERTEX
  5
1c1
  8
Layer_27
  10
49.310913
  20
47.022484
  0
VERTEX
  5
1c2
  8
Layer_27
  10
49.310913
  20
46.482445
  0
SEQEND
  0
POLYLINE
  5
1c4
  8
Layer_27
  62
138
  70
1
  66
1
  10
0
  20
0
  30
0
  0
VERTEX
  5
1c4
  8
Layer_27
  10
54.620972
  20
39.80764
  0
VERTEX
  5
1c5
  8
Layer_27
  10
54.620972
  20
40.347191
  0
VERTEX
  5
1c6
  8
Layer_27
  10
49.310913
  20
40.347191
  0
VERTEX
  5
1c7
  8
Layer_27
  10
49.310913
  20
39.80764
  0
SEQEND
  0
POLYLINE
  5
1c9
  8
Layer_27
  62
138
  70
1
  66
1
  10
0
  20
0
  30
0
  0
VERTEX
  5
1c9
  8
Layer_27
  10
49.321167
  20
36.43264
  42
0.26678586
  0
VERTEX
  5
1ca
  8
Layer_27
  10
50.803589
  20
34.138206
  42
0.27573112
  0
VERTEX
  5
1cb
  8
Layer_27
  10
53.582397
  20
34.423851
  42
0.22788463
  0
VERTEX
  5
1cc
  8
Layer_27
  10
54.620972
  20
36.680687
  0
VERTEX
  5
1cd
  8
Layer_27
  10
54.620972
  20
38.442894
  0
VERTEX
  5
1ce
  8
Layer_27
  10
49.310913
  20
38.442894
  0
VERTEX
  5
1cf
  8
Layer_27
  10
49.310913
  20
36.680687
  0
SEQEND
  0
POLYLINE
  5
1d1
  8
Layer_27
  62
138
  70
1
  66
1
  10
0
  20
0
  30
0
  0
VERTEX
  5
1d1
  8
Layer_27
  10
54.620972
  20
32.271019
  0
VERTEX
  5
1d2
  8
Layer_27
  10
54.620972
  20
32.811058
  0
VERTEX
  5
1d3
  8
Layer_27
  10
49.310913
  20
32.811058
  0
VERTEX
  5
1d4
  8
Layer_27
  10
49.310913
  20
32.271019
  0
SEQEND
  0
POLYLINE
  5
1d6
  8
Layer_27
  62
138
  70
1
  66
1
  10
0
  20
0
  30
0
  0
VERTEX
  5
1d6
  8
Layer_27
  10
49.80603
  20
37.903343
  0
VERTEX
  5
1d7
  8
Layer_27
  10
54.125854
  20
37.903343
  42
-0.01912326
  0
VERTEX
  5
1d8
  8
Layer_27
  10
54.114624
  20
36.559593
  42
-0.26748198
  0
VERTEX
  5
1d9
  8
Layer_27
  10
52.952515
  20
34.698753
  42
-0.37333847
  0
VERTEX
  5
1da
  8
Layer_27
  10
50.203491
  20
35.390648
  42
-0.15221456
  0
VERTEX
  5
1db
  8
Layer_27
  10
49.80603
  20
36.85305
  0
SEQEND
  0
POLYLINE
  5
1dd
  8
Layer_27
  62
138
  70
1
  66
1
  10
0
  20
0
  30
0
  0
VERTEX
  5
1dd
  8
Layer_27
  10
37.916748
  20
41.503723
  42
0.21950138
  0
VERTEX
  5
1de
  8
Layer_27
  10
38.873291
  20
39.860657
  0
VERTEX
  5
1df
  8
Layer_27
  10
39.188232
  20
40.30304
  0
VERTEX
  5
1e0
  8
Layer_27
  10
38.975342
  20
40.45929
  42
-0.22640076
  0
VERTEX
  5
1e1
  8
Layer_27
  10
38.392822
  20
41.8255
  42
-0.37951455
  0
VERTEX
  5
1e2
  8
Layer_27
  10
40.240967
  20
43.97052
  42
-0.28085582
  0
VERTEX
  5
1e3
  8
Layer_27
  10
42.576416
  20
43.114563
  42
-0.35083954
  0
VERTEX
  5
1e4
  8
Layer_27
  10
42.540771
  20
40.685364
  42
-0.064915344
  0
VERTEX
  5
1e5
  8
Layer_27
  10
42.2854
  20
40.460266
  0
VERTEX
  5
1e6
  8
Layer_27
  10
42.637939
  20
39.988098
  42
0.23226352
  0
VERTEX
  5
1e7
  8
Layer_27
  10
43.478271
  20
41.8255
  42
0.39877174
  0
VERTEX
  5
1e8
  8
Layer_27
  10
40.985596
  20
44.579895
  42
0.28022551
  0
VERTEX
  5
1e9
  8
Layer_27
  10
38.358154
  20
43.39679
  42
0.17638952
  0
SEQEND
  0
POLYLINE
  5
1eb
  8
Layer_27
  62
138
  70
1
  66
1
  10
0
  20
0
  30
0
  0
VERTEX
  5
1eb
  8
Layer_27
  10
43.343018
  20
35.068665
  0
VERTEX
  5
1ec
  8
Layer_27
  10
43.343018
  20
35.653625
  0
VERTEX
  5
1ed
  8
Layer_27
  10
38.843018
  20
37.39386
  0
VERTEX
  5
1ee
  8
Layer_27
  10
38.843018
  20
37.408508
  0
VERTEX
  5
1ef
  8
Layer_27
  10
43.343018
  20
39.096008
  0
VERTEX
  5
1f0
  8
Layer_27
  10
43.343018
  20
39.696106
  0
VERTEX
  5
1f1
  8
Layer_27
  10
38.032959
  20
37.678528
  0
VERTEX
  5
1f2
  8
Layer_27
  10
38.032959
  20
37.138489
  0
SEQEND
  0
POLYLINE
  5
1f4
  8
Layer_27
  62
138
  70
1
  66
1
  10
0
  20
0
  30
0
  0
VERTEX
  5
1f4
  8
Layer_27
  10
43.343018
  20
32.48175
  0
VERTEX
  5
1f5
  8
Layer_27
  10
43.343018
  20
32.961731
  0
VERTEX
  5
1f6
  8
Layer_27
  10
42.233154
  20
34.311829
  0
VERTEX
  5
1f7
  8
Layer_27
  10
41.827881
  20
33.973938
  0
VERTEX
  5
1f8
  8
Layer_27
  10
42.668213
  20
33.02179
  0
VERTEX
  5
1f9
  8
Layer_27
  10
38.032959
  20
33.02179
  0
VERTEX
  5
1fa
  8
Layer_27
  10
38.032959
  20
32.48175
  0
SEQEND
  0
POLYLINE
  5
1fc
  8
Layer_27
  62
138
  70
1
  66
1
  10
0
  20
0
  30
0
  0
VERTEX
  5
1fc
  8
Layer_27
  10
27.303566
  20
41.845108
  42
0.21950026
  0
VERTEX
  5
1fd
  8
Layer_27
  10
28.260109
  20
40.202042
  0
VERTEX
  5
1fe
  8
Layer_27
  10
28.57505
  20
40.644424
  0
VERTEX
  5
1ff
  8
Layer_27
  10
28.36216
  20
40.800674
  42
-0.2263998
  0
VERTEX
  5
200
  8
Layer_27
  10
27.77964
  20
42.166885
  42
-0.37951506
  0
VERTEX
  5
201
  8
Layer_27
  10
29.627785
  20
44.311905
  42
-0.28085571
  0
VERTEX
  5
202
  8
Layer_27
  10
31.963234
  20
43.455948
  42
-0.35084167
  0
VERTEX
  5
203
  8
Layer_27
  10
31.927589
  20
41.026749
  42
-0.064923621
  0
VERTEX
  5
204
  8
Layer_27
  10
31.672218
  20
40.801651
  0
VERTEX
  5
205
  8
Layer_27
  10
32.024757
  20
40.329483
  42
0.23226689
  0
VERTEX
  5
206
  8
Layer_27
  10
32.865089
  20
42.166885
  42
0.39877132
  0
VERTEX
  5
207
  8
Layer_27
  10
30.372414
  20
44.92128
  42
0.28022516
  0
VERTEX
  5
208
  8
Layer_27
  10
27.744972
  20
43.738174
  42
0.17638817
  0
SEQEND
  0
POLYLINE
  5
20a
  8
Layer_27
  62
138
  70
1
  66
1
  10
0
  20
0
  30
0
  0
VERTEX
  5
20a
  8
Layer_27
  10
27.914894
  20
31.698135
  0
VERTEX
  5
20b
  8
Layer_27
  10
27.914894
  20
34.488174
  0
VERTEX
  5
20c
  8
Layer_27
  10
29.769386
  20
32.615616
  42
0.13471165
  0
VERTEX
  5
20d
  8
Layer_27
  10
31.008156
  20
31.795792
  42
0.27327354
  0
VERTEX
  5
20e
  8
Layer_27
  10
32.383156
  20
32.121964
  42
0.1970416
  0
VERTEX
  5
20f
  8
Layer_27
  10
32.819679
  20
33.348038
  42
0.27202816
  0
VERTEX
  5
210
  8
Layer_27
  10
32.08091
  20
34.745987
  42
0.085789516
  0
VERTEX
  5
211
  8
Layer_27
  10
31.552589
  20
34.937881
  0
VERTEX
  5
212
  8
Layer_27
  10
31.492531
  20
34.368057
  0
VERTEX
  5
213
  8
Layer_27
  10
31.673683
  20
34.313858
  42
-0.36333141
  0
VERTEX
  5
214
  8
Layer_27
  10
32.308937
  20
33.106339
  42
-0.2113214
  0
VERTEX
  5
215
  8
Layer_27
  10
31.943552
  20
32.459717
  42
-0.21132149
  0
VERTEX
  5
216
  8
Layer_27
  10
31.218605
  20
32.298233
  42
-0.1444907
  0
VERTEX
  5
217
  8
Layer_27
  10
30.194679
  20
32.957901
  0
VERTEX
  5
218
  8
Layer_27
  10
28.042336
  20
35.073135
  0
VERTEX
  5
219
  8
Layer_27
  10
27.419777
  20
35.073135
  0
VERTEX
  5
21a
  8
Layer_27
  10
27.419777
  20
31.698135
  0
SEQEND
  0
POLYLINE
  5
21c
  8
Layer_27
  62
138
  70
1
  66
1
  10
0
  20
0
  30
0
  0
VERTEX
  5
21c
  8
Layer_27
  10
32.729836
  20
35.410049
  0
VERTEX
  5
21d
  8
Layer_27
  10
32.729836
  20
35.99501
  0
VERTEX
  5
21e
  8
Layer_27
  10
28.229836
  20
37.735245
  0
VERTEX
  5
21f
  8
Layer_27
  10
28.229836
  20
37.749893
  0
VERTEX
  5
220
  8
Layer_27
  10
32.729836
  20
39.437393
  0
VERTEX
  5
221
  8
Layer_27
  10
32.729836
  20
40.037491
  0
VERTEX
  5
222
  8
Layer_27
  10
27.419777
  20
38.019913
  0
VERTEX
  5
223
  8
Layer_27
  10
27.419777
  20
37.479874
  0
SEQEND
  0
POLYLINE
  5
225
  8
Layer_27
  62
138
  70
1
  66
1
  10
0
  20
0
  30
0
  0
VERTEX
  5
225
  8
Layer_27
  10
78.545578
  20
20.170898
  42
0.20397509
  0
VERTEX
  5
226
  8
Layer_27
  10
79.219994
  20
18.912231
  42
0.20397537
  0
VERTEX
  5
227
  8
Layer_27
  10
80.595383
  20
18.52832
  42
0.20409546
  0
VERTEX
  5
228
  8
Layer_27
  10
81.855186
  20
19.190638
  42
0.20409672
  0
VERTEX
  5
229
  8
Layer_27
  10
82.248215
  20
20.558594
  42
0.39876588
  0
VERTEX
  5
22a
  8
Layer_27
  10
80.396652
  20
22.209473
  42
0.20487376
  0
VERTEX
  5
22b
  8
Layer_27
  10
79.071259
  20
21.685814
  42
0.20487454
  0
VERTEX
  5
22c
  8
Layer_27
  10
78.536789
  20
20.364746
  0
SEQEND
  0
POLYLINE
  5
22e
  8
Layer_27
  62
138
  70
1
  66
1
  10
0
  20
0
  30
0
  0
VERTEX
  5
22e
  8
Layer_27
  10
82.166672
  20
29.878418
  0
VERTEX
  5
22f
  8
Layer_27
  10
82.166672
  20
30.238281
  0
VERTEX
  5
230
  8
Layer_27
  10
78.626633
  20
30.238281
  0
VERTEX
  5
231
  8
Layer_27
  10
78.626633
  20
29.878418
  0
SEQEND
  0
POLYLINE
  5
233
  8
Layer_27
  62
138
  70
1
  66
1
  10
0
  20
0
  30
0
  0
VERTEX
  5
233
  8
Layer_27
  10
78.87468
  20
20.530273
  42
-0.39491906
  0
VERTEX
  5
234
  8
Layer_27
  10
80.396652
  20
21.819824
  42
-0.20550934
  0
VERTEX
  5
235
  8
Layer_27
  10
81.474884
  20
21.421564
  42
-0.20550829
  0
VERTEX
  5
236
  8
Layer_27
  10
81.926926
  20
20.364746
  42
-0.4050379
  0
VERTEX
  5
237
  8
Layer_27
  10
80.547531
  20
18.916016
  42
-0.35161043
  0
VERTEX
  5
238
  8
Layer_27
  10
78.93718
  20
19.894043
  42
-0.1014039
  0
SEQEND
  0
POLYLINE
  5
23a
  8
Layer_27
  62
138
  70
1
  66
1
  10
0
  20
0
  30
0
  0
VERTEX
  5
23a
  8
Layer_27
  10
78.571945
  20
14.22998
  42
0.088364772
  0
VERTEX
  5
23b
  8
Layer_27
  10
78.652023
  20
13.910156
  0
VERTEX
  5
23c
  8
Layer_27
  10
78.956711
  20
13.925293
  42
-0.29660757
  0
VERTEX
  5
23d
  8
Layer_27
  10
78.946945
  20
14.510254
  42
-0.19483603
  0
VERTEX
  5
23e
  8
Layer_27
  10
79.286789
  20
14.605469
  0
VERTEX
  5
23f
  8
Layer_27
  10
80.666672
  20
14.605469
  0
VERTEX
  5
240
  8
Layer_27
  10
80.666672
  20
13.930176
  0
VERTEX
  5
241
  8
Layer_27
  10
80.966965
  20
13.930176
  0
VERTEX
  5
242
  8
Layer_27
  10
80.966965
  20
14.605469
  0
VERTEX
  5
243
  8
Layer_27
  10
81.626633
  20
14.605469
  0
VERTEX
  5
244
  8
Layer_27
  10
81.626633
  20
14.935547
  0
VERTEX
  5
245
  8
Layer_27
  10
80.966965
  20
14.935547
  0
VERTEX
  5
246
  8
Layer_27
  10
80.966965
  20
15.430176
  0
VERTEX
  5
247
  8
Layer_27
  10
80.666672
  20
15.430176
  0
VERTEX
  5
248
  8
Layer_27
  10
80.666672
  20
14.935547
  0
VERTEX
  5
249
  8
Layer_27
  10
79.192062
  20
14.935547
  42
0.36838589
  0
VERTEX
  5
24a
  8
Layer_27
  10
78.591965
  20
14.552734
  42
0.083874884
  0
SEQEND
  0
POLYLINE
  5
24c
  8
Layer_27
  62
138
  70
1
  66
1
  10
0
  20
0
  30
0
  0
VERTEX
  5
24c
  8
Layer_27
  10
79.826828
  20
28.708984
  42
-0.30828054
  0
VERTEX
  5
24d
  8
Layer_27
  10
80.669113
  20
28.256836
  42
-0.3310787
  0
VERTEX
  5
24e
  8
Layer_27
  10
80.519211
  20
27.499023
  42
-0.14274067
  0
VERTEX
  5
24f
  8
Layer_27
  10
79.922043
  20
27.36377
  0
VERTEX
  5
250
  8
Layer_27
  10
78.626633
  20
27.36377
  0
VERTEX
  5
251
  8
Layer_27
  10
78.626633
  20
27.033691
  0
VERTEX
  5
252
  8
Layer_27
  10
80.111984
  20
27.033691
  42
0.18866861
  0
VERTEX
  5
253
  8
Layer_27
  10
80.78923
  20
27.249023
  42
0.35092913
  0
VERTEX
  5
254
  8
Layer_27
  10
80.840988
  20
28.46875
  42
0.066049544
  0
VERTEX
  5
255
  8
Layer_27
  10
80.591965
  20
28.708984
  0
VERTEX
  5
256
  8
Layer_27
  10
80.779465
  20
28.711426
  42
0.017478373
  0
VERTEX
  5
257
  8
Layer_27
  10
80.966965
  20
28.723633
  0
VERTEX
  5
258
  8
Layer_27
  10
80.966965
  20
29.063965
  0
VERTEX
  5
259
  8
Layer_27
  10
80.692062
  20
29.046387
  42
-0.015237675
  0
VERTEX
  5
25a
  8
Layer_27
  10
80.451828
  20
29.039063
  0
VERTEX
  5
25b
  8
Layer_27
  10
78.626633
  20
29.039063
  0
VERTEX
  5
25c
  8
Layer_27
  10
78.626633
  20
28.708984
  0
SEQEND
  0
POLYLINE
  5
25e
  8
Layer_27
  62
138
  70
1
  66
1
  10
0
  20
0
  30
0
  0
VERTEX
  5
25e
  8
Layer_27
  10
78.574875
  20
16.924316
  42
0.21049942
  0
VERTEX
  5
25f
  8
Layer_27
  10
79.001633
  20
16.245117
  0
VERTEX
  5
260
  8
Layer_27
  10
78.814133
  20
16.242676
  42
0.02004023
  0
VERTEX
  5
261
  8
Layer_27
  10
78.626633
  20
16.22998
  0
VERTEX
  5
262
  8
Layer_27
  10
78.626633
  20
15.890137
  0
VERTEX
  5
263
  8
Layer_27
  10
78.902023
  20
15.907715
  42
-0.011192744
  0
VERTEX
  5
264
  8
Layer_27
  10
79.141769
  20
15.915039
  0
VERTEX
  5
265
  8
Layer_27
  10
80.966965
  20
15.915039
  0
VERTEX
  5
266
  8
Layer_27
  10
80.966965
  20
16.245117
  0
VERTEX
  5
267
  8
Layer_27
  10
79.766769
  20
16.245117
  42
-0.30800004
  0
VERTEX
  5
268
  8
Layer_27
  10
78.924484
  20
16.696777
  42
-0.32814622
  0
VERTEX
  5
269
  8
Layer_27
  10
79.074387
  20
17.45752
  42
-0.15076281
  0
VERTEX
  5
26a
  8
Layer_27
  10
79.672043
  20
17.589844
  0
VERTEX
  5
26b
  8
Layer_27
  10
80.966965
  20
17.589844
  0
VERTEX
  5
26c
  8
Layer_27
  10
80.966965
  20
17.919922
  0
VERTEX
  5
26d
  8
Layer_27
  10
79.481613
  20
17.919922
  42
0.18834009
  0
VERTEX
  5
26e
  8
Layer_27
  10
78.804367
  20
17.705078
  42
0.22590327
  0
SEQEND
  0
ENDSEC
  0
EOF
