<svg xmlns="http://www.w3.org/2000/svg" width="138.60mm" height="60.50mm" viewBox="0 0 138.6049 60.5000">
<title>AMYboard 10HP Eurorack Front Panel</title>
<desc>Reconstructed from official shorepine/tulipcc panel DXF. Units: millimeters. All cut/drill geometry on layer "cutlines"; engraved text on layer "text".</desc>
<g id="panel-outline" data-role="outline">
<path d="M 133.6049 5.0000 L 5.0000 5.0000 L 5.0000 55.5000 L 133.6049 55.5000 L 133.6049 5.0000 Z" fill="none" stroke="#000000" stroke-width="0.1"/>
</g>
<g id="mounting-holes" data-role="drill" data-diameter-mm="3.0">
<circle cx="123.5565" cy="45.4690" r="1.5000" fill="none" stroke="#000000" stroke-width="0.1"/>
<circle cx="123.5565" cy="15.0310" r="1.5000" fill="none" stroke="#000000" stroke-width="0.1"/>
<circle cx="81.4695" cy="45.4690" r="1.5000" fill="none" stroke="#000000" stroke-width="0.1"/>
<circle cx="81.4695" cy="15.0310" r="1.5000" fill="none" stroke="#000000" stroke-width="0.1"/>
</g>
<g id="mounting-slots" data-role="cutout">
<path d="M 132.1772 45.7500 A 1.0000 1.0000 0 0 0 131.1772 44.7500 L 129.7772 44.7500 A 1.0000 1.0000 0 0 0 128.7772 45.7500 L 128.7772 48.7500 A 1.0000 1.0000 0 0 0 129.7772 49.7500 L 131.1772 49.7500 A 1.0000 1.0000 0 0 0 132.1772 48.7500 L 132.1772 45.7500 Z" fill="none" stroke="#000000" stroke-width="0.1"/>
<path d="M 132.1772 9.7500 A 1.0000 1.0000 0 0 0 131.1772 8.7500 L 129.7772 8.7500 A 1.0000 1.0000 0 0 0 128.7772 9.7500 L 128.7772 12.7500 A 1.0000 1.0000 0 0 0 129.7772 13.7500 L 131.1772 13.7500 A 1.0000 1.0000 0 0 0 132.1772 12.7500 L 132.1772 9.7500 Z" fill="none" stroke="#000000" stroke-width="0.1"/>
<path d="M 9.7132 45.7500 A 1.0000 1.0000 0 0 0 8.7132 44.7500 L 7.3132 44.7500 A 1.0000 1.0000 0 0 0 6.3132 45.7500 L 6.3132 48.7500 A 1.0000 1.0000 0 0 0 7.3132 49.7500 L 8.7132 49.7500 A 1.0000 1.0000 0 0 0 9.7132 48.7500 L 9.7132 45.7500 Z" fill="none" stroke="#000000" stroke-width="0.1"/>
<path d="M 9.7132 9.7500 A 1.0000 1.0000 0 0 0 8.7132 8.7500 L 7.3132 8.7500 A 1.0000 1.0000 0 0 0 6.3132 9.7500 L 6.3132 12.7500 A 1.0000 1.0000 0 0 0 7.3132 13.7500 L 8.7132 13.7500 A 1.0000 1.0000 0 0 0 9.7132 12.7500 L 9.7132 9.7500 Z" fill="none" stroke="#000000" stroke-width="0.1"/>
</g>
<g id="jack-holes" data-role="drill" data-diameter-mm="7.7">
<circle cx="25.8930" cy="48.9500" r="3.8500" fill="none" stroke="#000000" stroke-width="0.1"/>
<circle cx="36.9314" cy="48.9500" r="3.8500" fill="none" stroke="#000000" stroke-width="0.1"/>
<circle cx="58.9663" cy="48.9500" r="3.8500" fill="none" stroke="#000000" stroke-width="0.1"/>
<circle cx="47.9279" cy="48.9500" r="3.8500" fill="none" stroke="#000000" stroke-width="0.1"/>
<circle cx="69.8131" cy="48.9500" r="3.8500" fill="none" stroke="#000000" stroke-width="0.1"/>
<circle cx="69.8131" cy="39.1201" r="3.8500" fill="none" stroke="#000000" stroke-width="0.1"/>
<circle cx="58.9663" cy="39.1201" r="3.8500" fill="none" stroke="#000000" stroke-width="0.1"/>
<circle cx="47.9279" cy="39.1201" r="3.8500" fill="none" stroke="#000000" stroke-width="0.1"/>
<circle cx="36.9314" cy="39.1201" r="3.8500" fill="none" stroke="#000000" stroke-width="0.1"/>
<circle cx="25.8930" cy="39.1201" r="3.8500" fill="none" stroke="#000000" stroke-width="0.1"/>
</g>
<g id="other-holes" data-role="drill">
<circle cx="59.0132" cy="21.2500" r="3.5000" fill="none" stroke="#000000" stroke-width="0.1"/>
</g>
<g id="screen-cutout" data-role="cutout">
<path d="M 121.0975 14.0956 L 88.6232 14.0956 L 88.6232 46.5223 L 121.0975 46.5223 L 121.0975 14.0956 Z" fill="none" stroke="#000000" stroke-width="0.1"/>
</g>
<g id="text-labels" data-role="engrave">
<path d="M 50.1033 19.8418 L 50.1033 19.8569 L 45.5129 21.7768 L 45.5129 22.0620 L 50.1033 23.9819 L 50.1033 23.9970 L 45.5129 23.9970 L 45.5129 24.5366 L 50.8230 24.5366 L 50.8230 23.7119 L 46.5032 21.9194 L 50.8230 20.1269 L 50.8230 19.3017 L 45.5129 19.3017 L 45.5129 19.8418 L 50.1033 19.8418 Z" fill="none" stroke="#000000" stroke-width="0.08"/>
<path d="M 23.5056 24.4791 A 2.2697 2.2697 0 0 0 24.4621 26.1222 L 24.7771 25.6798 L 24.5642 25.5235 A 1.7241 1.7241 0 0 1 23.9817 24.1573 A 2.1338 2.1338 0 0 1 25.8298 22.0123 A 2.3887 2.3887 0 0 1 28.1653 22.8683 A 1.9443 1.9443 0 0 1 28.1296 25.2975 A 1.3164 1.3164 0 0 1 27.8743 25.5226 L 28.2268 25.9947 A 2.2920 2.2920 0 0 0 29.0671 24.1573 A 2.6993 2.6993 0 0 0 26.5744 21.4029 A 2.7726 2.7726 0 0 0 23.9470 22.5860 A 2.8408 2.8408 0 0 0 23.5056 24.4791 Z" fill="none" stroke="#000000" stroke-width="0.08"/>
<path d="M 34.1188 24.8205 A 2.2697 2.2697 0 0 0 35.0753 26.4636 L 35.3903 26.0212 L 35.1774 25.8649 A 1.7241 1.7241 0 0 1 34.5949 24.4987 A 2.1338 2.1338 0 0 1 36.4430 22.3537 A 2.3887 2.3887 0 0 1 38.7784 23.2097 A 1.9443 1.9443 0 0 1 38.7428 25.6389 A 1.3165 1.3165 0 0 1 38.4874 25.8640 L 38.8400 26.3361 A 2.2921 2.2921 0 0 0 39.6803 24.4987 A 2.6993 2.6993 0 0 0 37.1876 21.7443 A 2.7726 2.7726 0 0 0 34.5602 22.9274 A 2.8408 2.8408 0 0 0 34.1188 24.8205 Z" fill="none" stroke="#000000" stroke-width="0.08"/>
<path d="M 28.9319 30.9142 L 28.9319 30.3292 L 24.4319 28.5890 L 24.4319 28.5743 L 28.9319 26.8868 L 28.9319 26.2867 L 23.6218 28.3043 L 23.6218 28.8443 L 28.9319 30.9142 Z" fill="none" stroke="#000000" stroke-width="0.08"/>
<path d="M 39.5451 31.2556 L 39.5451 30.6706 L 35.0451 28.9304 L 35.0451 28.9157 L 39.5451 27.2282 L 39.5451 26.6281 L 34.2350 28.6457 L 34.2350 29.1857 L 39.5451 31.2556 Z" fill="none" stroke="#000000" stroke-width="0.08"/>
<path d="M 45.5232 29.8916 A 2.7420 2.7420 0 0 0 47.0056 32.1860 A 2.7253 2.7253 0 0 0 49.7844 31.9004 A 2.8670 2.8670 0 0 0 50.8230 29.6435 L 50.8230 27.8813 L 45.5129 27.8813 L 45.5129 29.6435 L 45.5232 29.8916 Z" fill="none" stroke="#000000" stroke-width="0.08"/>
<path d="M 67.5828 16.2968 A 1.7096 1.7096 0 0 0 68.2484 17.4994 L 67.6634 17.4994 L 67.6634 17.9945 L 73.3333 17.9945 L 73.3333 17.4994 L 70.5887 17.4994 L 70.5887 17.4848 L 70.7552 17.3534 A 1.8594 1.8594 0 0 0 70.8553 14.9066 A 1.9081 1.9081 0 0 0 68.2278 14.6600 A 1.8606 1.8606 0 0 0 67.5828 16.2968 Z" fill="none" stroke="#000000" stroke-width="0.08"/>
<path d="M 55.8748 32.5763 A 1.6235 1.6235 0 0 0 56.7766 34.0002 A 2.2396 2.2396 0 0 0 57.6936 34.1764 L 61.1736 34.1764 L 61.1736 33.6813 L 60.5886 33.6813 L 60.5886 33.6667 L 60.7732 33.5109 A 1.7663 1.7663 0 0 0 60.8552 31.1540 A 1.8500 1.8500 0 0 0 58.2937 30.9391 A 1.8265 1.8265 0 0 0 58.0159 33.4001 A 1.5474 1.5474 0 0 0 58.3235 33.6667 L 58.3235 33.6813 L 57.6936 33.6813 A 1.4754 1.4754 0 0 1 56.8162 33.4528 A 1.2965 1.2965 0 0 1 56.3133 32.3166 A 1.6513 1.6513 0 0 1 56.9583 30.9738 L 56.5686 30.6066 A 2.1780 2.1780 0 0 0 55.8635 32.2941 L 55.8748 32.5763 Z" fill="none" stroke="#000000" stroke-width="0.08"/>
<path d="M 65.8748 22.7465 A 1.6235 1.6235 0 0 0 66.7767 24.1703 A 2.2397 2.2397 0 0 0 67.6937 24.3466 L 71.1736 24.3466 L 71.1736 23.8515 L 70.5887 23.8515 L 70.5887 23.8368 L 70.7733 23.6810 A 1.7663 1.7663 0 0 0 70.8553 21.3241 A 1.8500 1.8500 0 0 0 68.2938 21.1093 A 1.8265 1.8265 0 0 0 68.0159 23.5702 A 1.5477 1.5477 0 0 0 68.3235 23.8368 L 68.3235 23.8515 L 67.6937 23.8515 A 1.4755 1.4755 0 0 1 66.8162 23.6229 A 1.2965 1.2965 0 0 1 66.3133 22.4867 A 1.6513 1.6513 0 0 1 66.9583 21.1439 L 66.5687 20.7767 A 2.1781 2.1781 0 0 0 65.8636 22.4642 L 65.8748 22.7465 Z" fill="none" stroke="#000000" stroke-width="0.08"/>
<path d="M 24.1169 34.6261 L 24.1169 31.8360 L 25.9714 33.7086 A 2.8068 2.8068 0 0 0 27.2102 34.5284 A 1.3893 1.3893 0 0 0 28.5852 34.2023 A 1.7154 1.7154 0 0 0 29.0217 32.9762 A 1.5606 1.5606 0 0 0 28.2829 31.5782 A 1.6501 1.6501 0 0 0 27.7546 31.3863 L 27.6946 31.9562 L 27.8757 32.0104 A 1.0628 1.0628 0 0 1 28.5110 33.2179 A 0.9179 0.9179 0 0 1 28.1456 33.8645 A 0.9179 0.9179 0 0 1 27.4206 34.0260 A 2.1514 2.1514 0 0 1 26.3967 33.3663 L 24.2444 31.2511 L 23.6218 31.2511 L 23.6218 34.6261 L 24.1169 34.6261 Z" fill="none" stroke="#000000" stroke-width="0.08"/>
<path d="M 46.0081 28.4209 L 50.3279 28.4209 A 17.5740 17.5740 0 0 1 50.3167 29.7646 A 2.1972 2.1972 0 0 1 49.1545 31.6255 A 2.1628 2.1628 0 0 1 46.4055 30.9336 A 2.5467 2.5467 0 0 1 46.0081 29.4712 L 46.0081 28.4209 Z" fill="none" stroke="#000000" stroke-width="0.08"/>
<path d="M 74.7476 46.1533 A 1.8230 1.8230 0 0 0 75.4220 47.4120 A 1.8230 1.8230 0 0 0 76.7974 47.7959 A 1.8160 1.8160 0 0 0 78.0572 47.1336 A 1.8160 1.8160 0 0 0 78.4502 45.7656 A 1.8025 1.8025 0 0 0 76.5987 44.1147 A 1.8120 1.8120 0 0 0 75.2733 44.6384 A 1.8120 1.8120 0 0 0 74.7388 45.9595 L 74.7476 46.1533 Z" fill="none" stroke="#000000" stroke-width="0.08"/>
<path d="M 57.5823 28.1384 A 1.8237 1.8237 0 0 0 58.3186 29.4614 A 1.8237 1.8237 0 0 0 59.8010 29.7697 A 1.8163 1.8163 0 0 0 61.2547 27.7380 A 1.8106 1.8106 0 0 0 60.5938 26.4756 A 1.8106 1.8106 0 0 0 59.2234 26.0851 A 1.7952 1.7952 0 0 0 57.5735 27.9367 L 57.5823 28.1384 Z" fill="none" stroke="#000000" stroke-width="0.08"/>
<path d="M 59.4636 16.8903 A 1.3436 1.3436 0 0 1 60.5427 17.2888 A 1.0629 1.0629 0 0 1 60.6385 18.5827 A 1.1089 1.1089 0 0 1 59.8811 18.8952 L 59.6057 18.9079 L 57.6634 18.9079 L 57.6634 19.4030 L 59.8909 19.4030 A 1.4642 1.4642 0 0 0 60.9070 19.0803 A 1.3771 1.3771 0 0 0 61.2512 17.9094 A 1.4911 1.4911 0 0 0 60.6111 16.8903 L 60.8924 16.8864 A 3.4719 3.4719 0 0 0 61.1736 16.8679 L 61.1736 16.3581 L 60.9729 16.3718 A 8.3505 8.3505 0 0 1 60.4011 16.3952 L 57.6634 16.3952 L 57.6634 16.8903 L 59.4636 16.8903 Z" fill="none" stroke="#000000" stroke-width="0.08"/>
<path d="M 57.5833 21.7980 A 1.2685 1.2685 0 0 0 58.2337 22.8298 L 58.2337 22.8449 L 58.0891 22.8478 A 3.1421 3.1421 0 0 0 57.6634 22.8898 L 57.6634 23.3698 L 57.8255 23.3483 A 5.6066 5.6066 0 0 1 58.4509 23.3097 L 60.0183 23.3097 A 1.1573 1.1573 0 0 0 61.2449 22.2775 A 2.2126 2.2126 0 0 0 60.8728 20.6740 L 60.7537 20.5422 L 60.4011 20.8425 L 60.5813 21.0807 A 1.5378 1.5378 0 0 1 60.7566 22.3088 A 0.7282 0.7282 0 0 1 60.1184 22.8010 A 2.2741 2.2741 0 0 1 59.8162 22.8151 L 59.8162 22.5676 A 3.9558 3.9558 0 0 0 59.6360 21.1613 A 1.1357 1.1357 0 0 0 58.9827 20.4401 A 1.0215 1.0215 0 0 0 57.8323 20.7560 A 1.4817 1.4817 0 0 0 57.5833 21.7980 Z" fill="none" stroke="#000000" stroke-width="0.08"/>
<path d="M 57.5833 13.7365 A 1.2686 1.2686 0 0 0 58.2337 14.7687 L 58.2337 14.7834 L 58.0891 14.7863 A 2.9997 2.9997 0 0 0 57.6634 14.8288 L 57.6634 15.3088 L 57.8255 15.2868 A 5.3975 5.3975 0 0 1 58.4509 15.2487 L 60.0183 15.2487 A 1.1582 1.1582 0 0 0 61.2449 14.2165 A 2.2135 2.2135 0 0 0 60.8728 12.6125 L 60.7537 12.4811 L 60.4011 12.7809 L 60.5813 13.0197 A 1.5366 1.5366 0 0 1 60.7566 14.2472 A 0.7264 0.7264 0 0 1 60.1184 14.7394 A 2.2753 2.2753 0 0 1 59.8162 14.7536 L 59.8162 14.5060 A 3.9574 3.9574 0 0 0 59.6360 13.0998 A 1.1333 1.1333 0 0 0 58.9827 12.3791 A 1.0198 1.0198 0 0 0 57.8323 12.6950 A 1.4807 1.4807 0 0 0 57.5833 13.7365 Z" fill="none" stroke="#000000" stroke-width="0.08"/>
<path d="M 67.5833 30.9784 A 1.2685 1.2685 0 0 0 68.2337 32.0101 L 68.2337 32.0253 L 68.0892 32.0282 A 3.1415 3.1415 0 0 0 67.6634 32.0702 L 67.6634 32.5502 L 67.8255 32.5287 A 5.5486 5.5486 0 0 1 68.4510 32.4901 L 70.0184 32.4901 A 1.1574 1.1574 0 0 0 71.2449 31.4579 A 2.2111 2.2111 0 0 0 70.8729 29.8544 L 70.7537 29.7225 L 70.4012 30.0228 L 70.5814 30.2611 A 1.5378 1.5378 0 0 1 70.7567 31.4892 A 0.7284 0.7284 0 0 1 70.1185 31.9813 A 2.3547 2.3547 0 0 1 69.8162 31.9950 L 69.8162 31.7475 A 3.9613 3.9613 0 0 0 69.6360 30.3412 A 1.1365 1.1365 0 0 0 68.9827 29.6205 A 1.0214 1.0214 0 0 0 67.8323 29.9364 A 1.4817 1.4817 0 0 0 67.5833 30.9784 Z" fill="none" stroke="#000000" stroke-width="0.08"/>
<path d="M 67.5814 28.6215 A 1.4230 1.4230 0 0 0 67.7010 29.1010 L 68.1585 29.0785 A 0.8978 0.8978 0 0 1 68.0862 28.2753 A 0.4758 0.4758 0 0 1 68.4764 28.0678 L 68.6536 28.0585 L 70.7234 28.0585 L 70.7234 29.0712 L 71.1736 29.0712 L 71.1736 28.0585 L 72.1634 28.0585 L 72.1634 27.5634 L 71.1736 27.5634 L 71.1736 26.8212 L 70.7234 26.8212 L 70.7234 27.5634 L 68.5110 27.5634 A 0.8792 0.8792 0 0 0 67.6653 27.9901 A 1.2124 1.2124 0 0 0 67.5814 28.6215 Z" fill="none" stroke="#000000" stroke-width="0.08"/>
<path d="M 39.5451 33.8425 L 39.5451 33.3625 L 38.4352 32.0124 L 38.0299 32.3503 L 38.8702 33.3024 L 34.2350 33.3024 L 34.2350 33.8425 L 39.5451 33.8425 Z" fill="none" stroke="#000000" stroke-width="0.08"/>
<path d="M 75.0767 45.7939 A 1.4598 1.4598 0 0 1 76.5987 44.5044 A 1.4573 1.4573 0 0 1 77.6769 44.9027 A 1.4573 1.4573 0 0 1 78.1290 45.9595 A 1.4372 1.4372 0 0 1 76.7496 47.4082 A 1.5052 1.5052 0 0 1 75.1392 46.4302 A 1.5923 1.5923 0 0 1 75.0767 45.7939 Z" fill="none" stroke="#000000" stroke-width="0.08"/>
<path d="M 68.0301 15.9696 A 1.3189 1.3189 0 0 1 69.4183 14.7919 A 1.3196 1.3196 0 0 1 70.4047 15.1521 A 1.3195 1.3195 0 0 1 70.8133 16.1195 A 1.3703 1.3703 0 0 1 69.5623 17.5155 A 1.3741 1.3741 0 0 1 68.0506 16.4091 A 1.5728 1.5728 0 0 1 68.0301 15.9696 Z" fill="none" stroke="#000000" stroke-width="0.08"/>
<path d="M 58.0301 27.7868 A 1.3148 1.3148 0 0 1 59.4182 26.6169 A 1.3220 1.3220 0 0 1 60.7864 27.6452 A 1.3013 1.3013 0 0 1 59.8362 29.2116 A 1.4672 1.4672 0 0 1 58.2605 28.7140 A 1.3508 1.3508 0 0 1 58.0301 27.7868 Z" fill="none" stroke="#000000" stroke-width="0.08"/>
<path d="M 68.1204 22.4027 A 1.3440 1.3440 0 0 1 69.0509 21.2887 A 1.3526 1.3526 0 0 1 70.4549 21.6643 A 1.3440 1.3440 0 0 1 70.7049 23.0941 A 1.3376 1.3376 0 0 1 69.3133 23.8637 A 1.3008 1.3008 0 0 1 68.4034 23.3891 A 1.3008 1.3008 0 0 1 68.1204 22.4027 Z" fill="none" stroke="#000000" stroke-width="0.08"/>
<path d="M 58.1204 32.2326 A 1.3440 1.3440 0 0 1 59.0509 31.1186 A 1.3526 1.3526 0 0 1 60.4549 31.4942 A 1.3440 1.3440 0 0 1 60.7049 32.9240 A 1.3376 1.3376 0 0 1 59.3133 33.6935 A 1.3008 1.3008 0 0 1 58.4034 33.2190 A 1.3008 1.3008 0 0 1 58.1204 32.2326 Z" fill="none" stroke="#000000" stroke-width="0.08"/>
<path d="M 74.7769 49.3999 A 0.9949 0.9949 0 0 0 75.2037 50.0791 L 75.0162 50.0815 A 2.3453 2.3453 0 0 0 74.8287 50.0942 L 74.8287 50.4341 L 75.1041 50.4165 A 5.3581 5.3581 0 0 1 75.3438 50.4092 L 77.1690 50.4092 L 77.1690 50.0791 L 75.9688 50.0791 A 0.8494 0.8494 0 0 1 75.1265 49.6274 A 0.6543 0.6543 0 0 1 75.2764 48.8667 A 1.0381 1.0381 0 0 1 75.8741 48.7344 L 77.1690 48.7344 L 77.1690 48.4043 L 75.6836 48.4043 A 0.9766 0.9766 0 0 0 75.0064 48.6191 A 0.9466 0.9466 0 0 0 74.7769 49.3999 Z" fill="none" stroke="#000000" stroke-width="0.08"/>
<path d="M 76.0289 37.6152 A 0.8489 0.8489 0 0 1 76.8711 38.0674 A 0.6473 0.6473 0 0 1 76.7212 38.8252 A 1.0942 1.0942 0 0 1 76.1241 38.9604 L 74.8287 38.9604 L 74.8287 39.2905 L 76.3140 39.2905 A 0.9752 0.9752 0 0 0 76.9913 39.0752 A 0.9768 0.9768 0 0 0 77.0430 37.8555 A 1.3154 1.3154 0 0 0 76.7940 37.6152 L 76.9815 37.6128 A 2.6884 2.6884 0 0 0 77.1690 37.6006 L 77.1690 37.2603 L 76.8941 37.2778 A 3.9442 3.9442 0 0 1 76.6539 37.2852 L 74.8287 37.2852 L 74.8287 37.6152 L 76.0289 37.6152 Z" fill="none" stroke="#000000" stroke-width="0.08"/>
<path d="M 74.7740 52.0942 A 0.9401 0.9401 0 0 0 74.8541 52.4141 L 75.1587 52.3989 A 0.5365 0.5365 0 0 1 75.1490 51.8140 A 0.4700 0.4700 0 0 1 75.4888 51.7188 L 76.8687 51.7188 L 76.8687 52.3940 L 77.1690 52.3940 L 77.1690 51.7188 L 77.8287 51.7188 L 77.8287 51.3887 L 77.1690 51.3887 L 77.1690 50.8940 L 76.8687 50.8940 L 76.8687 51.3887 L 75.3941 51.3887 A 0.5486 0.5486 0 0 0 74.7940 51.7715 A 0.9706 0.9706 0 0 0 74.7740 52.0942 Z" fill="none" stroke="#000000" stroke-width="0.08"/>
<path d="M 50.8230 34.0532 L 50.8230 33.5132 L 45.5129 33.5132 L 45.5129 34.0532 L 50.8230 34.0532 Z" fill="none" stroke="#000000" stroke-width="0.08"/>
<path d="M 50.8230 26.5166 L 50.8230 25.9770 L 45.5129 25.9770 L 45.5129 26.5166 L 50.8230 26.5166 Z" fill="none" stroke="#000000" stroke-width="0.08"/>
<path d="M 63.3333 25.0641 L 63.3333 24.5690 L 57.6634 24.5690 L 57.6634 25.0641 L 63.3333 25.0641 Z" fill="none" stroke="#000000" stroke-width="0.08"/>
<path d="M 73.3333 34.2445 L 73.3333 33.7494 L 67.6634 33.7494 L 67.6634 34.2445 L 73.3333 34.2445 Z" fill="none" stroke="#000000" stroke-width="0.08"/>
<path d="M 68.0320 30.7811 A 1.0541 1.0541 0 0 1 68.1024 30.4940 A 0.5969 0.5969 0 0 1 68.7928 30.1166 A 0.6893 0.6893 0 0 1 69.2615 30.6068 A 4.1551 4.1551 0 0 1 69.4109 31.9950 L 69.1561 31.9950 A 1.0886 1.0886 0 0 1 68.2195 31.5819 A 1.1242 1.1242 0 0 1 68.0320 30.7811 Z" fill="none" stroke="#000000" stroke-width="0.08"/>
<path d="M 58.0320 13.5397 A 0.6964 0.6964 0 0 1 58.5081 12.8815 A 0.5841 0.5841 0 0 1 59.2112 13.2497 A 2.9326 2.9326 0 0 1 59.4109 14.4987 L 59.4109 14.7536 A 1.6676 1.6676 0 0 1 58.5242 14.6081 A 1.0426 1.0426 0 0 1 58.0320 13.5397 Z" fill="none" stroke="#000000" stroke-width="0.08"/>
<path d="M 58.0320 21.6008 A 0.8288 0.8288 0 0 1 58.2595 21.0798 A 0.5964 0.5964 0 0 1 58.9988 21.0280 A 1.2472 1.2472 0 0 1 59.3601 21.8156 A 6.5537 6.5537 0 0 1 59.4109 22.8151 L 59.1560 22.8151 A 1.0906 1.0906 0 0 1 58.2195 22.4015 A 1.1242 1.1242 0 0 1 58.0320 21.6008 Z" fill="none" stroke="#000000" stroke-width="0.08"/>
<path d="M 71.1736 19.6815 L 71.1736 19.1864 L 67.6634 19.1864 L 67.6634 19.6815 L 71.1736 19.6815 Z" fill="none" stroke="#000000" stroke-width="0.08"/>
<path d="M 71.1736 26.0634 L 71.1736 25.5687 L 67.6634 25.5687 L 67.6634 26.0634 L 71.1736 26.0634 Z" fill="none" stroke="#000000" stroke-width="0.08"/>
<path d="M 78.3687 36.4458 L 78.3687 36.0859 L 74.8287 36.0859 L 74.8287 36.4458 L 78.3687 36.4458 Z" fill="none" stroke="#000000" stroke-width="0.08"/>
<path d="M 72.1697 19.5004 A 0.3610 0.3610 0 0 0 72.3864 19.7675 A 0.3610 0.3610 0 0 0 72.7283 19.7308 A 0.3580 0.3580 0 0 0 72.8265 19.2440 A 0.3555 0.3555 0 0 0 72.3802 19.1024 A 0.3670 0.3670 0 0 0 72.1697 19.5004 Z" fill="none" stroke="#000000" stroke-width="0.08"/>
<path d="M 72.1697 25.8822 A 0.3579 0.3579 0 0 0 72.4556 26.1700 A 0.3579 0.3579 0 0 0 72.8265 26.0058 A 0.3575 0.3575 0 0 0 72.7283 25.5194 A 0.3528 0.3528 0 0 0 72.2650 25.5687 A 0.3540 0.3540 0 0 0 72.1697 25.8822 Z" fill="none" stroke="#000000" stroke-width="0.08"/>
</g>
</svg>