<svg xmlns="http://www.w3.org/2000/svg" class="bi bi-layers-half" fill="currentColor"  width="32" height="32" viewBox="0 0 400 400"><path d="M171.021 71.259 C 157.866 90.071,146.738 105.463,146.293 105.463 C 145.847 105.463,126.751 93.227,103.858 78.273 C 80.964 63.318,61.739 50.889,61.136 50.652 C 59.854 50.150,59.276 52.580,51.387 91.686 C 24.829 223.327,30.251 281.281,73.121 323.990 C 97.803 348.579,120.434 359.278,153.431 361.958 C 160.062 362.496,167.908 363.552,170.867 364.304 C 187.218 368.462,198.854 368.493,220.183 364.438 C 227.104 363.122,237.792 361.626,243.936 361.113 C 298.061 356.593,347.956 306.763,355.314 249.881 C 357.461 233.283,356.350 191.921,352.940 161.520 C 349.125 127.511,334.243 49.406,331.577 49.406 C 331.134 49.406,311.630 61.852,288.234 77.063 C 264.839 92.274,245.249 104.875,244.701 105.063 C 244.154 105.252,238.511 97.617,232.163 88.095 C 219.425 68.991,196.559 37.110,195.570 37.076 C 195.223 37.064,184.177 52.447,171.021 71.259 M206.832 99.287 C 276.601 211.388,287.281 247.175,264.347 292.012 C 230.091 358.983,152.523 354.873,123.860 284.568 C 106.235 241.337,120.505 198.031,184.701 99.937 C 191.870 88.983,195.303 84.523,196.404 84.735 C 197.261 84.901,201.953 91.449,206.832 99.287 M106.016 112.283 C 120.866 122.304,133.017 130.794,133.017 131.149 C 133.017 131.504,129.744 137.735,125.745 144.995 C 85.615 217.841,80.556 256.523,104.723 305.738 C 111.307 319.147,111.246 320.050,104.122 314.554 C 73.511 290.938,61.399 260.766,63.121 212.423 C 64.429 175.699,74.990 94.062,78.433 94.062 C 78.753 94.062,91.166 102.261,106.016 112.283 M318.105 118.527 C 337.681 237.194,330.801 281.014,287.327 314.554 C 280.545 319.786,280.460 319.402,286.014 308.631 C 295.740 289.768,300.099 272.809,300.881 250.790 C 301.888 222.429,298.179 210.463,272.544 159.373 C 263.671 141.687,258.599 130.570,259.151 130.017 C 260.909 128.259,312.136 94.159,313.092 94.111 C 313.640 94.083,315.844 104.817,318.105 118.527 " stroke="none" fill="#000000" fill-rule="evenodd"></path></svg>
