G04 #@! TF.GenerationSoftware,KiCad,Pcbnew,7.0.6*
G04 #@! TF.CreationDate,2023-09-13T17:44:04-07:00*
G04 #@! TF.ProjectId,tulipcc,74756c69-7063-4632-9e6b-696361645f70,rev?*
G04 #@! TF.SameCoordinates,Original*
G04 #@! TF.FileFunction,Profile,NP*
%FSLAX46Y46*%
G04 Gerber Fmt 4.6, Leading zero omitted, Abs format (unit mm)*
G04 Created by KiCad (PCBNEW 7.0.6) date 2023-09-13 17:44:04*
%MOMM*%
%LPD*%
G01*
G04 APERTURE LIST*
G04 #@! TA.AperFunction,Profile*
%ADD10C,0.100000*%
G04 #@! TD*
G04 APERTURE END LIST*
D10*
X65000000Y17100000D02*
G75*
G03*
X63000000Y19100000I-2000000J0D01*
G01*
X75000000Y0D02*
G75*
G03*
X77000000Y2000000I0J2000000D01*
G01*
X63000000Y19100000D02*
G75*
G03*
X61000000Y17100000I0J-2000000D01*
G01*
X79000000Y9000000D02*
G75*
G03*
X77000000Y7000000I0J-2000000D01*
G01*
X59000000Y0D02*
G75*
G03*
X61000000Y2000000I0J2000000D01*
G01*
X67000000Y0D02*
X75000000Y0D01*
X134000000Y3500000D02*
X134000000Y84500000D01*
X0Y84500000D02*
X0Y3500000D01*
X79000000Y9000000D02*
X103000000Y9000000D01*
X130500000Y0D02*
G75*
G03*
X134000000Y3500000I0J3500000D01*
G01*
X105000000Y2000000D02*
G75*
G03*
X107000000Y0I2000000J0D01*
G01*
X107000000Y0D02*
X130500000Y0D01*
X134000000Y84500000D02*
G75*
G03*
X130500000Y88000000I-3500000J0D01*
G01*
X68000000Y83000000D02*
X68000000Y86000000D01*
X3500000Y88000000D02*
G75*
G03*
X0Y84500000I0J-3500000D01*
G01*
X65000000Y2000000D02*
G75*
G03*
X67000000Y0I2000000J0D01*
G01*
X3500000Y0D02*
X59000000Y0D01*
X65000000Y2000000D02*
X65000000Y17100000D01*
X105999999Y88000034D02*
G75*
G03*
X104000143Y85990071I29501J-2029234D01*
G01*
X61000000Y2000000D02*
X61000000Y17100000D01*
X106000000Y87999999D02*
X130500000Y88000000D01*
X68000000Y83000000D02*
G75*
G03*
X70000000Y81000000I2000000J0D01*
G01*
X0Y3500000D02*
G75*
G03*
X3500000Y0I3500000J0D01*
G01*
X102000000Y81000000D02*
G75*
G03*
X104000050Y83014214I-14200J2014200D01*
G01*
X68000000Y86000000D02*
G75*
G03*
X66000000Y88000000I-2000000J0D01*
G01*
X105000000Y7000000D02*
G75*
G03*
X103000000Y9000000I-2000000J0D01*
G01*
X77000000Y2000000D02*
X77000000Y7000000D01*
X104000050Y83014214D02*
X104000000Y86000000D01*
X105000000Y2000000D02*
X105000000Y7000000D01*
X3500000Y88000000D02*
X66000000Y88000000D01*
X70000000Y81000000D02*
X102000000Y81000000D01*
M02*
