M48
; DRILL file {KiCad 7.0.6} date Wed Sep 13 17:44:44 2023
; FORMAT={-:-/ absolute / metric / decimal}
; #@! TF.CreationDate,2023-09-13T17:44:44-07:00
; #@! TF.GenerationSoftware,Kicad,Pcbnew,7.0.6
; #@! TF.FileFunction,Plated,1,2,PTH
FMAT,2
METRIC
; #@! TA.AperFunction,Plated,PTH,ViaDrill
T1C0.300
; #@! TA.AperFunction,Plated,PTH,ComponentDrill
T2C0.600
; #@! TA.AperFunction,Plated,PTH,ComponentDrill
T3C1.000
; #@! TA.AperFunction,Plated,PTH,ViaDrill
T4C3.200
%
G90
G05
T1
X3.7Y18.3
X6.064Y29.6
X6.8Y67.6
X7.1Y36.7
X7.3Y34.7
X7.7Y19.3
X7.7Y16.3
X7.764Y27.2
X8.2Y42.5
X8.2Y40.5
X8.2Y38.4
X8.2Y5.9
X9.064Y24.0
X10.05Y44.4
X11.0Y38.4
X11.7Y84.5
X11.7Y12.5
X12.0Y42.5
X12.0Y40.5
X12.1Y26.6
X12.4Y33.5
X13.0Y20.1
X13.9Y35.9
X14.35Y63.35
X14.9Y24.0
X15.5Y46.1
X15.9Y16.587
X16.4Y50.8
X16.6Y29.9
X16.6Y24.8
X16.6Y18.0
X16.9Y12.5
X18.0Y4.2
X18.1Y46.1
X18.1Y35.9
X18.2Y33.5
X18.5Y61.8
X19.6Y31.7
X20.3Y60.1
X20.6Y24.8
X20.8Y46.1
X21.65Y84.45
X21.7Y21.5
X21.7Y17.3
X22.3Y10.9
X22.3Y6.7
X23.2Y42.7
X23.2Y40.6
X23.5Y22.1
X23.6Y35.8
X23.7Y27.2
X24.0Y1.4
X24.25Y25.55
X25.3Y33.5
X25.3Y30.2
X25.4Y17.3
X25.8Y43.3
X26.3Y81.4
X26.6Y24.5
X26.9Y55.1
X26.9Y52.5
X27.0Y5.6
X27.1Y73.2
X27.2Y44.3
X27.2Y42.2
X27.2Y40.737
X27.2Y37.8
X27.7Y10.9
X27.85Y25.7
X27.9Y16.0
X28.9Y4.2
X29.0Y77.5
X29.0Y75.0
X29.3Y17.7
X29.4Y60.1
X29.8Y32.737
X29.8Y30.2
X30.0Y71.6
X30.0Y69.0
X30.0Y64.7
X30.3Y1.4
X30.5Y10.0
X30.7Y23.2
X30.9Y75.0
X31.2Y20.6
X31.3Y37.1
X31.3Y35.1
X31.7Y15.2
X31.7Y4.5
X31.9Y71.6
X32.0Y69.0
X32.5Y60.1
X32.7Y44.4
X33.1Y80.8
X33.3Y9.1
X33.5Y32.737
X33.5Y5.4
X33.7Y13.6
X34.1Y38.538
X34.3Y43.0
X34.4Y55.5
X35.0Y29.8
X35.2Y84.35
X35.4Y72.2
X35.4Y68.9
X35.5Y65.4
X35.6Y37.1
X35.6Y35.2
X35.6Y34.3
X36.2Y1.4
X36.5Y23.5
X36.5Y21.9
X36.6Y81.2
X36.9Y43.0
X37.0Y37.1
X37.1Y32.8
X37.1Y30.0
X37.1Y27.0
X37.3Y20.9
X37.7Y65.4
X37.7Y62.9
X37.8Y72.2
X37.8Y68.9
X38.1Y30.7
X38.2Y78.1
X38.2Y17.9
X38.5Y36.0
X39.0Y10.9
X39.0Y8.3
X39.5Y70.7
X39.8Y47.7
X39.9Y43.0
X39.9Y38.3
X40.2Y23.5
X40.6Y20.2
X40.7Y16.2
X40.7Y13.9
X40.9Y8.3
X41.8Y80.5
X41.8Y76.7
X41.8Y20.2
X42.0Y68.7
X42.3Y62.65
X42.4Y59.6
X42.4Y54.9
X42.4Y32.6
X42.6Y19.5
X42.6Y16.2
X43.2Y7.5
X43.25Y65.25
X43.25Y63.6
X43.7Y58.9
X44.3Y20.8
X44.3Y7.5
X44.6Y1.4
X45.3Y57.5
X45.4Y77.1
X45.4Y7.5
X45.8Y19.5
X46.0Y25.0
X46.2Y47.6
X46.2Y42.9
X46.2Y38.35
X46.6Y76.6
X46.6Y68.0
X46.6Y65.8
X46.6Y28.4
X48.0Y25.0
X48.1Y66.9
X48.1Y16.0
X48.4Y73.6
X48.4Y72.2
X48.4Y70.8
X49.7Y68.0
X49.7Y65.8
X49.9Y32.6
X50.0Y30.0
X50.9Y18.9
X51.0Y1.4
X51.1Y57.4
X51.8Y32.6
X52.2Y79.9
X52.4Y62.2
X52.45Y42.85
X52.5Y55.0
X52.5Y50.85
X52.5Y38.2
X52.8Y59.0
X53.0Y30.5
X53.3Y18.9
X53.9Y32.6
X54.0Y29.5
X54.4Y47.5
X54.9Y59.0
X55.0Y28.6
X55.2Y77.0
X55.2Y69.2
X55.2Y66.9
X55.5Y35.7
X56.0Y27.7
X56.5Y59.1
X56.5Y21.7
X56.7Y73.3
X56.8Y42.8
X56.9Y26.8
X57.0Y14.3
X57.0Y9.0
X57.0Y3.6
X57.6Y62.4
X57.6Y59.8
X57.9Y25.8
X58.5Y71.6
X58.65Y55.0
X58.65Y50.8
X58.7Y75.2
X58.725Y60.625
X58.8Y36.4
X59.3Y24.4
X59.9Y62.4
X59.9Y35.4
X60.0Y40.1
X60.0Y20.9
X60.1Y70.0
X60.3Y73.4
X60.7Y77.1
X60.8Y34.4
X60.8Y26.1
X61.3Y47.3
X61.3Y21.7
X61.7Y33.4
X62.1Y71.7
X62.5Y75.5
X62.5Y24.4
X62.5Y23.1
X62.6Y32.5
X63.0Y28.2
X63.5Y31.5
X63.8Y84.1
X64.1Y77.2
X64.1Y73.9
X64.2Y69.0
X64.2Y64.1
X64.2Y44.2
X64.3Y59.8
X64.4Y54.9
X64.4Y50.0
X64.5Y30.4
X64.7Y26.4
X64.9Y21.8
X66.2Y75.3
X66.2Y29.3
X67.0Y19.7
X67.3Y32.4
X67.8Y46.2
X68.0Y73.9
X68.0Y69.0
X68.1Y64.1
X68.1Y59.8
X68.1Y54.9
X68.1Y50.0
X68.6Y75.9
X69.1Y24.3
X69.1Y19.5
X69.1Y7.5
X69.1Y3.3
X69.284Y44.709
X69.4Y65.0
X69.4Y45.9
X69.5Y29.8
X70.0Y22.0
X70.2Y43.8
X70.5Y45.0
X71.1Y42.8
X71.35Y22.0
X71.5Y44.2
X71.8Y13.7
X72.0Y41.9
X72.3Y22.2
X72.5Y43.3
X72.8Y29.8
X72.8Y14.9
X73.0Y40.9
X73.2Y22.0
X73.2Y7.5
X73.2Y3.3
X73.3Y38.4
X73.5Y42.4
X73.5Y31.0
X73.5Y27.1
X73.5Y25.4
X74.5Y67.1
X74.5Y41.5
X74.6Y32.4
X75.1Y76.5
X75.6Y59.7
X75.6Y54.9
X75.7Y50.0
X75.7Y45.5
X75.9Y14.3
X77.0Y63.3
X77.0Y31.6
X77.0Y12.7
X77.1Y27.6
X77.1Y24.3
X77.1Y22.0
X77.1Y19.4
X77.1Y16.7
X77.3Y70.1
X77.3Y68.3
X78.3Y61.6
X78.3Y32.2
X78.4Y63.3
X78.8Y20.7
X79.4Y54.9
X79.4Y50.0
X79.4Y45.5
X79.4Y38.4
X80.5Y17.5
X81.5Y79.3
X81.5Y74.7
X81.5Y73.5
X81.5Y72.2
X81.5Y70.9
X81.5Y69.7
X81.5Y65.8
X81.5Y18.5
X82.0Y16.95
X82.6Y54.9
X82.6Y50.0
X82.6Y45.5
X82.6Y38.4
X82.85Y17.55
X82.9Y24.2
X82.9Y21.9
X83.6Y16.95
X84.0Y19.6
X84.35Y17.55
X85.0Y60.5
X85.15Y16.95
X85.7Y69.5
X85.7Y65.3
X85.932Y17.548
X86.0Y27.4
X86.3Y60.5
X86.6Y19.6
X86.75Y16.95
X87.3Y74.4
X87.65Y17.55
X88.0Y24.5
X88.55Y16.95
X89.5Y19.0
X89.5Y17.55
X89.9Y22.0
X90.3Y45.5
X90.4Y50.0
X90.4Y38.4
X90.5Y30.0
X90.6Y71.0
X91.1Y17.9
X91.4Y60.5
X91.85Y16.95
X92.6Y56.7
X92.9Y48.8
X93.0Y45.5
X93.0Y22.0
X93.1Y38.4
X93.1Y31.4
X93.6Y74.4
X93.8Y17.9
X93.9Y60.5
X94.4Y55.0
X95.1Y17.55
X95.2Y60.5
X95.85Y16.95
X96.0Y24.3
X96.2Y56.9
X96.3Y69.3
X96.3Y65.8
X96.6Y17.55
X96.8Y52.3
X97.9Y38.3
X97.9Y31.4
X98.0Y45.5
X98.7Y24.3
X98.8Y54.4
X98.8Y21.9
X98.8Y18.9
X102.5Y79.8
X102.5Y78.5
X102.5Y77.2
X102.5Y76.0
X102.5Y74.7
X102.5Y73.4
X102.5Y72.1
X102.5Y70.9
X102.5Y69.6
X102.6Y63.2
X102.6Y47.5
X102.6Y24.3
X102.6Y21.9
X102.6Y19.0
X104.0Y56.8
X104.0Y52.0
X104.0Y45.2
X104.0Y40.0
X104.0Y34.6
X104.0Y29.7
X104.1Y63.9
X105.0Y76.0
X105.6Y24.3
X105.6Y21.9
X105.8Y13.4
X106.0Y86.0
X107.7Y10.6
X108.4Y16.1
X109.2Y79.0
X109.7Y3.6
X109.9Y87.0
X109.9Y84.3
X112.0Y60.0
X112.0Y51.9
X112.0Y40.0
X112.0Y34.4
X112.0Y30.0
X112.0Y21.9
X112.0Y18.7
X113.0Y26.0
X113.5Y23.1
X113.9Y86.9
X113.9Y84.3
X114.0Y34.8
X114.1Y37.9
X114.6Y54.3
X115.0Y73.0
X115.1Y48.6
X115.2Y20.7
X115.3Y70.6
X116.0Y7.8
X116.0Y3.6
X116.1Y85.8
X116.2Y21.9
X116.2Y18.7
X116.2Y15.9
X117.1Y42.4
X118.1Y31.7
X118.5Y62.5
X118.5Y58.7
X118.5Y54.3
X118.6Y84.3
X118.8Y73.0
X118.8Y69.5
X120.0Y26.0
X120.9Y86.9
X121.0Y32.0
X122.0Y16.0
X122.0Y7.8
X122.0Y3.6
X123.1Y84.3
X123.1Y81.6
X123.8Y45.4
X124.8Y74.5
X124.9Y38.9
X125.5Y26.0
X126.3Y29.2
X127.0Y71.5
X127.1Y59.8
X127.1Y56.6
X128.0Y20.5
X128.2Y38.9
X128.5Y74.6
X130.35Y35.15
X131.7Y38.9
X131.7Y33.0
X132.4Y59.8
T4
X3.5Y84.5
X3.5Y3.5
X130.5Y84.5
X130.5Y3.5
T2
X2.164Y28.32G85X0.964Y28.32
G05
X2.164Y19.68G85X0.964Y19.68
G05
X5.965Y28.32G85X5.164Y28.32
G05
X5.965Y19.68G85X5.164Y19.68
G05
X128.1Y30.32G85X128.9Y30.32
G05
X128.1Y21.68G85X128.9Y21.68
G05
X131.9Y30.32G85X133.1Y30.32
G05
X131.9Y21.68G85X133.1Y21.68
G05
T3
X1.5Y54.2G85X1.5Y55.4
G05
X9.3Y54.2G85X9.3Y55.4
G05
T0
M30
