%TF.GenerationSoftware,KiCad,Pcbnew,7.0.6*%
%TF.CreationDate,2023-09-04T15:45:52-07:00*%
%TF.ProjectId,tulipcc,74756c69-7063-4632-9e6b-696361645f70,rev?*%
%TF.SameCoordinates,Original*%
%TF.FileFunction,Drillmap*%
%TF.FilePolarity,Positive*%
%FSLAX45Y45*%
G04 Gerber Fmt 4.5, Leading zero omitted, Abs format (unit mm)*
G04 Created by KiCad (PCBNEW 7.0.6) date 2023-09-04 15:45:52*
%MOMM*%
%LPD*%
G01*
G04 APERTURE LIST*
%ADD10C,0.100000*%
%ADD11C,0.200000*%
%ADD12C,0.030000*%
%ADD13C,0.060000*%
%ADD14C,0.320000*%
G04 APERTURE END LIST*
D10*
X6700000Y0D02*
X7500000Y0D01*
X5900000Y0D02*
G75*
G03*
X6100000Y200000I0J200000D01*
G01*
X6300000Y1910000D02*
G75*
G03*
X6100000Y1710000I0J-200000D01*
G01*
X6100000Y200000D02*
X6100000Y1710000D01*
X6500000Y1710000D02*
G75*
G03*
X6300000Y1910000I-200000J0D01*
G01*
X6500000Y200000D02*
G75*
G03*
X6700000Y0I200000J0D01*
G01*
X6500000Y200000D02*
X6500000Y1710000D01*
X7500000Y0D02*
G75*
G03*
X7700000Y200000I0J200000D01*
G01*
X7900000Y900000D02*
G75*
G03*
X7700000Y700000I0J-200000D01*
G01*
X13400000Y350000D02*
X13400000Y8450000D01*
X0Y8450000D02*
X0Y350000D01*
X7900000Y900000D02*
X10300000Y900000D01*
X13050000Y0D02*
G75*
G03*
X13400000Y350000I0J350000D01*
G01*
X10500000Y200000D02*
G75*
G03*
X10700000Y0I200000J0D01*
G01*
X10700000Y0D02*
X13050000Y0D01*
X13400000Y8450000D02*
G75*
G03*
X13050000Y8800000I-350000J0D01*
G01*
X6800000Y8300000D02*
X6800000Y8600000D01*
X350000Y8800000D02*
G75*
G03*
X0Y8450000I0J-350000D01*
G01*
X350000Y0D02*
X5900000Y0D01*
X10600000Y8800003D02*
G75*
G03*
X10400014Y8599007I2950J-202923D01*
G01*
X10600000Y8800000D02*
X13050000Y8800000D01*
X6800000Y8300000D02*
G75*
G03*
X7000000Y8100000I200000J0D01*
G01*
X0Y350000D02*
G75*
G03*
X350000Y0I350000J0D01*
G01*
X10200000Y8100000D02*
G75*
G03*
X10400005Y8301421I-1420J201420D01*
G01*
X6800000Y8600000D02*
G75*
G03*
X6600000Y8800000I-200000J0D01*
G01*
X10500000Y700000D02*
G75*
G03*
X10300000Y900000I-200000J0D01*
G01*
X7700000Y200000D02*
X7700000Y700000D01*
X10400005Y8301421D02*
X10400000Y8600000D01*
X10500000Y200000D02*
X10500000Y700000D01*
X350000Y8800000D02*
X6600000Y8800000D01*
X7000000Y8100000D02*
X10200000Y8100000D01*
D11*
D12*
X355000Y1845000D02*
X385000Y1815000D01*
X385000Y1845000D02*
X355000Y1815000D01*
X591450Y2975000D02*
X621450Y2945000D01*
X621450Y2975000D02*
X591450Y2945000D01*
X665000Y6775000D02*
X695000Y6745000D01*
X695000Y6775000D02*
X665000Y6745000D01*
X695000Y3685000D02*
X725000Y3655000D01*
X725000Y3685000D02*
X695000Y3655000D01*
X715000Y3485000D02*
X745000Y3455000D01*
X745000Y3485000D02*
X715000Y3455000D01*
X755000Y1945000D02*
X785000Y1915000D01*
X785000Y1945000D02*
X755000Y1915000D01*
X755000Y1645000D02*
X785000Y1615000D01*
X785000Y1645000D02*
X755000Y1615000D01*
X761450Y2735000D02*
X791450Y2705000D01*
X791450Y2735000D02*
X761450Y2705000D01*
X805000Y4265000D02*
X835000Y4235000D01*
X835000Y4265000D02*
X805000Y4235000D01*
X805000Y4065000D02*
X835000Y4035000D01*
X835000Y4065000D02*
X805000Y4035000D01*
X805000Y3855000D02*
X835000Y3825000D01*
X835000Y3855000D02*
X805000Y3825000D01*
X805000Y605000D02*
X835000Y575000D01*
X835000Y605000D02*
X805000Y575000D01*
X891450Y2415000D02*
X921450Y2385000D01*
X921450Y2415000D02*
X891450Y2385000D01*
X990000Y4455000D02*
X1020000Y4425000D01*
X1020000Y4455000D02*
X990000Y4425000D01*
X1085000Y3855000D02*
X1115000Y3825000D01*
X1115000Y3855000D02*
X1085000Y3825000D01*
X1155000Y8465000D02*
X1185000Y8435000D01*
X1185000Y8465000D02*
X1155000Y8435000D01*
X1155000Y1265000D02*
X1185000Y1235000D01*
X1185000Y1265000D02*
X1155000Y1235000D01*
X1185000Y4265000D02*
X1215000Y4235000D01*
X1215000Y4265000D02*
X1185000Y4235000D01*
X1185000Y4065000D02*
X1215000Y4035000D01*
X1215000Y4065000D02*
X1185000Y4035000D01*
X1195000Y2675000D02*
X1225000Y2645000D01*
X1225000Y2675000D02*
X1195000Y2645000D01*
X1225000Y3365000D02*
X1255000Y3335000D01*
X1255000Y3365000D02*
X1225000Y3335000D01*
X1285000Y2025000D02*
X1315000Y1995000D01*
X1315000Y2025000D02*
X1285000Y1995000D01*
X1375000Y3605000D02*
X1405000Y3575000D01*
X1405000Y3605000D02*
X1375000Y3575000D01*
X1420000Y6350000D02*
X1450000Y6320000D01*
X1450000Y6350000D02*
X1420000Y6320000D01*
X1475000Y2415000D02*
X1505000Y2385000D01*
X1505000Y2415000D02*
X1475000Y2385000D01*
X1535000Y4625000D02*
X1565000Y4595000D01*
X1565000Y4625000D02*
X1535000Y4595000D01*
X1575000Y1673750D02*
X1605000Y1643750D01*
X1605000Y1673750D02*
X1575000Y1643750D01*
X1625000Y5095000D02*
X1655000Y5065000D01*
X1655000Y5095000D02*
X1625000Y5065000D01*
X1645000Y3005000D02*
X1675000Y2975000D01*
X1675000Y3005000D02*
X1645000Y2975000D01*
X1645000Y2495000D02*
X1675000Y2465000D01*
X1675000Y2495000D02*
X1645000Y2465000D01*
X1645000Y1815000D02*
X1675000Y1785000D01*
X1675000Y1815000D02*
X1645000Y1785000D01*
X1675000Y1265000D02*
X1705000Y1235000D01*
X1705000Y1265000D02*
X1675000Y1235000D01*
X1785000Y435000D02*
X1815000Y405000D01*
X1815000Y435000D02*
X1785000Y405000D01*
X1795000Y4625000D02*
X1825000Y4595000D01*
X1825000Y4625000D02*
X1795000Y4595000D01*
X1795000Y3605000D02*
X1825000Y3575000D01*
X1825000Y3605000D02*
X1795000Y3575000D01*
X1805000Y3365000D02*
X1835000Y3335000D01*
X1835000Y3365000D02*
X1805000Y3335000D01*
X1835000Y6195000D02*
X1865000Y6165000D01*
X1865000Y6195000D02*
X1835000Y6165000D01*
X1945000Y3185000D02*
X1975000Y3155000D01*
X1975000Y3185000D02*
X1945000Y3155000D01*
X2015000Y6025000D02*
X2045000Y5995000D01*
X2045000Y6025000D02*
X2015000Y5995000D01*
X2045000Y2495000D02*
X2075000Y2465000D01*
X2075000Y2495000D02*
X2045000Y2465000D01*
X2065000Y4625000D02*
X2095000Y4595000D01*
X2095000Y4625000D02*
X2065000Y4595000D01*
X2150000Y8460000D02*
X2180000Y8430000D01*
X2180000Y8460000D02*
X2150000Y8430000D01*
X2155000Y2165000D02*
X2185000Y2135000D01*
X2185000Y2165000D02*
X2155000Y2135000D01*
X2155000Y1745000D02*
X2185000Y1715000D01*
X2185000Y1745000D02*
X2155000Y1715000D01*
X2215000Y1105000D02*
X2245000Y1075000D01*
X2245000Y1105000D02*
X2215000Y1075000D01*
X2215000Y685000D02*
X2245000Y655000D01*
X2245000Y685000D02*
X2215000Y655000D01*
X2305000Y4285000D02*
X2335000Y4255000D01*
X2335000Y4285000D02*
X2305000Y4255000D01*
X2305000Y4075000D02*
X2335000Y4045000D01*
X2335000Y4075000D02*
X2305000Y4045000D01*
X2335000Y2225000D02*
X2365000Y2195000D01*
X2365000Y2225000D02*
X2335000Y2195000D01*
X2345000Y3595000D02*
X2375000Y3565000D01*
X2375000Y3595000D02*
X2345000Y3565000D01*
X2355000Y2735000D02*
X2385000Y2705000D01*
X2385000Y2735000D02*
X2355000Y2705000D01*
X2385000Y155000D02*
X2415000Y125000D01*
X2415000Y155000D02*
X2385000Y125000D01*
X2435000Y2565000D02*
X2465000Y2535000D01*
X2465000Y2565000D02*
X2435000Y2535000D01*
X2515000Y3365000D02*
X2545000Y3335000D01*
X2545000Y3365000D02*
X2515000Y3335000D01*
X2515000Y3035000D02*
X2545000Y3005000D01*
X2545000Y3035000D02*
X2515000Y3005000D01*
X2525000Y1745000D02*
X2555000Y1715000D01*
X2555000Y1745000D02*
X2525000Y1715000D01*
X2565000Y4345000D02*
X2595000Y4315000D01*
X2595000Y4345000D02*
X2565000Y4315000D01*
X2615000Y8155000D02*
X2645000Y8125000D01*
X2645000Y8155000D02*
X2615000Y8125000D01*
X2645000Y2465000D02*
X2675000Y2435000D01*
X2675000Y2465000D02*
X2645000Y2435000D01*
X2675000Y5525000D02*
X2705000Y5495000D01*
X2705000Y5525000D02*
X2675000Y5495000D01*
X2675000Y5265000D02*
X2705000Y5235000D01*
X2705000Y5265000D02*
X2675000Y5235000D01*
X2685000Y575000D02*
X2715000Y545000D01*
X2715000Y575000D02*
X2685000Y545000D01*
X2695000Y7335000D02*
X2725000Y7305000D01*
X2725000Y7335000D02*
X2695000Y7305000D01*
X2705000Y4445000D02*
X2735000Y4415000D01*
X2735000Y4445000D02*
X2705000Y4415000D01*
X2705000Y4235000D02*
X2735000Y4205000D01*
X2735000Y4235000D02*
X2705000Y4205000D01*
X2705000Y4088750D02*
X2735000Y4058750D01*
X2735000Y4088750D02*
X2705000Y4058750D01*
X2705000Y3795000D02*
X2735000Y3765000D01*
X2735000Y3795000D02*
X2705000Y3765000D01*
X2755000Y1105000D02*
X2785000Y1075000D01*
X2785000Y1105000D02*
X2755000Y1075000D01*
X2775000Y1615000D02*
X2805000Y1585000D01*
X2805000Y1615000D02*
X2775000Y1585000D01*
X2875000Y435000D02*
X2905000Y405000D01*
X2905000Y435000D02*
X2875000Y405000D01*
X2885000Y7765000D02*
X2915000Y7735000D01*
X2915000Y7765000D02*
X2885000Y7735000D01*
X2885000Y7515000D02*
X2915000Y7485000D01*
X2915000Y7515000D02*
X2885000Y7485000D01*
X2915000Y1785000D02*
X2945000Y1755000D01*
X2945000Y1785000D02*
X2915000Y1755000D01*
X2925000Y6025000D02*
X2955000Y5995000D01*
X2955000Y6025000D02*
X2925000Y5995000D01*
X2965000Y3288750D02*
X2995000Y3258750D01*
X2995000Y3288750D02*
X2965000Y3258750D01*
X2965000Y3035000D02*
X2995000Y3005000D01*
X2995000Y3035000D02*
X2965000Y3005000D01*
X2985000Y7175000D02*
X3015000Y7145000D01*
X3015000Y7175000D02*
X2985000Y7145000D01*
X2985000Y6915000D02*
X3015000Y6885000D01*
X3015000Y6915000D02*
X2985000Y6885000D01*
X2985000Y6485000D02*
X3015000Y6455000D01*
X3015000Y6485000D02*
X2985000Y6455000D01*
X3015000Y155000D02*
X3045000Y125000D01*
X3045000Y155000D02*
X3015000Y125000D01*
X3035000Y1015000D02*
X3065000Y985000D01*
X3065000Y1015000D02*
X3035000Y985000D01*
X3055000Y2335000D02*
X3085000Y2305000D01*
X3085000Y2335000D02*
X3055000Y2305000D01*
X3075000Y7515000D02*
X3105000Y7485000D01*
X3105000Y7515000D02*
X3075000Y7485000D01*
X3105000Y2075000D02*
X3135000Y2045000D01*
X3135000Y2075000D02*
X3105000Y2045000D01*
X3115000Y3725000D02*
X3145000Y3695000D01*
X3145000Y3725000D02*
X3115000Y3695000D01*
X3115000Y3525000D02*
X3145000Y3495000D01*
X3145000Y3525000D02*
X3115000Y3495000D01*
X3155000Y1535000D02*
X3185000Y1505000D01*
X3185000Y1535000D02*
X3155000Y1505000D01*
X3155000Y465000D02*
X3185000Y435000D01*
X3185000Y465000D02*
X3155000Y435000D01*
X3175000Y7175000D02*
X3205000Y7145000D01*
X3205000Y7175000D02*
X3175000Y7145000D01*
X3185000Y6915000D02*
X3215000Y6885000D01*
X3215000Y6915000D02*
X3185000Y6885000D01*
X3235000Y6025000D02*
X3265000Y5995000D01*
X3265000Y6025000D02*
X3235000Y5995000D01*
X3255000Y4455000D02*
X3285000Y4425000D01*
X3285000Y4455000D02*
X3255000Y4425000D01*
X3295000Y8095000D02*
X3325000Y8065000D01*
X3325000Y8095000D02*
X3295000Y8065000D01*
X3315000Y925000D02*
X3345000Y895000D01*
X3345000Y925000D02*
X3315000Y895000D01*
X3335000Y3288750D02*
X3365000Y3258750D01*
X3365000Y3288750D02*
X3335000Y3258750D01*
X3335000Y555000D02*
X3365000Y525000D01*
X3365000Y555000D02*
X3335000Y525000D01*
X3355000Y1375000D02*
X3385000Y1345000D01*
X3385000Y1375000D02*
X3355000Y1345000D01*
X3395000Y3868750D02*
X3425000Y3838750D01*
X3425000Y3868750D02*
X3395000Y3838750D01*
X3415000Y4315000D02*
X3445000Y4285000D01*
X3445000Y4315000D02*
X3415000Y4285000D01*
X3425000Y5565000D02*
X3455000Y5535000D01*
X3455000Y5565000D02*
X3425000Y5535000D01*
X3485000Y2995000D02*
X3515000Y2965000D01*
X3515000Y2995000D02*
X3485000Y2965000D01*
X3505000Y8450000D02*
X3535000Y8420000D01*
X3535000Y8450000D02*
X3505000Y8420000D01*
X3525000Y7235000D02*
X3555000Y7205000D01*
X3555000Y7235000D02*
X3525000Y7205000D01*
X3525000Y6905000D02*
X3555000Y6875000D01*
X3555000Y6905000D02*
X3525000Y6875000D01*
X3535000Y6555000D02*
X3565000Y6525000D01*
X3565000Y6555000D02*
X3535000Y6525000D01*
X3545000Y3725000D02*
X3575000Y3695000D01*
X3575000Y3725000D02*
X3545000Y3695000D01*
X3545000Y3535000D02*
X3575000Y3505000D01*
X3575000Y3535000D02*
X3545000Y3505000D01*
X3545000Y3445000D02*
X3575000Y3415000D01*
X3575000Y3445000D02*
X3545000Y3415000D01*
X3605000Y155000D02*
X3635000Y125000D01*
X3635000Y155000D02*
X3605000Y125000D01*
X3635000Y2365000D02*
X3665000Y2335000D01*
X3665000Y2365000D02*
X3635000Y2335000D01*
X3635000Y2205000D02*
X3665000Y2175000D01*
X3665000Y2205000D02*
X3635000Y2175000D01*
X3645000Y8135000D02*
X3675000Y8105000D01*
X3675000Y8135000D02*
X3645000Y8105000D01*
X3675000Y4315000D02*
X3705000Y4285000D01*
X3705000Y4315000D02*
X3675000Y4285000D01*
X3685000Y3725000D02*
X3715000Y3695000D01*
X3715000Y3725000D02*
X3685000Y3695000D01*
X3695000Y3295000D02*
X3725000Y3265000D01*
X3725000Y3295000D02*
X3695000Y3265000D01*
X3695000Y3015000D02*
X3725000Y2985000D01*
X3725000Y3015000D02*
X3695000Y2985000D01*
X3695000Y2715000D02*
X3725000Y2685000D01*
X3725000Y2715000D02*
X3695000Y2685000D01*
X3715000Y2105000D02*
X3745000Y2075000D01*
X3745000Y2105000D02*
X3715000Y2075000D01*
X3755000Y6555000D02*
X3785000Y6525000D01*
X3785000Y6555000D02*
X3755000Y6525000D01*
X3755000Y6305000D02*
X3785000Y6275000D01*
X3785000Y6305000D02*
X3755000Y6275000D01*
X3765000Y7235000D02*
X3795000Y7205000D01*
X3795000Y7235000D02*
X3765000Y7205000D01*
X3765000Y6905000D02*
X3795000Y6875000D01*
X3795000Y6905000D02*
X3765000Y6875000D01*
X3795000Y3085000D02*
X3825000Y3055000D01*
X3825000Y3085000D02*
X3795000Y3055000D01*
X3805000Y7825000D02*
X3835000Y7795000D01*
X3835000Y7825000D02*
X3805000Y7795000D01*
X3805000Y1805000D02*
X3835000Y1775000D01*
X3835000Y1805000D02*
X3805000Y1775000D01*
X3835000Y3615000D02*
X3865000Y3585000D01*
X3865000Y3615000D02*
X3835000Y3585000D01*
X3885000Y1105000D02*
X3915000Y1075000D01*
X3915000Y1105000D02*
X3885000Y1075000D01*
X3885000Y845000D02*
X3915000Y815000D01*
X3915000Y845000D02*
X3885000Y815000D01*
X3935000Y7085000D02*
X3965000Y7055000D01*
X3965000Y7085000D02*
X3935000Y7055000D01*
X3965000Y4785000D02*
X3995000Y4755000D01*
X3995000Y4785000D02*
X3965000Y4755000D01*
X3975000Y4315000D02*
X4005000Y4285000D01*
X4005000Y4315000D02*
X3975000Y4285000D01*
X3975000Y3845000D02*
X4005000Y3815000D01*
X4005000Y3845000D02*
X3975000Y3815000D01*
X4005000Y2365000D02*
X4035000Y2335000D01*
X4035000Y2365000D02*
X4005000Y2335000D01*
X4045000Y2035000D02*
X4075000Y2005000D01*
X4075000Y2035000D02*
X4045000Y2005000D01*
X4055000Y1635000D02*
X4085000Y1605000D01*
X4085000Y1635000D02*
X4055000Y1605000D01*
X4055000Y1405000D02*
X4085000Y1375000D01*
X4085000Y1405000D02*
X4055000Y1375000D01*
X4075000Y845000D02*
X4105000Y815000D01*
X4105000Y845000D02*
X4075000Y815000D01*
X4165000Y8065000D02*
X4195000Y8035000D01*
X4195000Y8065000D02*
X4165000Y8035000D01*
X4165000Y7685000D02*
X4195000Y7655000D01*
X4195000Y7685000D02*
X4165000Y7655000D01*
X4165000Y2035000D02*
X4195000Y2005000D01*
X4195000Y2035000D02*
X4165000Y2005000D01*
X4185000Y6885000D02*
X4215000Y6855000D01*
X4215000Y6885000D02*
X4185000Y6855000D01*
X4225000Y5975000D02*
X4255000Y5945000D01*
X4255000Y5975000D02*
X4225000Y5945000D01*
X4225000Y5505000D02*
X4255000Y5475000D01*
X4255000Y5505000D02*
X4225000Y5475000D01*
X4225000Y3275000D02*
X4255000Y3245000D01*
X4255000Y3275000D02*
X4225000Y3245000D01*
X4245000Y1965000D02*
X4275000Y1935000D01*
X4275000Y1965000D02*
X4245000Y1935000D01*
X4245000Y1635000D02*
X4275000Y1605000D01*
X4275000Y1635000D02*
X4245000Y1605000D01*
X4305000Y6505000D02*
X4335000Y6475000D01*
X4335000Y6505000D02*
X4305000Y6475000D01*
X4305000Y765000D02*
X4335000Y735000D01*
X4335000Y765000D02*
X4305000Y735000D01*
X4355000Y5905000D02*
X4385000Y5875000D01*
X4385000Y5905000D02*
X4355000Y5875000D01*
X4415000Y2095000D02*
X4445000Y2065000D01*
X4445000Y2095000D02*
X4415000Y2065000D01*
X4415000Y765000D02*
X4445000Y735000D01*
X4445000Y765000D02*
X4415000Y735000D01*
X4445000Y155000D02*
X4475000Y125000D01*
X4475000Y155000D02*
X4445000Y125000D01*
X4515000Y5765000D02*
X4545000Y5735000D01*
X4545000Y5765000D02*
X4515000Y5735000D01*
X4525000Y7725000D02*
X4555000Y7695000D01*
X4555000Y7725000D02*
X4525000Y7695000D01*
X4525000Y765000D02*
X4555000Y735000D01*
X4555000Y765000D02*
X4525000Y735000D01*
X4565000Y1965000D02*
X4595000Y1935000D01*
X4595000Y1965000D02*
X4565000Y1935000D01*
X4585000Y2515000D02*
X4615000Y2485000D01*
X4615000Y2515000D02*
X4585000Y2485000D01*
X4605000Y4775000D02*
X4635000Y4745000D01*
X4635000Y4775000D02*
X4605000Y4745000D01*
X4605000Y4305000D02*
X4635000Y4275000D01*
X4635000Y4305000D02*
X4605000Y4275000D01*
X4605000Y3850000D02*
X4635000Y3820000D01*
X4635000Y3850000D02*
X4605000Y3820000D01*
X4645000Y7675000D02*
X4675000Y7645000D01*
X4675000Y7675000D02*
X4645000Y7645000D01*
X4645000Y6815000D02*
X4675000Y6785000D01*
X4675000Y6815000D02*
X4645000Y6785000D01*
X4645000Y6595000D02*
X4675000Y6565000D01*
X4675000Y6595000D02*
X4645000Y6565000D01*
X4645000Y2855000D02*
X4675000Y2825000D01*
X4675000Y2855000D02*
X4645000Y2825000D01*
X4785000Y2515000D02*
X4815000Y2485000D01*
X4815000Y2515000D02*
X4785000Y2485000D01*
X4795000Y6705000D02*
X4825000Y6675000D01*
X4825000Y6705000D02*
X4795000Y6675000D01*
X4795000Y1615000D02*
X4825000Y1585000D01*
X4825000Y1615000D02*
X4795000Y1585000D01*
X4825000Y7375000D02*
X4855000Y7345000D01*
X4855000Y7375000D02*
X4825000Y7345000D01*
X4825000Y7235000D02*
X4855000Y7205000D01*
X4855000Y7235000D02*
X4825000Y7205000D01*
X4825000Y7095000D02*
X4855000Y7065000D01*
X4855000Y7095000D02*
X4825000Y7065000D01*
X4955000Y6815000D02*
X4985000Y6785000D01*
X4985000Y6815000D02*
X4955000Y6785000D01*
X4955000Y6595000D02*
X4985000Y6565000D01*
X4985000Y6595000D02*
X4955000Y6565000D01*
X4975000Y3275000D02*
X5005000Y3245000D01*
X5005000Y3275000D02*
X4975000Y3245000D01*
X4985000Y3015000D02*
X5015000Y2985000D01*
X5015000Y3015000D02*
X4985000Y2985000D01*
X5075000Y1905000D02*
X5105000Y1875000D01*
X5105000Y1905000D02*
X5075000Y1875000D01*
X5085000Y155000D02*
X5115000Y125000D01*
X5115000Y155000D02*
X5085000Y125000D01*
X5095000Y5755000D02*
X5125000Y5725000D01*
X5125000Y5755000D02*
X5095000Y5725000D01*
X5165000Y3275000D02*
X5195000Y3245000D01*
X5195000Y3275000D02*
X5165000Y3245000D01*
X5205000Y8005000D02*
X5235000Y7975000D01*
X5235000Y8005000D02*
X5205000Y7975000D01*
X5225000Y6235000D02*
X5255000Y6205000D01*
X5255000Y6235000D02*
X5225000Y6205000D01*
X5230000Y4300000D02*
X5260000Y4270000D01*
X5260000Y4300000D02*
X5230000Y4270000D01*
X5235000Y5515000D02*
X5265000Y5485000D01*
X5265000Y5515000D02*
X5235000Y5485000D01*
X5235000Y5100000D02*
X5265000Y5070000D01*
X5265000Y5100000D02*
X5235000Y5070000D01*
X5235000Y3835000D02*
X5265000Y3805000D01*
X5265000Y3835000D02*
X5235000Y3805000D01*
X5265000Y5915000D02*
X5295000Y5885000D01*
X5295000Y5915000D02*
X5265000Y5885000D01*
X5285000Y3065000D02*
X5315000Y3035000D01*
X5315000Y3065000D02*
X5285000Y3035000D01*
X5315000Y1905000D02*
X5345000Y1875000D01*
X5345000Y1905000D02*
X5315000Y1875000D01*
X5375000Y3275000D02*
X5405000Y3245000D01*
X5405000Y3275000D02*
X5375000Y3245000D01*
X5385000Y2965000D02*
X5415000Y2935000D01*
X5415000Y2965000D02*
X5385000Y2935000D01*
X5425000Y4765000D02*
X5455000Y4735000D01*
X5455000Y4765000D02*
X5425000Y4735000D01*
X5475000Y5915000D02*
X5505000Y5885000D01*
X5505000Y5915000D02*
X5475000Y5885000D01*
X5485000Y2875000D02*
X5515000Y2845000D01*
X5515000Y2875000D02*
X5485000Y2845000D01*
X5505000Y7715000D02*
X5535000Y7685000D01*
X5535000Y7715000D02*
X5505000Y7685000D01*
X5505000Y6935000D02*
X5535000Y6905000D01*
X5535000Y6935000D02*
X5505000Y6905000D01*
X5505000Y6705000D02*
X5535000Y6675000D01*
X5535000Y6705000D02*
X5505000Y6675000D01*
X5535000Y3585000D02*
X5565000Y3555000D01*
X5565000Y3585000D02*
X5535000Y3555000D01*
X5585000Y2785000D02*
X5615000Y2755000D01*
X5615000Y2785000D02*
X5585000Y2755000D01*
X5635000Y5925000D02*
X5665000Y5895000D01*
X5665000Y5925000D02*
X5635000Y5895000D01*
X5635000Y2185000D02*
X5665000Y2155000D01*
X5665000Y2185000D02*
X5635000Y2155000D01*
X5655000Y7345000D02*
X5685000Y7315000D01*
X5685000Y7345000D02*
X5655000Y7315000D01*
X5665000Y4295000D02*
X5695000Y4265000D01*
X5695000Y4295000D02*
X5665000Y4265000D01*
X5675000Y2695000D02*
X5705000Y2665000D01*
X5705000Y2695000D02*
X5675000Y2665000D01*
X5685000Y1445000D02*
X5715000Y1415000D01*
X5715000Y1445000D02*
X5685000Y1415000D01*
X5685000Y915000D02*
X5715000Y885000D01*
X5715000Y915000D02*
X5685000Y885000D01*
X5685000Y375000D02*
X5715000Y345000D01*
X5715000Y375000D02*
X5685000Y345000D01*
X5745000Y6255000D02*
X5775000Y6225000D01*
X5775000Y6255000D02*
X5745000Y6225000D01*
X5745000Y5995000D02*
X5775000Y5965000D01*
X5775000Y5995000D02*
X5745000Y5965000D01*
X5775000Y2595000D02*
X5805000Y2565000D01*
X5805000Y2595000D02*
X5775000Y2565000D01*
X5835000Y7175000D02*
X5865000Y7145000D01*
X5865000Y7175000D02*
X5835000Y7145000D01*
X5850000Y5515000D02*
X5880000Y5485000D01*
X5880000Y5515000D02*
X5850000Y5485000D01*
X5850000Y5095000D02*
X5880000Y5065000D01*
X5880000Y5095000D02*
X5850000Y5065000D01*
X5855000Y7535000D02*
X5885000Y7505000D01*
X5885000Y7535000D02*
X5855000Y7505000D01*
X5857500Y6077500D02*
X5887500Y6047500D01*
X5887500Y6077500D02*
X5857500Y6047500D01*
X5865000Y3655000D02*
X5895000Y3625000D01*
X5895000Y3655000D02*
X5865000Y3625000D01*
X5915000Y2455000D02*
X5945000Y2425000D01*
X5945000Y2455000D02*
X5915000Y2425000D01*
X5975000Y6255000D02*
X6005000Y6225000D01*
X6005000Y6255000D02*
X5975000Y6225000D01*
X5975000Y3555000D02*
X6005000Y3525000D01*
X6005000Y3555000D02*
X5975000Y3525000D01*
X5985000Y4025000D02*
X6015000Y3995000D01*
X6015000Y4025000D02*
X5985000Y3995000D01*
X5985000Y2105000D02*
X6015000Y2075000D01*
X6015000Y2105000D02*
X5985000Y2075000D01*
X5995000Y7015000D02*
X6025000Y6985000D01*
X6025000Y7015000D02*
X5995000Y6985000D01*
X6015000Y7355000D02*
X6045000Y7325000D01*
X6045000Y7355000D02*
X6015000Y7325000D01*
X6055000Y7725000D02*
X6085000Y7695000D01*
X6085000Y7725000D02*
X6055000Y7695000D01*
X6065000Y3455000D02*
X6095000Y3425000D01*
X6095000Y3455000D02*
X6065000Y3425000D01*
X6065000Y2625000D02*
X6095000Y2595000D01*
X6095000Y2625000D02*
X6065000Y2595000D01*
X6115000Y4745000D02*
X6145000Y4715000D01*
X6145000Y4745000D02*
X6115000Y4715000D01*
X6115000Y2185000D02*
X6145000Y2155000D01*
X6145000Y2185000D02*
X6115000Y2155000D01*
X6155000Y3355000D02*
X6185000Y3325000D01*
X6185000Y3355000D02*
X6155000Y3325000D01*
X6195000Y7185000D02*
X6225000Y7155000D01*
X6225000Y7185000D02*
X6195000Y7155000D01*
X6235000Y7565000D02*
X6265000Y7535000D01*
X6265000Y7565000D02*
X6235000Y7535000D01*
X6235000Y2455000D02*
X6265000Y2425000D01*
X6265000Y2455000D02*
X6235000Y2425000D01*
X6235000Y2325000D02*
X6265000Y2295000D01*
X6265000Y2325000D02*
X6235000Y2295000D01*
X6245000Y3265000D02*
X6275000Y3235000D01*
X6275000Y3265000D02*
X6245000Y3235000D01*
X6285000Y2835000D02*
X6315000Y2805000D01*
X6315000Y2835000D02*
X6285000Y2805000D01*
X6335000Y3165000D02*
X6365000Y3135000D01*
X6365000Y3165000D02*
X6335000Y3135000D01*
X6365000Y8425000D02*
X6395000Y8395000D01*
X6395000Y8425000D02*
X6365000Y8395000D01*
X6395000Y7735000D02*
X6425000Y7705000D01*
X6425000Y7735000D02*
X6395000Y7705000D01*
X6395000Y7405000D02*
X6425000Y7375000D01*
X6425000Y7405000D02*
X6395000Y7375000D01*
X6405000Y6915000D02*
X6435000Y6885000D01*
X6435000Y6915000D02*
X6405000Y6885000D01*
X6405000Y6425000D02*
X6435000Y6395000D01*
X6435000Y6425000D02*
X6405000Y6395000D01*
X6405000Y4435000D02*
X6435000Y4405000D01*
X6435000Y4435000D02*
X6405000Y4405000D01*
X6415000Y5995000D02*
X6445000Y5965000D01*
X6445000Y5995000D02*
X6415000Y5965000D01*
X6425000Y5505000D02*
X6455000Y5475000D01*
X6455000Y5505000D02*
X6425000Y5475000D01*
X6425000Y5015000D02*
X6455000Y4985000D01*
X6455000Y5015000D02*
X6425000Y4985000D01*
X6435000Y3055000D02*
X6465000Y3025000D01*
X6465000Y3055000D02*
X6435000Y3025000D01*
X6455000Y2655000D02*
X6485000Y2625000D01*
X6485000Y2655000D02*
X6455000Y2625000D01*
X6475000Y2195000D02*
X6505000Y2165000D01*
X6505000Y2195000D02*
X6475000Y2165000D01*
X6605000Y7545000D02*
X6635000Y7515000D01*
X6635000Y7545000D02*
X6605000Y7515000D01*
X6605000Y2945000D02*
X6635000Y2915000D01*
X6635000Y2945000D02*
X6605000Y2915000D01*
X6685000Y1985000D02*
X6715000Y1955000D01*
X6715000Y1985000D02*
X6685000Y1955000D01*
X6715000Y3255000D02*
X6745000Y3225000D01*
X6745000Y3255000D02*
X6715000Y3225000D01*
X6765000Y4635000D02*
X6795000Y4605000D01*
X6795000Y4635000D02*
X6765000Y4605000D01*
X6785000Y7405000D02*
X6815000Y7375000D01*
X6815000Y7405000D02*
X6785000Y7375000D01*
X6785000Y6915000D02*
X6815000Y6885000D01*
X6815000Y6915000D02*
X6785000Y6885000D01*
X6795000Y6425000D02*
X6825000Y6395000D01*
X6825000Y6425000D02*
X6795000Y6395000D01*
X6795000Y5995000D02*
X6825000Y5965000D01*
X6825000Y5995000D02*
X6795000Y5965000D01*
X6795000Y5505000D02*
X6825000Y5475000D01*
X6825000Y5505000D02*
X6795000Y5475000D01*
X6795000Y5015000D02*
X6825000Y4985000D01*
X6825000Y5015000D02*
X6795000Y4985000D01*
X6845000Y7605000D02*
X6875000Y7575000D01*
X6875000Y7605000D02*
X6845000Y7575000D01*
X6895000Y2445000D02*
X6925000Y2415000D01*
X6925000Y2445000D02*
X6895000Y2415000D01*
X6895000Y1965000D02*
X6925000Y1935000D01*
X6925000Y1965000D02*
X6895000Y1935000D01*
X6895000Y765000D02*
X6925000Y735000D01*
X6925000Y765000D02*
X6895000Y735000D01*
X6895000Y345000D02*
X6925000Y315000D01*
X6925000Y345000D02*
X6895000Y315000D01*
X6913370Y4485894D02*
X6943370Y4455894D01*
X6943370Y4485894D02*
X6913370Y4455894D01*
X6925000Y6515000D02*
X6955000Y6485000D01*
X6955000Y6515000D02*
X6925000Y6485000D01*
X6925000Y4605000D02*
X6955000Y4575000D01*
X6955000Y4605000D02*
X6925000Y4575000D01*
X6935000Y2995000D02*
X6965000Y2965000D01*
X6965000Y2995000D02*
X6935000Y2965000D01*
X6985000Y2215000D02*
X7015000Y2185000D01*
X7015000Y2215000D02*
X6985000Y2185000D01*
X7005000Y4395000D02*
X7035000Y4365000D01*
X7035000Y4395000D02*
X7005000Y4365000D01*
X7035000Y4515000D02*
X7065000Y4485000D01*
X7065000Y4515000D02*
X7035000Y4485000D01*
X7095000Y4295000D02*
X7125000Y4265000D01*
X7125000Y4295000D02*
X7095000Y4265000D01*
X7120000Y2215000D02*
X7150000Y2185000D01*
X7150000Y2215000D02*
X7120000Y2185000D01*
X7135000Y4435000D02*
X7165000Y4405000D01*
X7165000Y4435000D02*
X7135000Y4405000D01*
X7165000Y1385000D02*
X7195000Y1355000D01*
X7195000Y1385000D02*
X7165000Y1355000D01*
X7185000Y4205000D02*
X7215000Y4175000D01*
X7215000Y4205000D02*
X7185000Y4175000D01*
X7215000Y2235000D02*
X7245000Y2205000D01*
X7245000Y2235000D02*
X7215000Y2205000D01*
X7235000Y4345000D02*
X7265000Y4315000D01*
X7265000Y4345000D02*
X7235000Y4315000D01*
X7265000Y2995000D02*
X7295000Y2965000D01*
X7295000Y2995000D02*
X7265000Y2965000D01*
X7265000Y1505000D02*
X7295000Y1475000D01*
X7295000Y1505000D02*
X7265000Y1475000D01*
X7285000Y4105000D02*
X7315000Y4075000D01*
X7315000Y4105000D02*
X7285000Y4075000D01*
X7305000Y2215000D02*
X7335000Y2185000D01*
X7335000Y2215000D02*
X7305000Y2185000D01*
X7305000Y765000D02*
X7335000Y735000D01*
X7335000Y765000D02*
X7305000Y735000D01*
X7305000Y345000D02*
X7335000Y315000D01*
X7335000Y345000D02*
X7305000Y315000D01*
X7315000Y3855000D02*
X7345000Y3825000D01*
X7345000Y3855000D02*
X7315000Y3825000D01*
X7335000Y4255000D02*
X7365000Y4225000D01*
X7365000Y4255000D02*
X7335000Y4225000D01*
X7335000Y3115000D02*
X7365000Y3085000D01*
X7365000Y3115000D02*
X7335000Y3085000D01*
X7335000Y2725000D02*
X7365000Y2695000D01*
X7365000Y2725000D02*
X7335000Y2695000D01*
X7335000Y2555000D02*
X7365000Y2525000D01*
X7365000Y2555000D02*
X7335000Y2525000D01*
X7435000Y6725000D02*
X7465000Y6695000D01*
X7465000Y6725000D02*
X7435000Y6695000D01*
X7435000Y4165000D02*
X7465000Y4135000D01*
X7465000Y4165000D02*
X7435000Y4135000D01*
X7445000Y3255000D02*
X7475000Y3225000D01*
X7475000Y3255000D02*
X7445000Y3225000D01*
X7495000Y7665000D02*
X7525000Y7635000D01*
X7525000Y7665000D02*
X7495000Y7635000D01*
X7545000Y5985000D02*
X7575000Y5955000D01*
X7575000Y5985000D02*
X7545000Y5955000D01*
X7545000Y5505000D02*
X7575000Y5475000D01*
X7575000Y5505000D02*
X7545000Y5475000D01*
X7555000Y5015000D02*
X7585000Y4985000D01*
X7585000Y5015000D02*
X7555000Y4985000D01*
X7555000Y4565000D02*
X7585000Y4535000D01*
X7585000Y4565000D02*
X7555000Y4535000D01*
X7575000Y1445000D02*
X7605000Y1415000D01*
X7605000Y1445000D02*
X7575000Y1415000D01*
X7685000Y6345000D02*
X7715000Y6315000D01*
X7715000Y6345000D02*
X7685000Y6315000D01*
X7685000Y3175000D02*
X7715000Y3145000D01*
X7715000Y3175000D02*
X7685000Y3145000D01*
X7685000Y1285000D02*
X7715000Y1255000D01*
X7715000Y1285000D02*
X7685000Y1255000D01*
X7695000Y2775000D02*
X7725000Y2745000D01*
X7725000Y2775000D02*
X7695000Y2745000D01*
X7695000Y2445000D02*
X7725000Y2415000D01*
X7725000Y2445000D02*
X7695000Y2415000D01*
X7695000Y2215000D02*
X7725000Y2185000D01*
X7725000Y2215000D02*
X7695000Y2185000D01*
X7695000Y1955000D02*
X7725000Y1925000D01*
X7725000Y1955000D02*
X7695000Y1925000D01*
X7695000Y1685000D02*
X7725000Y1655000D01*
X7725000Y1685000D02*
X7695000Y1655000D01*
X7715000Y7025000D02*
X7745000Y6995000D01*
X7745000Y7025000D02*
X7715000Y6995000D01*
X7715000Y6845000D02*
X7745000Y6815000D01*
X7745000Y6845000D02*
X7715000Y6815000D01*
X7815000Y6175000D02*
X7845000Y6145000D01*
X7845000Y6175000D02*
X7815000Y6145000D01*
X7815000Y3235000D02*
X7845000Y3205000D01*
X7845000Y3235000D02*
X7815000Y3205000D01*
X7825000Y6345000D02*
X7855000Y6315000D01*
X7855000Y6345000D02*
X7825000Y6315000D01*
X7865000Y2085000D02*
X7895000Y2055000D01*
X7895000Y2085000D02*
X7865000Y2055000D01*
X7925000Y5505000D02*
X7955000Y5475000D01*
X7955000Y5505000D02*
X7925000Y5475000D01*
X7925000Y5015000D02*
X7955000Y4985000D01*
X7955000Y5015000D02*
X7925000Y4985000D01*
X7925000Y4565000D02*
X7955000Y4535000D01*
X7955000Y4565000D02*
X7925000Y4535000D01*
X7925000Y3855000D02*
X7955000Y3825000D01*
X7955000Y3855000D02*
X7925000Y3825000D01*
X8035000Y1765000D02*
X8065000Y1735000D01*
X8065000Y1765000D02*
X8035000Y1735000D01*
X8135000Y7945000D02*
X8165000Y7915000D01*
X8165000Y7945000D02*
X8135000Y7915000D01*
X8135000Y7485000D02*
X8165000Y7455000D01*
X8165000Y7485000D02*
X8135000Y7455000D01*
X8135000Y7365000D02*
X8165000Y7335000D01*
X8165000Y7365000D02*
X8135000Y7335000D01*
X8135000Y7235000D02*
X8165000Y7205000D01*
X8165000Y7235000D02*
X8135000Y7205000D01*
X8135000Y7105000D02*
X8165000Y7075000D01*
X8165000Y7105000D02*
X8135000Y7075000D01*
X8135000Y6985000D02*
X8165000Y6955000D01*
X8165000Y6985000D02*
X8135000Y6955000D01*
X8135000Y6595000D02*
X8165000Y6565000D01*
X8165000Y6595000D02*
X8135000Y6565000D01*
X8135000Y1865000D02*
X8165000Y1835000D01*
X8165000Y1865000D02*
X8135000Y1835000D01*
X8185000Y1710000D02*
X8215000Y1680000D01*
X8215000Y1710000D02*
X8185000Y1680000D01*
X8245000Y5505000D02*
X8275000Y5475000D01*
X8275000Y5505000D02*
X8245000Y5475000D01*
X8245000Y5015000D02*
X8275000Y4985000D01*
X8275000Y5015000D02*
X8245000Y4985000D01*
X8245000Y4565000D02*
X8275000Y4535000D01*
X8275000Y4565000D02*
X8245000Y4535000D01*
X8245000Y3855000D02*
X8275000Y3825000D01*
X8275000Y3855000D02*
X8245000Y3825000D01*
X8270000Y1770000D02*
X8300000Y1740000D01*
X8300000Y1770000D02*
X8270000Y1740000D01*
X8275000Y2435000D02*
X8305000Y2405000D01*
X8305000Y2435000D02*
X8275000Y2405000D01*
X8275000Y2205000D02*
X8305000Y2175000D01*
X8305000Y2205000D02*
X8275000Y2175000D01*
X8345000Y1710000D02*
X8375000Y1680000D01*
X8375000Y1710000D02*
X8345000Y1680000D01*
X8385000Y1975000D02*
X8415000Y1945000D01*
X8415000Y1975000D02*
X8385000Y1945000D01*
X8420000Y1770000D02*
X8450000Y1740000D01*
X8450000Y1770000D02*
X8420000Y1740000D01*
X8485000Y6065000D02*
X8515000Y6035000D01*
X8515000Y6065000D02*
X8485000Y6035000D01*
X8500000Y1710000D02*
X8530000Y1680000D01*
X8530000Y1710000D02*
X8500000Y1680000D01*
X8555000Y6965000D02*
X8585000Y6935000D01*
X8585000Y6965000D02*
X8555000Y6935000D01*
X8555000Y6545000D02*
X8585000Y6515000D01*
X8585000Y6545000D02*
X8555000Y6515000D01*
X8578166Y1769763D02*
X8608166Y1739763D01*
X8608166Y1769763D02*
X8578166Y1739763D01*
X8585000Y2755000D02*
X8615000Y2725000D01*
X8615000Y2755000D02*
X8585000Y2725000D01*
X8615000Y6065000D02*
X8645000Y6035000D01*
X8645000Y6065000D02*
X8615000Y6035000D01*
X8645000Y1975000D02*
X8675000Y1945000D01*
X8675000Y1975000D02*
X8645000Y1945000D01*
X8660000Y1710000D02*
X8690000Y1680000D01*
X8690000Y1710000D02*
X8660000Y1680000D01*
X8715000Y7455000D02*
X8745000Y7425000D01*
X8745000Y7455000D02*
X8715000Y7425000D01*
X8750000Y1770000D02*
X8780000Y1740000D01*
X8780000Y1770000D02*
X8750000Y1740000D01*
X8785000Y2465000D02*
X8815000Y2435000D01*
X8815000Y2465000D02*
X8785000Y2435000D01*
X8840000Y1710000D02*
X8870000Y1680000D01*
X8870000Y1710000D02*
X8840000Y1680000D01*
X8935000Y1915000D02*
X8965000Y1885000D01*
X8965000Y1915000D02*
X8935000Y1885000D01*
X8935000Y1770000D02*
X8965000Y1740000D01*
X8965000Y1770000D02*
X8935000Y1740000D01*
X8975000Y2215000D02*
X9005000Y2185000D01*
X9005000Y2215000D02*
X8975000Y2185000D01*
X9015000Y4565000D02*
X9045000Y4535000D01*
X9045000Y4565000D02*
X9015000Y4535000D01*
X9025000Y5015000D02*
X9055000Y4985000D01*
X9055000Y5015000D02*
X9025000Y4985000D01*
X9025000Y3855000D02*
X9055000Y3825000D01*
X9055000Y3855000D02*
X9025000Y3825000D01*
X9035000Y3015000D02*
X9065000Y2985000D01*
X9065000Y3015000D02*
X9035000Y2985000D01*
X9045000Y7115000D02*
X9075000Y7085000D01*
X9075000Y7115000D02*
X9045000Y7085000D01*
X9095000Y1805000D02*
X9125000Y1775000D01*
X9125000Y1805000D02*
X9095000Y1775000D01*
X9125000Y6065000D02*
X9155000Y6035000D01*
X9155000Y6065000D02*
X9125000Y6035000D01*
X9170000Y1710000D02*
X9200000Y1680000D01*
X9200000Y1710000D02*
X9170000Y1680000D01*
X9245000Y5685000D02*
X9275000Y5655000D01*
X9275000Y5685000D02*
X9245000Y5655000D01*
X9275000Y4895000D02*
X9305000Y4865000D01*
X9305000Y4895000D02*
X9275000Y4865000D01*
X9285000Y4565000D02*
X9315000Y4535000D01*
X9315000Y4565000D02*
X9285000Y4535000D01*
X9285000Y2215000D02*
X9315000Y2185000D01*
X9315000Y2215000D02*
X9285000Y2185000D01*
X9295000Y3855000D02*
X9325000Y3825000D01*
X9325000Y3855000D02*
X9295000Y3825000D01*
X9295000Y3155000D02*
X9325000Y3125000D01*
X9325000Y3155000D02*
X9295000Y3125000D01*
X9345000Y7455000D02*
X9375000Y7425000D01*
X9375000Y7455000D02*
X9345000Y7425000D01*
X9365000Y1805000D02*
X9395000Y1775000D01*
X9395000Y1805000D02*
X9365000Y1775000D01*
X9375000Y6065000D02*
X9405000Y6035000D01*
X9405000Y6065000D02*
X9375000Y6035000D01*
X9425000Y5515000D02*
X9455000Y5485000D01*
X9455000Y5515000D02*
X9425000Y5485000D01*
X9495000Y1770000D02*
X9525000Y1740000D01*
X9525000Y1770000D02*
X9495000Y1740000D01*
X9505000Y6065000D02*
X9535000Y6035000D01*
X9535000Y6065000D02*
X9505000Y6035000D01*
X9570000Y1710000D02*
X9600000Y1680000D01*
X9600000Y1710000D02*
X9570000Y1680000D01*
X9585000Y2445000D02*
X9615000Y2415000D01*
X9615000Y2445000D02*
X9585000Y2415000D01*
X9605000Y5705000D02*
X9635000Y5675000D01*
X9635000Y5705000D02*
X9605000Y5675000D01*
X9615000Y6945000D02*
X9645000Y6915000D01*
X9645000Y6945000D02*
X9615000Y6915000D01*
X9615000Y6595000D02*
X9645000Y6565000D01*
X9645000Y6595000D02*
X9615000Y6565000D01*
X9645000Y1770000D02*
X9675000Y1740000D01*
X9675000Y1770000D02*
X9645000Y1740000D01*
X9665000Y5245000D02*
X9695000Y5215000D01*
X9695000Y5245000D02*
X9665000Y5215000D01*
X9775000Y3845000D02*
X9805000Y3815000D01*
X9805000Y3845000D02*
X9775000Y3815000D01*
X9775000Y3155000D02*
X9805000Y3125000D01*
X9805000Y3155000D02*
X9775000Y3125000D01*
X9785000Y4565000D02*
X9815000Y4535000D01*
X9815000Y4565000D02*
X9785000Y4535000D01*
X9855000Y2445000D02*
X9885000Y2415000D01*
X9885000Y2445000D02*
X9855000Y2415000D01*
X9865000Y5455000D02*
X9895000Y5425000D01*
X9895000Y5455000D02*
X9865000Y5425000D01*
X9865000Y2205000D02*
X9895000Y2175000D01*
X9895000Y2205000D02*
X9865000Y2175000D01*
X9865000Y1905000D02*
X9895000Y1875000D01*
X9895000Y1905000D02*
X9865000Y1875000D01*
X10235000Y7995000D02*
X10265000Y7965000D01*
X10265000Y7995000D02*
X10235000Y7965000D01*
X10235000Y7865000D02*
X10265000Y7835000D01*
X10265000Y7865000D02*
X10235000Y7835000D01*
X10235000Y7735000D02*
X10265000Y7705000D01*
X10265000Y7735000D02*
X10235000Y7705000D01*
X10235000Y7615000D02*
X10265000Y7585000D01*
X10265000Y7615000D02*
X10235000Y7585000D01*
X10235000Y7485000D02*
X10265000Y7455000D01*
X10265000Y7485000D02*
X10235000Y7455000D01*
X10235000Y7355000D02*
X10265000Y7325000D01*
X10265000Y7355000D02*
X10235000Y7325000D01*
X10235000Y7225000D02*
X10265000Y7195000D01*
X10265000Y7225000D02*
X10235000Y7195000D01*
X10235000Y7105000D02*
X10265000Y7075000D01*
X10265000Y7105000D02*
X10235000Y7075000D01*
X10235000Y6975000D02*
X10265000Y6945000D01*
X10265000Y6975000D02*
X10235000Y6945000D01*
X10245000Y6335000D02*
X10275000Y6305000D01*
X10275000Y6335000D02*
X10245000Y6305000D01*
X10245000Y4765000D02*
X10275000Y4735000D01*
X10275000Y4765000D02*
X10245000Y4735000D01*
X10245000Y2445000D02*
X10275000Y2415000D01*
X10275000Y2445000D02*
X10245000Y2415000D01*
X10245000Y2205000D02*
X10275000Y2175000D01*
X10275000Y2205000D02*
X10245000Y2175000D01*
X10245000Y1915000D02*
X10275000Y1885000D01*
X10275000Y1915000D02*
X10245000Y1885000D01*
X10385000Y5695000D02*
X10415000Y5665000D01*
X10415000Y5695000D02*
X10385000Y5665000D01*
X10385000Y5215000D02*
X10415000Y5185000D01*
X10415000Y5215000D02*
X10385000Y5185000D01*
X10385000Y4535000D02*
X10415000Y4505000D01*
X10415000Y4535000D02*
X10385000Y4505000D01*
X10385000Y4015000D02*
X10415000Y3985000D01*
X10415000Y4015000D02*
X10385000Y3985000D01*
X10385000Y3475000D02*
X10415000Y3445000D01*
X10415000Y3475000D02*
X10385000Y3445000D01*
X10385000Y2985000D02*
X10415000Y2955000D01*
X10415000Y2985000D02*
X10385000Y2955000D01*
X10395000Y6405000D02*
X10425000Y6375000D01*
X10425000Y6405000D02*
X10395000Y6375000D01*
X10485000Y7615000D02*
X10515000Y7585000D01*
X10515000Y7615000D02*
X10485000Y7585000D01*
X10545000Y2445000D02*
X10575000Y2415000D01*
X10575000Y2445000D02*
X10545000Y2415000D01*
X10545000Y2205000D02*
X10575000Y2175000D01*
X10575000Y2205000D02*
X10545000Y2175000D01*
X10565000Y1355000D02*
X10595000Y1325000D01*
X10595000Y1355000D02*
X10565000Y1325000D01*
X10585000Y8615000D02*
X10615000Y8585000D01*
X10615000Y8615000D02*
X10585000Y8585000D01*
X10755000Y1075000D02*
X10785000Y1045000D01*
X10785000Y1075000D02*
X10755000Y1045000D01*
X10825000Y1625000D02*
X10855000Y1595000D01*
X10855000Y1625000D02*
X10825000Y1595000D01*
X10905000Y7915000D02*
X10935000Y7885000D01*
X10935000Y7915000D02*
X10905000Y7885000D01*
X10955000Y375000D02*
X10985000Y345000D01*
X10985000Y375000D02*
X10955000Y345000D01*
X10975000Y8715000D02*
X11005000Y8685000D01*
X11005000Y8715000D02*
X10975000Y8685000D01*
X10975000Y8445000D02*
X11005000Y8415000D01*
X11005000Y8445000D02*
X10975000Y8415000D01*
X11185000Y6015000D02*
X11215000Y5985000D01*
X11215000Y6015000D02*
X11185000Y5985000D01*
X11185000Y5205000D02*
X11215000Y5175000D01*
X11215000Y5205000D02*
X11185000Y5175000D01*
X11185000Y4015000D02*
X11215000Y3985000D01*
X11215000Y4015000D02*
X11185000Y3985000D01*
X11185000Y3455000D02*
X11215000Y3425000D01*
X11215000Y3455000D02*
X11185000Y3425000D01*
X11185000Y3015000D02*
X11215000Y2985000D01*
X11215000Y3015000D02*
X11185000Y2985000D01*
X11185000Y2205000D02*
X11215000Y2175000D01*
X11215000Y2205000D02*
X11185000Y2175000D01*
X11185000Y1885000D02*
X11215000Y1855000D01*
X11215000Y1885000D02*
X11185000Y1855000D01*
X11285000Y2615000D02*
X11315000Y2585000D01*
X11315000Y2615000D02*
X11285000Y2585000D01*
X11335000Y2325000D02*
X11365000Y2295000D01*
X11365000Y2325000D02*
X11335000Y2295000D01*
X11375000Y8705000D02*
X11405000Y8675000D01*
X11405000Y8705000D02*
X11375000Y8675000D01*
X11375000Y8445000D02*
X11405000Y8415000D01*
X11405000Y8445000D02*
X11375000Y8415000D01*
X11385000Y3495000D02*
X11415000Y3465000D01*
X11415000Y3495000D02*
X11385000Y3465000D01*
X11395000Y3805000D02*
X11425000Y3775000D01*
X11425000Y3805000D02*
X11395000Y3775000D01*
X11445000Y5445000D02*
X11475000Y5415000D01*
X11475000Y5445000D02*
X11445000Y5415000D01*
X11485000Y7315000D02*
X11515000Y7285000D01*
X11515000Y7315000D02*
X11485000Y7285000D01*
X11495000Y4875000D02*
X11525000Y4845000D01*
X11525000Y4875000D02*
X11495000Y4845000D01*
X11505000Y2085000D02*
X11535000Y2055000D01*
X11535000Y2085000D02*
X11505000Y2055000D01*
X11515000Y7075000D02*
X11545000Y7045000D01*
X11545000Y7075000D02*
X11515000Y7045000D01*
X11585000Y795000D02*
X11615000Y765000D01*
X11615000Y795000D02*
X11585000Y765000D01*
X11585000Y375000D02*
X11615000Y345000D01*
X11615000Y375000D02*
X11585000Y345000D01*
X11595000Y8595000D02*
X11625000Y8565000D01*
X11625000Y8595000D02*
X11595000Y8565000D01*
X11605000Y2205000D02*
X11635000Y2175000D01*
X11635000Y2205000D02*
X11605000Y2175000D01*
X11605000Y1885000D02*
X11635000Y1855000D01*
X11635000Y1885000D02*
X11605000Y1855000D01*
X11605000Y1605000D02*
X11635000Y1575000D01*
X11635000Y1605000D02*
X11605000Y1575000D01*
X11695000Y4255000D02*
X11725000Y4225000D01*
X11725000Y4255000D02*
X11695000Y4225000D01*
X11795000Y3185000D02*
X11825000Y3155000D01*
X11825000Y3185000D02*
X11795000Y3155000D01*
X11835000Y6265000D02*
X11865000Y6235000D01*
X11865000Y6265000D02*
X11835000Y6235000D01*
X11835000Y5885000D02*
X11865000Y5855000D01*
X11865000Y5885000D02*
X11835000Y5855000D01*
X11835000Y5445000D02*
X11865000Y5415000D01*
X11865000Y5445000D02*
X11835000Y5415000D01*
X11845000Y8445000D02*
X11875000Y8415000D01*
X11875000Y8445000D02*
X11845000Y8415000D01*
X11865000Y7315000D02*
X11895000Y7285000D01*
X11895000Y7315000D02*
X11865000Y7285000D01*
X11865000Y6965000D02*
X11895000Y6935000D01*
X11895000Y6965000D02*
X11865000Y6935000D01*
X11985000Y2615000D02*
X12015000Y2585000D01*
X12015000Y2615000D02*
X11985000Y2585000D01*
X12075000Y8705000D02*
X12105000Y8675000D01*
X12105000Y8705000D02*
X12075000Y8675000D01*
X12085000Y3215000D02*
X12115000Y3185000D01*
X12115000Y3215000D02*
X12085000Y3185000D01*
X12185000Y1615000D02*
X12215000Y1585000D01*
X12215000Y1615000D02*
X12185000Y1585000D01*
X12185000Y795000D02*
X12215000Y765000D01*
X12215000Y795000D02*
X12185000Y765000D01*
X12185000Y375000D02*
X12215000Y345000D01*
X12215000Y375000D02*
X12185000Y345000D01*
X12295000Y8445000D02*
X12325000Y8415000D01*
X12325000Y8445000D02*
X12295000Y8415000D01*
X12295000Y8175000D02*
X12325000Y8145000D01*
X12325000Y8175000D02*
X12295000Y8145000D01*
X12365000Y4555000D02*
X12395000Y4525000D01*
X12395000Y4555000D02*
X12365000Y4525000D01*
X12465000Y7465000D02*
X12495000Y7435000D01*
X12495000Y7465000D02*
X12465000Y7435000D01*
X12475000Y3905000D02*
X12505000Y3875000D01*
X12505000Y3905000D02*
X12475000Y3875000D01*
X12535000Y2615000D02*
X12565000Y2585000D01*
X12565000Y2615000D02*
X12535000Y2585000D01*
X12615000Y2935000D02*
X12645000Y2905000D01*
X12645000Y2935000D02*
X12615000Y2905000D01*
X12685000Y7165000D02*
X12715000Y7135000D01*
X12715000Y7165000D02*
X12685000Y7135000D01*
X12695000Y5995000D02*
X12725000Y5965000D01*
X12725000Y5995000D02*
X12695000Y5965000D01*
X12695000Y5675000D02*
X12725000Y5645000D01*
X12725000Y5675000D02*
X12695000Y5645000D01*
X12785000Y2065000D02*
X12815000Y2035000D01*
X12815000Y2065000D02*
X12785000Y2035000D01*
X12805000Y3905000D02*
X12835000Y3875000D01*
X12835000Y3905000D02*
X12805000Y3875000D01*
X12835000Y7475000D02*
X12865000Y7445000D01*
X12865000Y7475000D02*
X12835000Y7445000D01*
X13020000Y3530000D02*
X13050000Y3500000D01*
X13050000Y3530000D02*
X13020000Y3500000D01*
X13155000Y3905000D02*
X13185000Y3875000D01*
X13185000Y3905000D02*
X13155000Y3875000D01*
X13155000Y3315000D02*
X13185000Y3285000D01*
X13185000Y3315000D02*
X13155000Y3285000D01*
X13225000Y5995000D02*
X13255000Y5965000D01*
X13255000Y5995000D02*
X13225000Y5965000D01*
D13*
X186450Y2832000D02*
G75*
G03*
X186450Y2832000I-30000J0D01*
G01*
D11*
X216450Y2862000D02*
X96450Y2862000D01*
X96450Y2862000D02*
G75*
G03*
X96450Y2802000I0J-30000D01*
G01*
X96450Y2802000D02*
X216450Y2802000D01*
X216450Y2802000D02*
G75*
G03*
X216450Y2862000I0J30000D01*
G01*
D13*
X186450Y1968000D02*
G75*
G03*
X186450Y1968000I-30000J0D01*
G01*
D11*
X216450Y1998000D02*
X96450Y1998000D01*
X96450Y1998000D02*
G75*
G03*
X96450Y1938000I0J-30000D01*
G01*
X96450Y1938000D02*
X216450Y1938000D01*
X216450Y1938000D02*
G75*
G03*
X216450Y1998000I0J30000D01*
G01*
D13*
X586450Y2832000D02*
G75*
G03*
X586450Y2832000I-30000J0D01*
G01*
D11*
X596450Y2862000D02*
X516450Y2862000D01*
X516450Y2862000D02*
G75*
G03*
X516450Y2802000I0J-30000D01*
G01*
X516450Y2802000D02*
X596450Y2802000D01*
X596450Y2802000D02*
G75*
G03*
X596450Y2862000I0J30000D01*
G01*
D13*
X586450Y1968000D02*
G75*
G03*
X586450Y1968000I-30000J0D01*
G01*
D11*
X596450Y1998000D02*
X516450Y1998000D01*
X516450Y1998000D02*
G75*
G03*
X516450Y1938000I0J-30000D01*
G01*
X516450Y1938000D02*
X596450Y1938000D01*
X596450Y1938000D02*
G75*
G03*
X596450Y1998000I0J30000D01*
G01*
D13*
X12880000Y3032000D02*
G75*
G03*
X12880000Y3032000I-30000J0D01*
G01*
D11*
X12810000Y3002000D02*
X12890000Y3002000D01*
X12890000Y3002000D02*
G75*
G03*
X12890000Y3062000I0J30000D01*
G01*
X12890000Y3062000D02*
X12810000Y3062000D01*
X12810000Y3062000D02*
G75*
G03*
X12810000Y3002000I0J-30000D01*
G01*
D13*
X12880000Y2168000D02*
G75*
G03*
X12880000Y2168000I-30000J0D01*
G01*
D11*
X12810000Y2138000D02*
X12890000Y2138000D01*
X12890000Y2138000D02*
G75*
G03*
X12890000Y2198000I0J30000D01*
G01*
X12890000Y2198000D02*
X12810000Y2198000D01*
X12810000Y2198000D02*
G75*
G03*
X12810000Y2138000I0J-30000D01*
G01*
D13*
X13280000Y3032000D02*
G75*
G03*
X13280000Y3032000I-30000J0D01*
G01*
D11*
X13190000Y3002000D02*
X13310000Y3002000D01*
X13310000Y3002000D02*
G75*
G03*
X13310000Y3062000I0J30000D01*
G01*
X13310000Y3062000D02*
X13190000Y3062000D01*
X13190000Y3062000D02*
G75*
G03*
X13190000Y3002000I0J-30000D01*
G01*
D13*
X13280000Y2168000D02*
G75*
G03*
X13280000Y2168000I-30000J0D01*
G01*
D11*
X13190000Y2138000D02*
X13310000Y2138000D01*
X13310000Y2138000D02*
G75*
G03*
X13310000Y2198000I0J30000D01*
G01*
X13310000Y2198000D02*
X13190000Y2198000D01*
X13190000Y2198000D02*
G75*
G03*
X13190000Y2138000I0J-30000D01*
G01*
D10*
X150000Y5530000D02*
X150000Y5430000D01*
X100000Y5480000D02*
X200000Y5480000D01*
D11*
X200000Y5420000D02*
X200000Y5540000D01*
X200000Y5540000D02*
G75*
G03*
X100000Y5540000I-50000J0D01*
G01*
X100000Y5540000D02*
X100000Y5420000D01*
X100000Y5420000D02*
G75*
G03*
X200000Y5420000I50000J0D01*
G01*
D10*
X930000Y5530000D02*
X930000Y5430000D01*
X880000Y5480000D02*
X980000Y5480000D01*
D11*
X980000Y5420000D02*
X980000Y5540000D01*
X980000Y5540000D02*
G75*
G03*
X880000Y5540000I-50000J0D01*
G01*
X880000Y5540000D02*
X880000Y5420000D01*
X880000Y5420000D02*
G75*
G03*
X980000Y5420000I50000J0D01*
G01*
D14*
X463138Y8336862D02*
X463138Y8563138D01*
X236862Y8563138D01*
X236862Y8336862D01*
X463138Y8336862D01*
X463138Y236862D02*
X463138Y463138D01*
X236862Y463138D01*
X236862Y236862D01*
X463138Y236862D01*
X13163138Y8336862D02*
X13163138Y8563138D01*
X12936862Y8563138D01*
X12936862Y8336862D01*
X13163138Y8336862D01*
X13163138Y236862D02*
X13163138Y463138D01*
X12936862Y463138D01*
X12936862Y236862D01*
X13163138Y236862D01*
D11*
X255777Y-316484D02*
X255777Y-116484D01*
X255777Y-116484D02*
X303396Y-116484D01*
X303396Y-116484D02*
X331967Y-126008D01*
X331967Y-126008D02*
X351015Y-145055D01*
X351015Y-145055D02*
X360539Y-164103D01*
X360539Y-164103D02*
X370062Y-202198D01*
X370062Y-202198D02*
X370062Y-230769D01*
X370062Y-230769D02*
X360539Y-268865D01*
X360539Y-268865D02*
X351015Y-287912D01*
X351015Y-287912D02*
X331967Y-306960D01*
X331967Y-306960D02*
X303396Y-316484D01*
X303396Y-316484D02*
X255777Y-316484D01*
X455777Y-316484D02*
X455777Y-183150D01*
X455777Y-221246D02*
X465301Y-202198D01*
X465301Y-202198D02*
X474824Y-192674D01*
X474824Y-192674D02*
X493872Y-183150D01*
X493872Y-183150D02*
X512920Y-183150D01*
X579586Y-316484D02*
X579586Y-183150D01*
X579586Y-116484D02*
X570063Y-126008D01*
X570063Y-126008D02*
X579586Y-135531D01*
X579586Y-135531D02*
X589110Y-126008D01*
X589110Y-126008D02*
X579586Y-116484D01*
X579586Y-116484D02*
X579586Y-135531D01*
X703396Y-316484D02*
X684348Y-306960D01*
X684348Y-306960D02*
X674824Y-287912D01*
X674824Y-287912D02*
X674824Y-116484D01*
X808158Y-316484D02*
X789110Y-306960D01*
X789110Y-306960D02*
X779586Y-287912D01*
X779586Y-287912D02*
X779586Y-116484D01*
X1036729Y-316484D02*
X1036729Y-116484D01*
X1036729Y-116484D02*
X1103396Y-259341D01*
X1103396Y-259341D02*
X1170063Y-116484D01*
X1170063Y-116484D02*
X1170063Y-316484D01*
X1351015Y-316484D02*
X1351015Y-211722D01*
X1351015Y-211722D02*
X1341491Y-192674D01*
X1341491Y-192674D02*
X1322444Y-183150D01*
X1322444Y-183150D02*
X1284348Y-183150D01*
X1284348Y-183150D02*
X1265301Y-192674D01*
X1351015Y-306960D02*
X1331967Y-316484D01*
X1331967Y-316484D02*
X1284348Y-316484D01*
X1284348Y-316484D02*
X1265301Y-306960D01*
X1265301Y-306960D02*
X1255777Y-287912D01*
X1255777Y-287912D02*
X1255777Y-268865D01*
X1255777Y-268865D02*
X1265301Y-249817D01*
X1265301Y-249817D02*
X1284348Y-240293D01*
X1284348Y-240293D02*
X1331967Y-240293D01*
X1331967Y-240293D02*
X1351015Y-230769D01*
X1446253Y-183150D02*
X1446253Y-383150D01*
X1446253Y-192674D02*
X1465301Y-183150D01*
X1465301Y-183150D02*
X1503396Y-183150D01*
X1503396Y-183150D02*
X1522443Y-192674D01*
X1522443Y-192674D02*
X1531967Y-202198D01*
X1531967Y-202198D02*
X1541491Y-221246D01*
X1541491Y-221246D02*
X1541491Y-278389D01*
X1541491Y-278389D02*
X1531967Y-297436D01*
X1531967Y-297436D02*
X1522443Y-306960D01*
X1522443Y-306960D02*
X1503396Y-316484D01*
X1503396Y-316484D02*
X1465301Y-316484D01*
X1465301Y-316484D02*
X1446253Y-306960D01*
X1627205Y-297436D02*
X1636729Y-306960D01*
X1636729Y-306960D02*
X1627205Y-316484D01*
X1627205Y-316484D02*
X1617682Y-306960D01*
X1617682Y-306960D02*
X1627205Y-297436D01*
X1627205Y-297436D02*
X1627205Y-316484D01*
X1627205Y-192674D02*
X1636729Y-202198D01*
X1636729Y-202198D02*
X1627205Y-211722D01*
X1627205Y-211722D02*
X1617682Y-202198D01*
X1617682Y-202198D02*
X1627205Y-192674D01*
X1627205Y-192674D02*
X1627205Y-211722D01*
D12*
X-35000Y-630000D02*
X-5000Y-660000D01*
X-5000Y-630000D02*
X-35000Y-660000D01*
D11*
X293872Y-536484D02*
X312920Y-536484D01*
X312920Y-536484D02*
X331967Y-546008D01*
X331967Y-546008D02*
X341491Y-555531D01*
X341491Y-555531D02*
X351015Y-574579D01*
X351015Y-574579D02*
X360539Y-612674D01*
X360539Y-612674D02*
X360539Y-660293D01*
X360539Y-660293D02*
X351015Y-698389D01*
X351015Y-698389D02*
X341491Y-717436D01*
X341491Y-717436D02*
X331967Y-726960D01*
X331967Y-726960D02*
X312920Y-736484D01*
X312920Y-736484D02*
X293872Y-736484D01*
X293872Y-736484D02*
X274824Y-726960D01*
X274824Y-726960D02*
X265301Y-717436D01*
X265301Y-717436D02*
X255777Y-698389D01*
X255777Y-698389D02*
X246253Y-660293D01*
X246253Y-660293D02*
X246253Y-612674D01*
X246253Y-612674D02*
X255777Y-574579D01*
X255777Y-574579D02*
X265301Y-555531D01*
X265301Y-555531D02*
X274824Y-546008D01*
X274824Y-546008D02*
X293872Y-536484D01*
X446253Y-717436D02*
X455777Y-726960D01*
X455777Y-726960D02*
X446253Y-736484D01*
X446253Y-736484D02*
X436729Y-726960D01*
X436729Y-726960D02*
X446253Y-717436D01*
X446253Y-717436D02*
X446253Y-736484D01*
X522443Y-536484D02*
X646253Y-536484D01*
X646253Y-536484D02*
X579586Y-612674D01*
X579586Y-612674D02*
X608158Y-612674D01*
X608158Y-612674D02*
X627205Y-622198D01*
X627205Y-622198D02*
X636729Y-631722D01*
X636729Y-631722D02*
X646253Y-650770D01*
X646253Y-650770D02*
X646253Y-698389D01*
X646253Y-698389D02*
X636729Y-717436D01*
X636729Y-717436D02*
X627205Y-726960D01*
X627205Y-726960D02*
X608158Y-736484D01*
X608158Y-736484D02*
X551015Y-736484D01*
X551015Y-736484D02*
X531967Y-726960D01*
X531967Y-726960D02*
X522443Y-717436D01*
X770062Y-536484D02*
X789110Y-536484D01*
X789110Y-536484D02*
X808158Y-546008D01*
X808158Y-546008D02*
X817682Y-555531D01*
X817682Y-555531D02*
X827205Y-574579D01*
X827205Y-574579D02*
X836729Y-612674D01*
X836729Y-612674D02*
X836729Y-660293D01*
X836729Y-660293D02*
X827205Y-698389D01*
X827205Y-698389D02*
X817682Y-717436D01*
X817682Y-717436D02*
X808158Y-726960D01*
X808158Y-726960D02*
X789110Y-736484D01*
X789110Y-736484D02*
X770062Y-736484D01*
X770062Y-736484D02*
X751015Y-726960D01*
X751015Y-726960D02*
X741491Y-717436D01*
X741491Y-717436D02*
X731967Y-698389D01*
X731967Y-698389D02*
X722443Y-660293D01*
X722443Y-660293D02*
X722443Y-612674D01*
X722443Y-612674D02*
X731967Y-574579D01*
X731967Y-574579D02*
X741491Y-555531D01*
X741491Y-555531D02*
X751015Y-546008D01*
X751015Y-546008D02*
X770062Y-536484D01*
X960539Y-536484D02*
X979586Y-536484D01*
X979586Y-536484D02*
X998634Y-546008D01*
X998634Y-546008D02*
X1008158Y-555531D01*
X1008158Y-555531D02*
X1017682Y-574579D01*
X1017682Y-574579D02*
X1027205Y-612674D01*
X1027205Y-612674D02*
X1027205Y-660293D01*
X1027205Y-660293D02*
X1017682Y-698389D01*
X1017682Y-698389D02*
X1008158Y-717436D01*
X1008158Y-717436D02*
X998634Y-726960D01*
X998634Y-726960D02*
X979586Y-736484D01*
X979586Y-736484D02*
X960539Y-736484D01*
X960539Y-736484D02*
X941491Y-726960D01*
X941491Y-726960D02*
X931967Y-717436D01*
X931967Y-717436D02*
X922443Y-698389D01*
X922443Y-698389D02*
X912920Y-660293D01*
X912920Y-660293D02*
X912920Y-612674D01*
X912920Y-612674D02*
X922443Y-574579D01*
X922443Y-574579D02*
X931967Y-555531D01*
X931967Y-555531D02*
X941491Y-546008D01*
X941491Y-546008D02*
X960539Y-536484D01*
X1112920Y-736484D02*
X1112920Y-603150D01*
X1112920Y-622198D02*
X1122444Y-612674D01*
X1122444Y-612674D02*
X1141491Y-603150D01*
X1141491Y-603150D02*
X1170063Y-603150D01*
X1170063Y-603150D02*
X1189110Y-612674D01*
X1189110Y-612674D02*
X1198634Y-631722D01*
X1198634Y-631722D02*
X1198634Y-736484D01*
X1198634Y-631722D02*
X1208158Y-612674D01*
X1208158Y-612674D02*
X1227205Y-603150D01*
X1227205Y-603150D02*
X1255777Y-603150D01*
X1255777Y-603150D02*
X1274825Y-612674D01*
X1274825Y-612674D02*
X1284348Y-631722D01*
X1284348Y-631722D02*
X1284348Y-736484D01*
X1379586Y-736484D02*
X1379586Y-603150D01*
X1379586Y-622198D02*
X1389110Y-612674D01*
X1389110Y-612674D02*
X1408158Y-603150D01*
X1408158Y-603150D02*
X1436729Y-603150D01*
X1436729Y-603150D02*
X1455777Y-612674D01*
X1455777Y-612674D02*
X1465301Y-631722D01*
X1465301Y-631722D02*
X1465301Y-736484D01*
X1465301Y-631722D02*
X1474824Y-612674D01*
X1474824Y-612674D02*
X1493872Y-603150D01*
X1493872Y-603150D02*
X1522443Y-603150D01*
X1522443Y-603150D02*
X1541491Y-612674D01*
X1541491Y-612674D02*
X1551015Y-631722D01*
X1551015Y-631722D02*
X1551015Y-736484D01*
X1941491Y-526960D02*
X1770063Y-784103D01*
X2198634Y-536484D02*
X2217682Y-536484D01*
X2217682Y-536484D02*
X2236729Y-546008D01*
X2236729Y-546008D02*
X2246253Y-555531D01*
X2246253Y-555531D02*
X2255777Y-574579D01*
X2255777Y-574579D02*
X2265301Y-612674D01*
X2265301Y-612674D02*
X2265301Y-660293D01*
X2265301Y-660293D02*
X2255777Y-698389D01*
X2255777Y-698389D02*
X2246253Y-717436D01*
X2246253Y-717436D02*
X2236729Y-726960D01*
X2236729Y-726960D02*
X2217682Y-736484D01*
X2217682Y-736484D02*
X2198634Y-736484D01*
X2198634Y-736484D02*
X2179587Y-726960D01*
X2179587Y-726960D02*
X2170063Y-717436D01*
X2170063Y-717436D02*
X2160539Y-698389D01*
X2160539Y-698389D02*
X2151015Y-660293D01*
X2151015Y-660293D02*
X2151015Y-612674D01*
X2151015Y-612674D02*
X2160539Y-574579D01*
X2160539Y-574579D02*
X2170063Y-555531D01*
X2170063Y-555531D02*
X2179587Y-546008D01*
X2179587Y-546008D02*
X2198634Y-536484D01*
X2351015Y-717436D02*
X2360539Y-726960D01*
X2360539Y-726960D02*
X2351015Y-736484D01*
X2351015Y-736484D02*
X2341491Y-726960D01*
X2341491Y-726960D02*
X2351015Y-717436D01*
X2351015Y-717436D02*
X2351015Y-736484D01*
X2484348Y-536484D02*
X2503396Y-536484D01*
X2503396Y-536484D02*
X2522444Y-546008D01*
X2522444Y-546008D02*
X2531968Y-555531D01*
X2531968Y-555531D02*
X2541491Y-574579D01*
X2541491Y-574579D02*
X2551015Y-612674D01*
X2551015Y-612674D02*
X2551015Y-660293D01*
X2551015Y-660293D02*
X2541491Y-698389D01*
X2541491Y-698389D02*
X2531968Y-717436D01*
X2531968Y-717436D02*
X2522444Y-726960D01*
X2522444Y-726960D02*
X2503396Y-736484D01*
X2503396Y-736484D02*
X2484348Y-736484D01*
X2484348Y-736484D02*
X2465301Y-726960D01*
X2465301Y-726960D02*
X2455777Y-717436D01*
X2455777Y-717436D02*
X2446253Y-698389D01*
X2446253Y-698389D02*
X2436729Y-660293D01*
X2436729Y-660293D02*
X2436729Y-612674D01*
X2436729Y-612674D02*
X2446253Y-574579D01*
X2446253Y-574579D02*
X2455777Y-555531D01*
X2455777Y-555531D02*
X2465301Y-546008D01*
X2465301Y-546008D02*
X2484348Y-536484D01*
X2741491Y-736484D02*
X2627206Y-736484D01*
X2684348Y-736484D02*
X2684348Y-536484D01*
X2684348Y-536484D02*
X2665301Y-565055D01*
X2665301Y-565055D02*
X2646253Y-584103D01*
X2646253Y-584103D02*
X2627206Y-593627D01*
X2931967Y-736484D02*
X2817682Y-736484D01*
X2874825Y-736484D02*
X2874825Y-536484D01*
X2874825Y-536484D02*
X2855777Y-565055D01*
X2855777Y-565055D02*
X2836729Y-584103D01*
X2836729Y-584103D02*
X2817682Y-593627D01*
X3046253Y-622198D02*
X3027206Y-612674D01*
X3027206Y-612674D02*
X3017682Y-603150D01*
X3017682Y-603150D02*
X3008158Y-584103D01*
X3008158Y-584103D02*
X3008158Y-574579D01*
X3008158Y-574579D02*
X3017682Y-555531D01*
X3017682Y-555531D02*
X3027206Y-546008D01*
X3027206Y-546008D02*
X3046253Y-536484D01*
X3046253Y-536484D02*
X3084348Y-536484D01*
X3084348Y-536484D02*
X3103396Y-546008D01*
X3103396Y-546008D02*
X3112920Y-555531D01*
X3112920Y-555531D02*
X3122444Y-574579D01*
X3122444Y-574579D02*
X3122444Y-584103D01*
X3122444Y-584103D02*
X3112920Y-603150D01*
X3112920Y-603150D02*
X3103396Y-612674D01*
X3103396Y-612674D02*
X3084348Y-622198D01*
X3084348Y-622198D02*
X3046253Y-622198D01*
X3046253Y-622198D02*
X3027206Y-631722D01*
X3027206Y-631722D02*
X3017682Y-641246D01*
X3017682Y-641246D02*
X3008158Y-660293D01*
X3008158Y-660293D02*
X3008158Y-698389D01*
X3008158Y-698389D02*
X3017682Y-717436D01*
X3017682Y-717436D02*
X3027206Y-726960D01*
X3027206Y-726960D02*
X3046253Y-736484D01*
X3046253Y-736484D02*
X3084348Y-736484D01*
X3084348Y-736484D02*
X3103396Y-726960D01*
X3103396Y-726960D02*
X3112920Y-717436D01*
X3112920Y-717436D02*
X3122444Y-698389D01*
X3122444Y-698389D02*
X3122444Y-660293D01*
X3122444Y-660293D02*
X3112920Y-641246D01*
X3112920Y-641246D02*
X3103396Y-631722D01*
X3103396Y-631722D02*
X3084348Y-622198D01*
X3198634Y-536484D02*
X3198634Y-574579D01*
X3274825Y-536484D02*
X3274825Y-574579D01*
X3570063Y-812674D02*
X3560539Y-803150D01*
X3560539Y-803150D02*
X3541491Y-774579D01*
X3541491Y-774579D02*
X3531968Y-755531D01*
X3531968Y-755531D02*
X3522444Y-726960D01*
X3522444Y-726960D02*
X3512920Y-679341D01*
X3512920Y-679341D02*
X3512920Y-641246D01*
X3512920Y-641246D02*
X3522444Y-593627D01*
X3522444Y-593627D02*
X3531968Y-565055D01*
X3531968Y-565055D02*
X3541491Y-546008D01*
X3541491Y-546008D02*
X3560539Y-517436D01*
X3560539Y-517436D02*
X3570063Y-507912D01*
X3731968Y-603150D02*
X3731968Y-736484D01*
X3684348Y-526960D02*
X3636729Y-669817D01*
X3636729Y-669817D02*
X3760539Y-669817D01*
X3817682Y-536484D02*
X3951015Y-536484D01*
X3951015Y-536484D02*
X3865301Y-736484D01*
X4131968Y-736484D02*
X4017682Y-736484D01*
X4074825Y-736484D02*
X4074825Y-536484D01*
X4074825Y-536484D02*
X4055777Y-565055D01*
X4055777Y-565055D02*
X4036729Y-584103D01*
X4036729Y-584103D02*
X4017682Y-593627D01*
X4370063Y-736484D02*
X4370063Y-536484D01*
X4455777Y-736484D02*
X4455777Y-631722D01*
X4455777Y-631722D02*
X4446253Y-612674D01*
X4446253Y-612674D02*
X4427206Y-603150D01*
X4427206Y-603150D02*
X4398634Y-603150D01*
X4398634Y-603150D02*
X4379587Y-612674D01*
X4379587Y-612674D02*
X4370063Y-622198D01*
X4579587Y-736484D02*
X4560539Y-726960D01*
X4560539Y-726960D02*
X4551015Y-717436D01*
X4551015Y-717436D02*
X4541492Y-698389D01*
X4541492Y-698389D02*
X4541492Y-641246D01*
X4541492Y-641246D02*
X4551015Y-622198D01*
X4551015Y-622198D02*
X4560539Y-612674D01*
X4560539Y-612674D02*
X4579587Y-603150D01*
X4579587Y-603150D02*
X4608158Y-603150D01*
X4608158Y-603150D02*
X4627206Y-612674D01*
X4627206Y-612674D02*
X4636730Y-622198D01*
X4636730Y-622198D02*
X4646253Y-641246D01*
X4646253Y-641246D02*
X4646253Y-698389D01*
X4646253Y-698389D02*
X4636730Y-717436D01*
X4636730Y-717436D02*
X4627206Y-726960D01*
X4627206Y-726960D02*
X4608158Y-736484D01*
X4608158Y-736484D02*
X4579587Y-736484D01*
X4760539Y-736484D02*
X4741492Y-726960D01*
X4741492Y-726960D02*
X4731968Y-707912D01*
X4731968Y-707912D02*
X4731968Y-536484D01*
X4912920Y-726960D02*
X4893873Y-736484D01*
X4893873Y-736484D02*
X4855777Y-736484D01*
X4855777Y-736484D02*
X4836730Y-726960D01*
X4836730Y-726960D02*
X4827206Y-707912D01*
X4827206Y-707912D02*
X4827206Y-631722D01*
X4827206Y-631722D02*
X4836730Y-612674D01*
X4836730Y-612674D02*
X4855777Y-603150D01*
X4855777Y-603150D02*
X4893873Y-603150D01*
X4893873Y-603150D02*
X4912920Y-612674D01*
X4912920Y-612674D02*
X4922444Y-631722D01*
X4922444Y-631722D02*
X4922444Y-650770D01*
X4922444Y-650770D02*
X4827206Y-669817D01*
X4998634Y-726960D02*
X5017682Y-736484D01*
X5017682Y-736484D02*
X5055777Y-736484D01*
X5055777Y-736484D02*
X5074825Y-726960D01*
X5074825Y-726960D02*
X5084349Y-707912D01*
X5084349Y-707912D02*
X5084349Y-698389D01*
X5084349Y-698389D02*
X5074825Y-679341D01*
X5074825Y-679341D02*
X5055777Y-669817D01*
X5055777Y-669817D02*
X5027206Y-669817D01*
X5027206Y-669817D02*
X5008158Y-660293D01*
X5008158Y-660293D02*
X4998634Y-641246D01*
X4998634Y-641246D02*
X4998634Y-631722D01*
X4998634Y-631722D02*
X5008158Y-612674D01*
X5008158Y-612674D02*
X5027206Y-603150D01*
X5027206Y-603150D02*
X5055777Y-603150D01*
X5055777Y-603150D02*
X5074825Y-612674D01*
X5151015Y-812674D02*
X5160539Y-803150D01*
X5160539Y-803150D02*
X5179587Y-774579D01*
X5179587Y-774579D02*
X5189111Y-755531D01*
X5189111Y-755531D02*
X5198634Y-726960D01*
X5198634Y-726960D02*
X5208158Y-679341D01*
X5208158Y-679341D02*
X5208158Y-641246D01*
X5208158Y-641246D02*
X5198634Y-593627D01*
X5198634Y-593627D02*
X5189111Y-565055D01*
X5189111Y-565055D02*
X5179587Y-546008D01*
X5179587Y-546008D02*
X5160539Y-517436D01*
X5160539Y-517436D02*
X5151015Y-507912D01*
D13*
X-5000Y-909000D02*
G75*
G03*
X-5000Y-909000I-30000J0D01*
G01*
D11*
X293872Y-800484D02*
X312920Y-800484D01*
X312920Y-800484D02*
X331967Y-810008D01*
X331967Y-810008D02*
X341491Y-819531D01*
X341491Y-819531D02*
X351015Y-838579D01*
X351015Y-838579D02*
X360539Y-876674D01*
X360539Y-876674D02*
X360539Y-924293D01*
X360539Y-924293D02*
X351015Y-962388D01*
X351015Y-962388D02*
X341491Y-981436D01*
X341491Y-981436D02*
X331967Y-990960D01*
X331967Y-990960D02*
X312920Y-1000484D01*
X312920Y-1000484D02*
X293872Y-1000484D01*
X293872Y-1000484D02*
X274824Y-990960D01*
X274824Y-990960D02*
X265301Y-981436D01*
X265301Y-981436D02*
X255777Y-962388D01*
X255777Y-962388D02*
X246253Y-924293D01*
X246253Y-924293D02*
X246253Y-876674D01*
X246253Y-876674D02*
X255777Y-838579D01*
X255777Y-838579D02*
X265301Y-819531D01*
X265301Y-819531D02*
X274824Y-810008D01*
X274824Y-810008D02*
X293872Y-800484D01*
X446253Y-981436D02*
X455777Y-990960D01*
X455777Y-990960D02*
X446253Y-1000484D01*
X446253Y-1000484D02*
X436729Y-990960D01*
X436729Y-990960D02*
X446253Y-981436D01*
X446253Y-981436D02*
X446253Y-1000484D01*
X627205Y-800484D02*
X589110Y-800484D01*
X589110Y-800484D02*
X570063Y-810008D01*
X570063Y-810008D02*
X560539Y-819531D01*
X560539Y-819531D02*
X541491Y-848103D01*
X541491Y-848103D02*
X531967Y-886198D01*
X531967Y-886198D02*
X531967Y-962388D01*
X531967Y-962388D02*
X541491Y-981436D01*
X541491Y-981436D02*
X551015Y-990960D01*
X551015Y-990960D02*
X570063Y-1000484D01*
X570063Y-1000484D02*
X608158Y-1000484D01*
X608158Y-1000484D02*
X627205Y-990960D01*
X627205Y-990960D02*
X636729Y-981436D01*
X636729Y-981436D02*
X646253Y-962388D01*
X646253Y-962388D02*
X646253Y-914769D01*
X646253Y-914769D02*
X636729Y-895722D01*
X636729Y-895722D02*
X627205Y-886198D01*
X627205Y-886198D02*
X608158Y-876674D01*
X608158Y-876674D02*
X570063Y-876674D01*
X570063Y-876674D02*
X551015Y-886198D01*
X551015Y-886198D02*
X541491Y-895722D01*
X541491Y-895722D02*
X531967Y-914769D01*
X770062Y-800484D02*
X789110Y-800484D01*
X789110Y-800484D02*
X808158Y-810008D01*
X808158Y-810008D02*
X817682Y-819531D01*
X817682Y-819531D02*
X827205Y-838579D01*
X827205Y-838579D02*
X836729Y-876674D01*
X836729Y-876674D02*
X836729Y-924293D01*
X836729Y-924293D02*
X827205Y-962388D01*
X827205Y-962388D02*
X817682Y-981436D01*
X817682Y-981436D02*
X808158Y-990960D01*
X808158Y-990960D02*
X789110Y-1000484D01*
X789110Y-1000484D02*
X770062Y-1000484D01*
X770062Y-1000484D02*
X751015Y-990960D01*
X751015Y-990960D02*
X741491Y-981436D01*
X741491Y-981436D02*
X731967Y-962388D01*
X731967Y-962388D02*
X722443Y-924293D01*
X722443Y-924293D02*
X722443Y-876674D01*
X722443Y-876674D02*
X731967Y-838579D01*
X731967Y-838579D02*
X741491Y-819531D01*
X741491Y-819531D02*
X751015Y-810008D01*
X751015Y-810008D02*
X770062Y-800484D01*
X960539Y-800484D02*
X979586Y-800484D01*
X979586Y-800484D02*
X998634Y-810008D01*
X998634Y-810008D02*
X1008158Y-819531D01*
X1008158Y-819531D02*
X1017682Y-838579D01*
X1017682Y-838579D02*
X1027205Y-876674D01*
X1027205Y-876674D02*
X1027205Y-924293D01*
X1027205Y-924293D02*
X1017682Y-962388D01*
X1017682Y-962388D02*
X1008158Y-981436D01*
X1008158Y-981436D02*
X998634Y-990960D01*
X998634Y-990960D02*
X979586Y-1000484D01*
X979586Y-1000484D02*
X960539Y-1000484D01*
X960539Y-1000484D02*
X941491Y-990960D01*
X941491Y-990960D02*
X931967Y-981436D01*
X931967Y-981436D02*
X922443Y-962388D01*
X922443Y-962388D02*
X912920Y-924293D01*
X912920Y-924293D02*
X912920Y-876674D01*
X912920Y-876674D02*
X922443Y-838579D01*
X922443Y-838579D02*
X931967Y-819531D01*
X931967Y-819531D02*
X941491Y-810008D01*
X941491Y-810008D02*
X960539Y-800484D01*
X1112920Y-1000484D02*
X1112920Y-867150D01*
X1112920Y-886198D02*
X1122444Y-876674D01*
X1122444Y-876674D02*
X1141491Y-867150D01*
X1141491Y-867150D02*
X1170063Y-867150D01*
X1170063Y-867150D02*
X1189110Y-876674D01*
X1189110Y-876674D02*
X1198634Y-895722D01*
X1198634Y-895722D02*
X1198634Y-1000484D01*
X1198634Y-895722D02*
X1208158Y-876674D01*
X1208158Y-876674D02*
X1227205Y-867150D01*
X1227205Y-867150D02*
X1255777Y-867150D01*
X1255777Y-867150D02*
X1274825Y-876674D01*
X1274825Y-876674D02*
X1284348Y-895722D01*
X1284348Y-895722D02*
X1284348Y-1000484D01*
X1379586Y-1000484D02*
X1379586Y-867150D01*
X1379586Y-886198D02*
X1389110Y-876674D01*
X1389110Y-876674D02*
X1408158Y-867150D01*
X1408158Y-867150D02*
X1436729Y-867150D01*
X1436729Y-867150D02*
X1455777Y-876674D01*
X1455777Y-876674D02*
X1465301Y-895722D01*
X1465301Y-895722D02*
X1465301Y-1000484D01*
X1465301Y-895722D02*
X1474824Y-876674D01*
X1474824Y-876674D02*
X1493872Y-867150D01*
X1493872Y-867150D02*
X1522443Y-867150D01*
X1522443Y-867150D02*
X1541491Y-876674D01*
X1541491Y-876674D02*
X1551015Y-895722D01*
X1551015Y-895722D02*
X1551015Y-1000484D01*
X1941491Y-790960D02*
X1770063Y-1048103D01*
X2198634Y-800484D02*
X2217682Y-800484D01*
X2217682Y-800484D02*
X2236729Y-810008D01*
X2236729Y-810008D02*
X2246253Y-819531D01*
X2246253Y-819531D02*
X2255777Y-838579D01*
X2255777Y-838579D02*
X2265301Y-876674D01*
X2265301Y-876674D02*
X2265301Y-924293D01*
X2265301Y-924293D02*
X2255777Y-962388D01*
X2255777Y-962388D02*
X2246253Y-981436D01*
X2246253Y-981436D02*
X2236729Y-990960D01*
X2236729Y-990960D02*
X2217682Y-1000484D01*
X2217682Y-1000484D02*
X2198634Y-1000484D01*
X2198634Y-1000484D02*
X2179587Y-990960D01*
X2179587Y-990960D02*
X2170063Y-981436D01*
X2170063Y-981436D02*
X2160539Y-962388D01*
X2160539Y-962388D02*
X2151015Y-924293D01*
X2151015Y-924293D02*
X2151015Y-876674D01*
X2151015Y-876674D02*
X2160539Y-838579D01*
X2160539Y-838579D02*
X2170063Y-819531D01*
X2170063Y-819531D02*
X2179587Y-810008D01*
X2179587Y-810008D02*
X2198634Y-800484D01*
X2351015Y-981436D02*
X2360539Y-990960D01*
X2360539Y-990960D02*
X2351015Y-1000484D01*
X2351015Y-1000484D02*
X2341491Y-990960D01*
X2341491Y-990960D02*
X2351015Y-981436D01*
X2351015Y-981436D02*
X2351015Y-1000484D01*
X2484348Y-800484D02*
X2503396Y-800484D01*
X2503396Y-800484D02*
X2522444Y-810008D01*
X2522444Y-810008D02*
X2531968Y-819531D01*
X2531968Y-819531D02*
X2541491Y-838579D01*
X2541491Y-838579D02*
X2551015Y-876674D01*
X2551015Y-876674D02*
X2551015Y-924293D01*
X2551015Y-924293D02*
X2541491Y-962388D01*
X2541491Y-962388D02*
X2531968Y-981436D01*
X2531968Y-981436D02*
X2522444Y-990960D01*
X2522444Y-990960D02*
X2503396Y-1000484D01*
X2503396Y-1000484D02*
X2484348Y-1000484D01*
X2484348Y-1000484D02*
X2465301Y-990960D01*
X2465301Y-990960D02*
X2455777Y-981436D01*
X2455777Y-981436D02*
X2446253Y-962388D01*
X2446253Y-962388D02*
X2436729Y-924293D01*
X2436729Y-924293D02*
X2436729Y-876674D01*
X2436729Y-876674D02*
X2446253Y-838579D01*
X2446253Y-838579D02*
X2455777Y-819531D01*
X2455777Y-819531D02*
X2465301Y-810008D01*
X2465301Y-810008D02*
X2484348Y-800484D01*
X2627206Y-819531D02*
X2636729Y-810008D01*
X2636729Y-810008D02*
X2655777Y-800484D01*
X2655777Y-800484D02*
X2703396Y-800484D01*
X2703396Y-800484D02*
X2722444Y-810008D01*
X2722444Y-810008D02*
X2731968Y-819531D01*
X2731968Y-819531D02*
X2741491Y-838579D01*
X2741491Y-838579D02*
X2741491Y-857627D01*
X2741491Y-857627D02*
X2731968Y-886198D01*
X2731968Y-886198D02*
X2617682Y-1000484D01*
X2617682Y-1000484D02*
X2741491Y-1000484D01*
X2808158Y-800484D02*
X2931967Y-800484D01*
X2931967Y-800484D02*
X2865301Y-876674D01*
X2865301Y-876674D02*
X2893872Y-876674D01*
X2893872Y-876674D02*
X2912920Y-886198D01*
X2912920Y-886198D02*
X2922444Y-895722D01*
X2922444Y-895722D02*
X2931967Y-914769D01*
X2931967Y-914769D02*
X2931967Y-962388D01*
X2931967Y-962388D02*
X2922444Y-981436D01*
X2922444Y-981436D02*
X2912920Y-990960D01*
X2912920Y-990960D02*
X2893872Y-1000484D01*
X2893872Y-1000484D02*
X2836729Y-1000484D01*
X2836729Y-1000484D02*
X2817682Y-990960D01*
X2817682Y-990960D02*
X2808158Y-981436D01*
X3103396Y-800484D02*
X3065301Y-800484D01*
X3065301Y-800484D02*
X3046253Y-810008D01*
X3046253Y-810008D02*
X3036729Y-819531D01*
X3036729Y-819531D02*
X3017682Y-848103D01*
X3017682Y-848103D02*
X3008158Y-886198D01*
X3008158Y-886198D02*
X3008158Y-962388D01*
X3008158Y-962388D02*
X3017682Y-981436D01*
X3017682Y-981436D02*
X3027206Y-990960D01*
X3027206Y-990960D02*
X3046253Y-1000484D01*
X3046253Y-1000484D02*
X3084348Y-1000484D01*
X3084348Y-1000484D02*
X3103396Y-990960D01*
X3103396Y-990960D02*
X3112920Y-981436D01*
X3112920Y-981436D02*
X3122444Y-962388D01*
X3122444Y-962388D02*
X3122444Y-914769D01*
X3122444Y-914769D02*
X3112920Y-895722D01*
X3112920Y-895722D02*
X3103396Y-886198D01*
X3103396Y-886198D02*
X3084348Y-876674D01*
X3084348Y-876674D02*
X3046253Y-876674D01*
X3046253Y-876674D02*
X3027206Y-886198D01*
X3027206Y-886198D02*
X3017682Y-895722D01*
X3017682Y-895722D02*
X3008158Y-914769D01*
X3198634Y-800484D02*
X3198634Y-838579D01*
X3274825Y-800484D02*
X3274825Y-838579D01*
X3570063Y-1076674D02*
X3560539Y-1067150D01*
X3560539Y-1067150D02*
X3541491Y-1038579D01*
X3541491Y-1038579D02*
X3531968Y-1019531D01*
X3531968Y-1019531D02*
X3522444Y-990960D01*
X3522444Y-990960D02*
X3512920Y-943341D01*
X3512920Y-943341D02*
X3512920Y-905246D01*
X3512920Y-905246D02*
X3522444Y-857627D01*
X3522444Y-857627D02*
X3531968Y-829055D01*
X3531968Y-829055D02*
X3541491Y-810008D01*
X3541491Y-810008D02*
X3560539Y-781436D01*
X3560539Y-781436D02*
X3570063Y-771912D01*
X3684348Y-800484D02*
X3703396Y-800484D01*
X3703396Y-800484D02*
X3722444Y-810008D01*
X3722444Y-810008D02*
X3731968Y-819531D01*
X3731968Y-819531D02*
X3741491Y-838579D01*
X3741491Y-838579D02*
X3751015Y-876674D01*
X3751015Y-876674D02*
X3751015Y-924293D01*
X3751015Y-924293D02*
X3741491Y-962388D01*
X3741491Y-962388D02*
X3731968Y-981436D01*
X3731968Y-981436D02*
X3722444Y-990960D01*
X3722444Y-990960D02*
X3703396Y-1000484D01*
X3703396Y-1000484D02*
X3684348Y-1000484D01*
X3684348Y-1000484D02*
X3665301Y-990960D01*
X3665301Y-990960D02*
X3655777Y-981436D01*
X3655777Y-981436D02*
X3646253Y-962388D01*
X3646253Y-962388D02*
X3636729Y-924293D01*
X3636729Y-924293D02*
X3636729Y-876674D01*
X3636729Y-876674D02*
X3646253Y-838579D01*
X3646253Y-838579D02*
X3655777Y-819531D01*
X3655777Y-819531D02*
X3665301Y-810008D01*
X3665301Y-810008D02*
X3684348Y-800484D01*
X3989110Y-1000484D02*
X3989110Y-800484D01*
X4074825Y-1000484D02*
X4074825Y-895722D01*
X4074825Y-895722D02*
X4065301Y-876674D01*
X4065301Y-876674D02*
X4046253Y-867150D01*
X4046253Y-867150D02*
X4017682Y-867150D01*
X4017682Y-867150D02*
X3998634Y-876674D01*
X3998634Y-876674D02*
X3989110Y-886198D01*
X4198634Y-1000484D02*
X4179587Y-990960D01*
X4179587Y-990960D02*
X4170063Y-981436D01*
X4170063Y-981436D02*
X4160539Y-962388D01*
X4160539Y-962388D02*
X4160539Y-905246D01*
X4160539Y-905246D02*
X4170063Y-886198D01*
X4170063Y-886198D02*
X4179587Y-876674D01*
X4179587Y-876674D02*
X4198634Y-867150D01*
X4198634Y-867150D02*
X4227206Y-867150D01*
X4227206Y-867150D02*
X4246253Y-876674D01*
X4246253Y-876674D02*
X4255777Y-886198D01*
X4255777Y-886198D02*
X4265301Y-905246D01*
X4265301Y-905246D02*
X4265301Y-962388D01*
X4265301Y-962388D02*
X4255777Y-981436D01*
X4255777Y-981436D02*
X4246253Y-990960D01*
X4246253Y-990960D02*
X4227206Y-1000484D01*
X4227206Y-1000484D02*
X4198634Y-1000484D01*
X4379587Y-1000484D02*
X4360539Y-990960D01*
X4360539Y-990960D02*
X4351015Y-971912D01*
X4351015Y-971912D02*
X4351015Y-800484D01*
X4531968Y-990960D02*
X4512920Y-1000484D01*
X4512920Y-1000484D02*
X4474825Y-1000484D01*
X4474825Y-1000484D02*
X4455777Y-990960D01*
X4455777Y-990960D02*
X4446253Y-971912D01*
X4446253Y-971912D02*
X4446253Y-895722D01*
X4446253Y-895722D02*
X4455777Y-876674D01*
X4455777Y-876674D02*
X4474825Y-867150D01*
X4474825Y-867150D02*
X4512920Y-867150D01*
X4512920Y-867150D02*
X4531968Y-876674D01*
X4531968Y-876674D02*
X4541492Y-895722D01*
X4541492Y-895722D02*
X4541492Y-914769D01*
X4541492Y-914769D02*
X4446253Y-933817D01*
X4617682Y-990960D02*
X4636730Y-1000484D01*
X4636730Y-1000484D02*
X4674825Y-1000484D01*
X4674825Y-1000484D02*
X4693873Y-990960D01*
X4693873Y-990960D02*
X4703396Y-971912D01*
X4703396Y-971912D02*
X4703396Y-962388D01*
X4703396Y-962388D02*
X4693873Y-943341D01*
X4693873Y-943341D02*
X4674825Y-933817D01*
X4674825Y-933817D02*
X4646253Y-933817D01*
X4646253Y-933817D02*
X4627206Y-924293D01*
X4627206Y-924293D02*
X4617682Y-905246D01*
X4617682Y-905246D02*
X4617682Y-895722D01*
X4617682Y-895722D02*
X4627206Y-876674D01*
X4627206Y-876674D02*
X4646253Y-867150D01*
X4646253Y-867150D02*
X4674825Y-867150D01*
X4674825Y-867150D02*
X4693873Y-876674D01*
X4941492Y-924293D02*
X5093873Y-924293D01*
X5017682Y-1000484D02*
X5017682Y-848103D01*
X5370063Y-886198D02*
X5351015Y-876674D01*
X5351015Y-876674D02*
X5341492Y-867150D01*
X5341492Y-867150D02*
X5331968Y-848103D01*
X5331968Y-848103D02*
X5331968Y-838579D01*
X5331968Y-838579D02*
X5341492Y-819531D01*
X5341492Y-819531D02*
X5351015Y-810008D01*
X5351015Y-810008D02*
X5370063Y-800484D01*
X5370063Y-800484D02*
X5408158Y-800484D01*
X5408158Y-800484D02*
X5427206Y-810008D01*
X5427206Y-810008D02*
X5436730Y-819531D01*
X5436730Y-819531D02*
X5446254Y-838579D01*
X5446254Y-838579D02*
X5446254Y-848103D01*
X5446254Y-848103D02*
X5436730Y-867150D01*
X5436730Y-867150D02*
X5427206Y-876674D01*
X5427206Y-876674D02*
X5408158Y-886198D01*
X5408158Y-886198D02*
X5370063Y-886198D01*
X5370063Y-886198D02*
X5351015Y-895722D01*
X5351015Y-895722D02*
X5341492Y-905246D01*
X5341492Y-905246D02*
X5331968Y-924293D01*
X5331968Y-924293D02*
X5331968Y-962388D01*
X5331968Y-962388D02*
X5341492Y-981436D01*
X5341492Y-981436D02*
X5351015Y-990960D01*
X5351015Y-990960D02*
X5370063Y-1000484D01*
X5370063Y-1000484D02*
X5408158Y-1000484D01*
X5408158Y-1000484D02*
X5427206Y-990960D01*
X5427206Y-990960D02*
X5436730Y-981436D01*
X5436730Y-981436D02*
X5446254Y-962388D01*
X5446254Y-962388D02*
X5446254Y-924293D01*
X5446254Y-924293D02*
X5436730Y-905246D01*
X5436730Y-905246D02*
X5427206Y-895722D01*
X5427206Y-895722D02*
X5408158Y-886198D01*
X5674825Y-990960D02*
X5693873Y-1000484D01*
X5693873Y-1000484D02*
X5731968Y-1000484D01*
X5731968Y-1000484D02*
X5751015Y-990960D01*
X5751015Y-990960D02*
X5760539Y-971912D01*
X5760539Y-971912D02*
X5760539Y-962388D01*
X5760539Y-962388D02*
X5751015Y-943341D01*
X5751015Y-943341D02*
X5731968Y-933817D01*
X5731968Y-933817D02*
X5703396Y-933817D01*
X5703396Y-933817D02*
X5684349Y-924293D01*
X5684349Y-924293D02*
X5674825Y-905246D01*
X5674825Y-905246D02*
X5674825Y-895722D01*
X5674825Y-895722D02*
X5684349Y-876674D01*
X5684349Y-876674D02*
X5703396Y-867150D01*
X5703396Y-867150D02*
X5731968Y-867150D01*
X5731968Y-867150D02*
X5751015Y-876674D01*
X5874825Y-1000484D02*
X5855777Y-990960D01*
X5855777Y-990960D02*
X5846254Y-971912D01*
X5846254Y-971912D02*
X5846254Y-800484D01*
X5979587Y-1000484D02*
X5960539Y-990960D01*
X5960539Y-990960D02*
X5951015Y-981436D01*
X5951015Y-981436D02*
X5941492Y-962388D01*
X5941492Y-962388D02*
X5941492Y-905246D01*
X5941492Y-905246D02*
X5951015Y-886198D01*
X5951015Y-886198D02*
X5960539Y-876674D01*
X5960539Y-876674D02*
X5979587Y-867150D01*
X5979587Y-867150D02*
X6008158Y-867150D01*
X6008158Y-867150D02*
X6027206Y-876674D01*
X6027206Y-876674D02*
X6036730Y-886198D01*
X6036730Y-886198D02*
X6046254Y-905246D01*
X6046254Y-905246D02*
X6046254Y-962388D01*
X6046254Y-962388D02*
X6036730Y-981436D01*
X6036730Y-981436D02*
X6027206Y-990960D01*
X6027206Y-990960D02*
X6008158Y-1000484D01*
X6008158Y-1000484D02*
X5979587Y-1000484D01*
X6103396Y-867150D02*
X6179587Y-867150D01*
X6131968Y-800484D02*
X6131968Y-971912D01*
X6131968Y-971912D02*
X6141492Y-990960D01*
X6141492Y-990960D02*
X6160539Y-1000484D01*
X6160539Y-1000484D02*
X6179587Y-1000484D01*
X6236730Y-990960D02*
X6255777Y-1000484D01*
X6255777Y-1000484D02*
X6293873Y-1000484D01*
X6293873Y-1000484D02*
X6312920Y-990960D01*
X6312920Y-990960D02*
X6322444Y-971912D01*
X6322444Y-971912D02*
X6322444Y-962388D01*
X6322444Y-962388D02*
X6312920Y-943341D01*
X6312920Y-943341D02*
X6293873Y-933817D01*
X6293873Y-933817D02*
X6265301Y-933817D01*
X6265301Y-933817D02*
X6246254Y-924293D01*
X6246254Y-924293D02*
X6236730Y-905246D01*
X6236730Y-905246D02*
X6236730Y-895722D01*
X6236730Y-895722D02*
X6246254Y-876674D01*
X6246254Y-876674D02*
X6265301Y-867150D01*
X6265301Y-867150D02*
X6293873Y-867150D01*
X6293873Y-867150D02*
X6312920Y-876674D01*
X6389111Y-1076674D02*
X6398635Y-1067150D01*
X6398635Y-1067150D02*
X6417682Y-1038579D01*
X6417682Y-1038579D02*
X6427206Y-1019531D01*
X6427206Y-1019531D02*
X6436730Y-990960D01*
X6436730Y-990960D02*
X6446254Y-943341D01*
X6446254Y-943341D02*
X6446254Y-905246D01*
X6446254Y-905246D02*
X6436730Y-857627D01*
X6436730Y-857627D02*
X6427206Y-829055D01*
X6427206Y-829055D02*
X6417682Y-810008D01*
X6417682Y-810008D02*
X6398635Y-781436D01*
X6398635Y-781436D02*
X6389111Y-771912D01*
D10*
X-55000Y-1123000D02*
X-55000Y-1223000D01*
X-105000Y-1173000D02*
X-5000Y-1173000D01*
D11*
X360539Y-1264484D02*
X246253Y-1264484D01*
X303396Y-1264484D02*
X303396Y-1064484D01*
X303396Y-1064484D02*
X284348Y-1093055D01*
X284348Y-1093055D02*
X265301Y-1112103D01*
X265301Y-1112103D02*
X246253Y-1121627D01*
X446253Y-1245436D02*
X455777Y-1254960D01*
X455777Y-1254960D02*
X446253Y-1264484D01*
X446253Y-1264484D02*
X436729Y-1254960D01*
X436729Y-1254960D02*
X446253Y-1245436D01*
X446253Y-1245436D02*
X446253Y-1264484D01*
X579586Y-1064484D02*
X598634Y-1064484D01*
X598634Y-1064484D02*
X617682Y-1074008D01*
X617682Y-1074008D02*
X627205Y-1083531D01*
X627205Y-1083531D02*
X636729Y-1102579D01*
X636729Y-1102579D02*
X646253Y-1140674D01*
X646253Y-1140674D02*
X646253Y-1188293D01*
X646253Y-1188293D02*
X636729Y-1226389D01*
X636729Y-1226389D02*
X627205Y-1245436D01*
X627205Y-1245436D02*
X617682Y-1254960D01*
X617682Y-1254960D02*
X598634Y-1264484D01*
X598634Y-1264484D02*
X579586Y-1264484D01*
X579586Y-1264484D02*
X560539Y-1254960D01*
X560539Y-1254960D02*
X551015Y-1245436D01*
X551015Y-1245436D02*
X541491Y-1226389D01*
X541491Y-1226389D02*
X531967Y-1188293D01*
X531967Y-1188293D02*
X531967Y-1140674D01*
X531967Y-1140674D02*
X541491Y-1102579D01*
X541491Y-1102579D02*
X551015Y-1083531D01*
X551015Y-1083531D02*
X560539Y-1074008D01*
X560539Y-1074008D02*
X579586Y-1064484D01*
X770062Y-1064484D02*
X789110Y-1064484D01*
X789110Y-1064484D02*
X808158Y-1074008D01*
X808158Y-1074008D02*
X817682Y-1083531D01*
X817682Y-1083531D02*
X827205Y-1102579D01*
X827205Y-1102579D02*
X836729Y-1140674D01*
X836729Y-1140674D02*
X836729Y-1188293D01*
X836729Y-1188293D02*
X827205Y-1226389D01*
X827205Y-1226389D02*
X817682Y-1245436D01*
X817682Y-1245436D02*
X808158Y-1254960D01*
X808158Y-1254960D02*
X789110Y-1264484D01*
X789110Y-1264484D02*
X770062Y-1264484D01*
X770062Y-1264484D02*
X751015Y-1254960D01*
X751015Y-1254960D02*
X741491Y-1245436D01*
X741491Y-1245436D02*
X731967Y-1226389D01*
X731967Y-1226389D02*
X722443Y-1188293D01*
X722443Y-1188293D02*
X722443Y-1140674D01*
X722443Y-1140674D02*
X731967Y-1102579D01*
X731967Y-1102579D02*
X741491Y-1083531D01*
X741491Y-1083531D02*
X751015Y-1074008D01*
X751015Y-1074008D02*
X770062Y-1064484D01*
X960539Y-1064484D02*
X979586Y-1064484D01*
X979586Y-1064484D02*
X998634Y-1074008D01*
X998634Y-1074008D02*
X1008158Y-1083531D01*
X1008158Y-1083531D02*
X1017682Y-1102579D01*
X1017682Y-1102579D02*
X1027205Y-1140674D01*
X1027205Y-1140674D02*
X1027205Y-1188293D01*
X1027205Y-1188293D02*
X1017682Y-1226389D01*
X1017682Y-1226389D02*
X1008158Y-1245436D01*
X1008158Y-1245436D02*
X998634Y-1254960D01*
X998634Y-1254960D02*
X979586Y-1264484D01*
X979586Y-1264484D02*
X960539Y-1264484D01*
X960539Y-1264484D02*
X941491Y-1254960D01*
X941491Y-1254960D02*
X931967Y-1245436D01*
X931967Y-1245436D02*
X922443Y-1226389D01*
X922443Y-1226389D02*
X912920Y-1188293D01*
X912920Y-1188293D02*
X912920Y-1140674D01*
X912920Y-1140674D02*
X922443Y-1102579D01*
X922443Y-1102579D02*
X931967Y-1083531D01*
X931967Y-1083531D02*
X941491Y-1074008D01*
X941491Y-1074008D02*
X960539Y-1064484D01*
X1112920Y-1264484D02*
X1112920Y-1131150D01*
X1112920Y-1150198D02*
X1122444Y-1140674D01*
X1122444Y-1140674D02*
X1141491Y-1131150D01*
X1141491Y-1131150D02*
X1170063Y-1131150D01*
X1170063Y-1131150D02*
X1189110Y-1140674D01*
X1189110Y-1140674D02*
X1198634Y-1159722D01*
X1198634Y-1159722D02*
X1198634Y-1264484D01*
X1198634Y-1159722D02*
X1208158Y-1140674D01*
X1208158Y-1140674D02*
X1227205Y-1131150D01*
X1227205Y-1131150D02*
X1255777Y-1131150D01*
X1255777Y-1131150D02*
X1274825Y-1140674D01*
X1274825Y-1140674D02*
X1284348Y-1159722D01*
X1284348Y-1159722D02*
X1284348Y-1264484D01*
X1379586Y-1264484D02*
X1379586Y-1131150D01*
X1379586Y-1150198D02*
X1389110Y-1140674D01*
X1389110Y-1140674D02*
X1408158Y-1131150D01*
X1408158Y-1131150D02*
X1436729Y-1131150D01*
X1436729Y-1131150D02*
X1455777Y-1140674D01*
X1455777Y-1140674D02*
X1465301Y-1159722D01*
X1465301Y-1159722D02*
X1465301Y-1264484D01*
X1465301Y-1159722D02*
X1474824Y-1140674D01*
X1474824Y-1140674D02*
X1493872Y-1131150D01*
X1493872Y-1131150D02*
X1522443Y-1131150D01*
X1522443Y-1131150D02*
X1541491Y-1140674D01*
X1541491Y-1140674D02*
X1551015Y-1159722D01*
X1551015Y-1159722D02*
X1551015Y-1264484D01*
X1941491Y-1054960D02*
X1770063Y-1312103D01*
X2198634Y-1064484D02*
X2217682Y-1064484D01*
X2217682Y-1064484D02*
X2236729Y-1074008D01*
X2236729Y-1074008D02*
X2246253Y-1083531D01*
X2246253Y-1083531D02*
X2255777Y-1102579D01*
X2255777Y-1102579D02*
X2265301Y-1140674D01*
X2265301Y-1140674D02*
X2265301Y-1188293D01*
X2265301Y-1188293D02*
X2255777Y-1226389D01*
X2255777Y-1226389D02*
X2246253Y-1245436D01*
X2246253Y-1245436D02*
X2236729Y-1254960D01*
X2236729Y-1254960D02*
X2217682Y-1264484D01*
X2217682Y-1264484D02*
X2198634Y-1264484D01*
X2198634Y-1264484D02*
X2179587Y-1254960D01*
X2179587Y-1254960D02*
X2170063Y-1245436D01*
X2170063Y-1245436D02*
X2160539Y-1226389D01*
X2160539Y-1226389D02*
X2151015Y-1188293D01*
X2151015Y-1188293D02*
X2151015Y-1140674D01*
X2151015Y-1140674D02*
X2160539Y-1102579D01*
X2160539Y-1102579D02*
X2170063Y-1083531D01*
X2170063Y-1083531D02*
X2179587Y-1074008D01*
X2179587Y-1074008D02*
X2198634Y-1064484D01*
X2351015Y-1245436D02*
X2360539Y-1254960D01*
X2360539Y-1254960D02*
X2351015Y-1264484D01*
X2351015Y-1264484D02*
X2341491Y-1254960D01*
X2341491Y-1254960D02*
X2351015Y-1245436D01*
X2351015Y-1245436D02*
X2351015Y-1264484D01*
X2484348Y-1064484D02*
X2503396Y-1064484D01*
X2503396Y-1064484D02*
X2522444Y-1074008D01*
X2522444Y-1074008D02*
X2531968Y-1083531D01*
X2531968Y-1083531D02*
X2541491Y-1102579D01*
X2541491Y-1102579D02*
X2551015Y-1140674D01*
X2551015Y-1140674D02*
X2551015Y-1188293D01*
X2551015Y-1188293D02*
X2541491Y-1226389D01*
X2541491Y-1226389D02*
X2531968Y-1245436D01*
X2531968Y-1245436D02*
X2522444Y-1254960D01*
X2522444Y-1254960D02*
X2503396Y-1264484D01*
X2503396Y-1264484D02*
X2484348Y-1264484D01*
X2484348Y-1264484D02*
X2465301Y-1254960D01*
X2465301Y-1254960D02*
X2455777Y-1245436D01*
X2455777Y-1245436D02*
X2446253Y-1226389D01*
X2446253Y-1226389D02*
X2436729Y-1188293D01*
X2436729Y-1188293D02*
X2436729Y-1140674D01*
X2436729Y-1140674D02*
X2446253Y-1102579D01*
X2446253Y-1102579D02*
X2455777Y-1083531D01*
X2455777Y-1083531D02*
X2465301Y-1074008D01*
X2465301Y-1074008D02*
X2484348Y-1064484D01*
X2617682Y-1064484D02*
X2741491Y-1064484D01*
X2741491Y-1064484D02*
X2674825Y-1140674D01*
X2674825Y-1140674D02*
X2703396Y-1140674D01*
X2703396Y-1140674D02*
X2722444Y-1150198D01*
X2722444Y-1150198D02*
X2731968Y-1159722D01*
X2731968Y-1159722D02*
X2741491Y-1178770D01*
X2741491Y-1178770D02*
X2741491Y-1226389D01*
X2741491Y-1226389D02*
X2731968Y-1245436D01*
X2731968Y-1245436D02*
X2722444Y-1254960D01*
X2722444Y-1254960D02*
X2703396Y-1264484D01*
X2703396Y-1264484D02*
X2646253Y-1264484D01*
X2646253Y-1264484D02*
X2627206Y-1254960D01*
X2627206Y-1254960D02*
X2617682Y-1245436D01*
X2836729Y-1264484D02*
X2874825Y-1264484D01*
X2874825Y-1264484D02*
X2893872Y-1254960D01*
X2893872Y-1254960D02*
X2903396Y-1245436D01*
X2903396Y-1245436D02*
X2922444Y-1216865D01*
X2922444Y-1216865D02*
X2931967Y-1178770D01*
X2931967Y-1178770D02*
X2931967Y-1102579D01*
X2931967Y-1102579D02*
X2922444Y-1083531D01*
X2922444Y-1083531D02*
X2912920Y-1074008D01*
X2912920Y-1074008D02*
X2893872Y-1064484D01*
X2893872Y-1064484D02*
X2855777Y-1064484D01*
X2855777Y-1064484D02*
X2836729Y-1074008D01*
X2836729Y-1074008D02*
X2827206Y-1083531D01*
X2827206Y-1083531D02*
X2817682Y-1102579D01*
X2817682Y-1102579D02*
X2817682Y-1150198D01*
X2817682Y-1150198D02*
X2827206Y-1169246D01*
X2827206Y-1169246D02*
X2836729Y-1178770D01*
X2836729Y-1178770D02*
X2855777Y-1188293D01*
X2855777Y-1188293D02*
X2893872Y-1188293D01*
X2893872Y-1188293D02*
X2912920Y-1178770D01*
X2912920Y-1178770D02*
X2922444Y-1169246D01*
X2922444Y-1169246D02*
X2931967Y-1150198D01*
X3103396Y-1131150D02*
X3103396Y-1264484D01*
X3055777Y-1054960D02*
X3008158Y-1197817D01*
X3008158Y-1197817D02*
X3131967Y-1197817D01*
X3198634Y-1064484D02*
X3198634Y-1102579D01*
X3274825Y-1064484D02*
X3274825Y-1102579D01*
X3570063Y-1340674D02*
X3560539Y-1331150D01*
X3560539Y-1331150D02*
X3541491Y-1302579D01*
X3541491Y-1302579D02*
X3531968Y-1283531D01*
X3531968Y-1283531D02*
X3522444Y-1254960D01*
X3522444Y-1254960D02*
X3512920Y-1207341D01*
X3512920Y-1207341D02*
X3512920Y-1169246D01*
X3512920Y-1169246D02*
X3522444Y-1121627D01*
X3522444Y-1121627D02*
X3531968Y-1093055D01*
X3531968Y-1093055D02*
X3541491Y-1074008D01*
X3541491Y-1074008D02*
X3560539Y-1045436D01*
X3560539Y-1045436D02*
X3570063Y-1035912D01*
X3684348Y-1064484D02*
X3703396Y-1064484D01*
X3703396Y-1064484D02*
X3722444Y-1074008D01*
X3722444Y-1074008D02*
X3731968Y-1083531D01*
X3731968Y-1083531D02*
X3741491Y-1102579D01*
X3741491Y-1102579D02*
X3751015Y-1140674D01*
X3751015Y-1140674D02*
X3751015Y-1188293D01*
X3751015Y-1188293D02*
X3741491Y-1226389D01*
X3741491Y-1226389D02*
X3731968Y-1245436D01*
X3731968Y-1245436D02*
X3722444Y-1254960D01*
X3722444Y-1254960D02*
X3703396Y-1264484D01*
X3703396Y-1264484D02*
X3684348Y-1264484D01*
X3684348Y-1264484D02*
X3665301Y-1254960D01*
X3665301Y-1254960D02*
X3655777Y-1245436D01*
X3655777Y-1245436D02*
X3646253Y-1226389D01*
X3646253Y-1226389D02*
X3636729Y-1188293D01*
X3636729Y-1188293D02*
X3636729Y-1140674D01*
X3636729Y-1140674D02*
X3646253Y-1102579D01*
X3646253Y-1102579D02*
X3655777Y-1083531D01*
X3655777Y-1083531D02*
X3665301Y-1074008D01*
X3665301Y-1074008D02*
X3684348Y-1064484D01*
X3989110Y-1264484D02*
X3989110Y-1064484D01*
X4074825Y-1264484D02*
X4074825Y-1159722D01*
X4074825Y-1159722D02*
X4065301Y-1140674D01*
X4065301Y-1140674D02*
X4046253Y-1131150D01*
X4046253Y-1131150D02*
X4017682Y-1131150D01*
X4017682Y-1131150D02*
X3998634Y-1140674D01*
X3998634Y-1140674D02*
X3989110Y-1150198D01*
X4198634Y-1264484D02*
X4179587Y-1254960D01*
X4179587Y-1254960D02*
X4170063Y-1245436D01*
X4170063Y-1245436D02*
X4160539Y-1226389D01*
X4160539Y-1226389D02*
X4160539Y-1169246D01*
X4160539Y-1169246D02*
X4170063Y-1150198D01*
X4170063Y-1150198D02*
X4179587Y-1140674D01*
X4179587Y-1140674D02*
X4198634Y-1131150D01*
X4198634Y-1131150D02*
X4227206Y-1131150D01*
X4227206Y-1131150D02*
X4246253Y-1140674D01*
X4246253Y-1140674D02*
X4255777Y-1150198D01*
X4255777Y-1150198D02*
X4265301Y-1169246D01*
X4265301Y-1169246D02*
X4265301Y-1226389D01*
X4265301Y-1226389D02*
X4255777Y-1245436D01*
X4255777Y-1245436D02*
X4246253Y-1254960D01*
X4246253Y-1254960D02*
X4227206Y-1264484D01*
X4227206Y-1264484D02*
X4198634Y-1264484D01*
X4379587Y-1264484D02*
X4360539Y-1254960D01*
X4360539Y-1254960D02*
X4351015Y-1235912D01*
X4351015Y-1235912D02*
X4351015Y-1064484D01*
X4531968Y-1254960D02*
X4512920Y-1264484D01*
X4512920Y-1264484D02*
X4474825Y-1264484D01*
X4474825Y-1264484D02*
X4455777Y-1254960D01*
X4455777Y-1254960D02*
X4446253Y-1235912D01*
X4446253Y-1235912D02*
X4446253Y-1159722D01*
X4446253Y-1159722D02*
X4455777Y-1140674D01*
X4455777Y-1140674D02*
X4474825Y-1131150D01*
X4474825Y-1131150D02*
X4512920Y-1131150D01*
X4512920Y-1131150D02*
X4531968Y-1140674D01*
X4531968Y-1140674D02*
X4541492Y-1159722D01*
X4541492Y-1159722D02*
X4541492Y-1178770D01*
X4541492Y-1178770D02*
X4446253Y-1197817D01*
X4617682Y-1254960D02*
X4636730Y-1264484D01*
X4636730Y-1264484D02*
X4674825Y-1264484D01*
X4674825Y-1264484D02*
X4693873Y-1254960D01*
X4693873Y-1254960D02*
X4703396Y-1235912D01*
X4703396Y-1235912D02*
X4703396Y-1226389D01*
X4703396Y-1226389D02*
X4693873Y-1207341D01*
X4693873Y-1207341D02*
X4674825Y-1197817D01*
X4674825Y-1197817D02*
X4646253Y-1197817D01*
X4646253Y-1197817D02*
X4627206Y-1188293D01*
X4627206Y-1188293D02*
X4617682Y-1169246D01*
X4617682Y-1169246D02*
X4617682Y-1159722D01*
X4617682Y-1159722D02*
X4627206Y-1140674D01*
X4627206Y-1140674D02*
X4646253Y-1131150D01*
X4646253Y-1131150D02*
X4674825Y-1131150D01*
X4674825Y-1131150D02*
X4693873Y-1140674D01*
X4941492Y-1188293D02*
X5093873Y-1188293D01*
X5017682Y-1264484D02*
X5017682Y-1112103D01*
X5331968Y-1083531D02*
X5341492Y-1074008D01*
X5341492Y-1074008D02*
X5360539Y-1064484D01*
X5360539Y-1064484D02*
X5408158Y-1064484D01*
X5408158Y-1064484D02*
X5427206Y-1074008D01*
X5427206Y-1074008D02*
X5436730Y-1083531D01*
X5436730Y-1083531D02*
X5446254Y-1102579D01*
X5446254Y-1102579D02*
X5446254Y-1121627D01*
X5446254Y-1121627D02*
X5436730Y-1150198D01*
X5436730Y-1150198D02*
X5322444Y-1264484D01*
X5322444Y-1264484D02*
X5446254Y-1264484D01*
X5674825Y-1254960D02*
X5693873Y-1264484D01*
X5693873Y-1264484D02*
X5731968Y-1264484D01*
X5731968Y-1264484D02*
X5751015Y-1254960D01*
X5751015Y-1254960D02*
X5760539Y-1235912D01*
X5760539Y-1235912D02*
X5760539Y-1226389D01*
X5760539Y-1226389D02*
X5751015Y-1207341D01*
X5751015Y-1207341D02*
X5731968Y-1197817D01*
X5731968Y-1197817D02*
X5703396Y-1197817D01*
X5703396Y-1197817D02*
X5684349Y-1188293D01*
X5684349Y-1188293D02*
X5674825Y-1169246D01*
X5674825Y-1169246D02*
X5674825Y-1159722D01*
X5674825Y-1159722D02*
X5684349Y-1140674D01*
X5684349Y-1140674D02*
X5703396Y-1131150D01*
X5703396Y-1131150D02*
X5731968Y-1131150D01*
X5731968Y-1131150D02*
X5751015Y-1140674D01*
X5874825Y-1264484D02*
X5855777Y-1254960D01*
X5855777Y-1254960D02*
X5846254Y-1235912D01*
X5846254Y-1235912D02*
X5846254Y-1064484D01*
X5979587Y-1264484D02*
X5960539Y-1254960D01*
X5960539Y-1254960D02*
X5951015Y-1245436D01*
X5951015Y-1245436D02*
X5941492Y-1226389D01*
X5941492Y-1226389D02*
X5941492Y-1169246D01*
X5941492Y-1169246D02*
X5951015Y-1150198D01*
X5951015Y-1150198D02*
X5960539Y-1140674D01*
X5960539Y-1140674D02*
X5979587Y-1131150D01*
X5979587Y-1131150D02*
X6008158Y-1131150D01*
X6008158Y-1131150D02*
X6027206Y-1140674D01*
X6027206Y-1140674D02*
X6036730Y-1150198D01*
X6036730Y-1150198D02*
X6046254Y-1169246D01*
X6046254Y-1169246D02*
X6046254Y-1226389D01*
X6046254Y-1226389D02*
X6036730Y-1245436D01*
X6036730Y-1245436D02*
X6027206Y-1254960D01*
X6027206Y-1254960D02*
X6008158Y-1264484D01*
X6008158Y-1264484D02*
X5979587Y-1264484D01*
X6103396Y-1131150D02*
X6179587Y-1131150D01*
X6131968Y-1064484D02*
X6131968Y-1235912D01*
X6131968Y-1235912D02*
X6141492Y-1254960D01*
X6141492Y-1254960D02*
X6160539Y-1264484D01*
X6160539Y-1264484D02*
X6179587Y-1264484D01*
X6236730Y-1254960D02*
X6255777Y-1264484D01*
X6255777Y-1264484D02*
X6293873Y-1264484D01*
X6293873Y-1264484D02*
X6312920Y-1254960D01*
X6312920Y-1254960D02*
X6322444Y-1235912D01*
X6322444Y-1235912D02*
X6322444Y-1226389D01*
X6322444Y-1226389D02*
X6312920Y-1207341D01*
X6312920Y-1207341D02*
X6293873Y-1197817D01*
X6293873Y-1197817D02*
X6265301Y-1197817D01*
X6265301Y-1197817D02*
X6246254Y-1188293D01*
X6246254Y-1188293D02*
X6236730Y-1169246D01*
X6236730Y-1169246D02*
X6236730Y-1159722D01*
X6236730Y-1159722D02*
X6246254Y-1140674D01*
X6246254Y-1140674D02*
X6265301Y-1131150D01*
X6265301Y-1131150D02*
X6293873Y-1131150D01*
X6293873Y-1131150D02*
X6312920Y-1140674D01*
X6389111Y-1340674D02*
X6398635Y-1331150D01*
X6398635Y-1331150D02*
X6417682Y-1302579D01*
X6417682Y-1302579D02*
X6427206Y-1283531D01*
X6427206Y-1283531D02*
X6436730Y-1254960D01*
X6436730Y-1254960D02*
X6446254Y-1207341D01*
X6446254Y-1207341D02*
X6446254Y-1169246D01*
X6446254Y-1169246D02*
X6436730Y-1121627D01*
X6436730Y-1121627D02*
X6427206Y-1093055D01*
X6427206Y-1093055D02*
X6417682Y-1074008D01*
X6417682Y-1074008D02*
X6398635Y-1045436D01*
X6398635Y-1045436D02*
X6389111Y-1035912D01*
X-34289Y-1507711D02*
X-34289Y-1366289D01*
X-175711Y-1366289D01*
X-175711Y-1507711D01*
X-34289Y-1507711D01*
X236729Y-1328484D02*
X360539Y-1328484D01*
X360539Y-1328484D02*
X293872Y-1404674D01*
X293872Y-1404674D02*
X322444Y-1404674D01*
X322444Y-1404674D02*
X341491Y-1414198D01*
X341491Y-1414198D02*
X351015Y-1423722D01*
X351015Y-1423722D02*
X360539Y-1442769D01*
X360539Y-1442769D02*
X360539Y-1490388D01*
X360539Y-1490388D02*
X351015Y-1509436D01*
X351015Y-1509436D02*
X341491Y-1518960D01*
X341491Y-1518960D02*
X322444Y-1528484D01*
X322444Y-1528484D02*
X265301Y-1528484D01*
X265301Y-1528484D02*
X246253Y-1518960D01*
X246253Y-1518960D02*
X236729Y-1509436D01*
X446253Y-1509436D02*
X455777Y-1518960D01*
X455777Y-1518960D02*
X446253Y-1528484D01*
X446253Y-1528484D02*
X436729Y-1518960D01*
X436729Y-1518960D02*
X446253Y-1509436D01*
X446253Y-1509436D02*
X446253Y-1528484D01*
X531967Y-1347531D02*
X541491Y-1338008D01*
X541491Y-1338008D02*
X560539Y-1328484D01*
X560539Y-1328484D02*
X608158Y-1328484D01*
X608158Y-1328484D02*
X627205Y-1338008D01*
X627205Y-1338008D02*
X636729Y-1347531D01*
X636729Y-1347531D02*
X646253Y-1366579D01*
X646253Y-1366579D02*
X646253Y-1385627D01*
X646253Y-1385627D02*
X636729Y-1414198D01*
X636729Y-1414198D02*
X522443Y-1528484D01*
X522443Y-1528484D02*
X646253Y-1528484D01*
X770062Y-1328484D02*
X789110Y-1328484D01*
X789110Y-1328484D02*
X808158Y-1338008D01*
X808158Y-1338008D02*
X817682Y-1347531D01*
X817682Y-1347531D02*
X827205Y-1366579D01*
X827205Y-1366579D02*
X836729Y-1404674D01*
X836729Y-1404674D02*
X836729Y-1452293D01*
X836729Y-1452293D02*
X827205Y-1490388D01*
X827205Y-1490388D02*
X817682Y-1509436D01*
X817682Y-1509436D02*
X808158Y-1518960D01*
X808158Y-1518960D02*
X789110Y-1528484D01*
X789110Y-1528484D02*
X770062Y-1528484D01*
X770062Y-1528484D02*
X751015Y-1518960D01*
X751015Y-1518960D02*
X741491Y-1509436D01*
X741491Y-1509436D02*
X731967Y-1490388D01*
X731967Y-1490388D02*
X722443Y-1452293D01*
X722443Y-1452293D02*
X722443Y-1404674D01*
X722443Y-1404674D02*
X731967Y-1366579D01*
X731967Y-1366579D02*
X741491Y-1347531D01*
X741491Y-1347531D02*
X751015Y-1338008D01*
X751015Y-1338008D02*
X770062Y-1328484D01*
X960539Y-1328484D02*
X979586Y-1328484D01*
X979586Y-1328484D02*
X998634Y-1338008D01*
X998634Y-1338008D02*
X1008158Y-1347531D01*
X1008158Y-1347531D02*
X1017682Y-1366579D01*
X1017682Y-1366579D02*
X1027205Y-1404674D01*
X1027205Y-1404674D02*
X1027205Y-1452293D01*
X1027205Y-1452293D02*
X1017682Y-1490388D01*
X1017682Y-1490388D02*
X1008158Y-1509436D01*
X1008158Y-1509436D02*
X998634Y-1518960D01*
X998634Y-1518960D02*
X979586Y-1528484D01*
X979586Y-1528484D02*
X960539Y-1528484D01*
X960539Y-1528484D02*
X941491Y-1518960D01*
X941491Y-1518960D02*
X931967Y-1509436D01*
X931967Y-1509436D02*
X922443Y-1490388D01*
X922443Y-1490388D02*
X912920Y-1452293D01*
X912920Y-1452293D02*
X912920Y-1404674D01*
X912920Y-1404674D02*
X922443Y-1366579D01*
X922443Y-1366579D02*
X931967Y-1347531D01*
X931967Y-1347531D02*
X941491Y-1338008D01*
X941491Y-1338008D02*
X960539Y-1328484D01*
X1112920Y-1528484D02*
X1112920Y-1395150D01*
X1112920Y-1414198D02*
X1122444Y-1404674D01*
X1122444Y-1404674D02*
X1141491Y-1395150D01*
X1141491Y-1395150D02*
X1170063Y-1395150D01*
X1170063Y-1395150D02*
X1189110Y-1404674D01*
X1189110Y-1404674D02*
X1198634Y-1423722D01*
X1198634Y-1423722D02*
X1198634Y-1528484D01*
X1198634Y-1423722D02*
X1208158Y-1404674D01*
X1208158Y-1404674D02*
X1227205Y-1395150D01*
X1227205Y-1395150D02*
X1255777Y-1395150D01*
X1255777Y-1395150D02*
X1274825Y-1404674D01*
X1274825Y-1404674D02*
X1284348Y-1423722D01*
X1284348Y-1423722D02*
X1284348Y-1528484D01*
X1379586Y-1528484D02*
X1379586Y-1395150D01*
X1379586Y-1414198D02*
X1389110Y-1404674D01*
X1389110Y-1404674D02*
X1408158Y-1395150D01*
X1408158Y-1395150D02*
X1436729Y-1395150D01*
X1436729Y-1395150D02*
X1455777Y-1404674D01*
X1455777Y-1404674D02*
X1465301Y-1423722D01*
X1465301Y-1423722D02*
X1465301Y-1528484D01*
X1465301Y-1423722D02*
X1474824Y-1404674D01*
X1474824Y-1404674D02*
X1493872Y-1395150D01*
X1493872Y-1395150D02*
X1522443Y-1395150D01*
X1522443Y-1395150D02*
X1541491Y-1404674D01*
X1541491Y-1404674D02*
X1551015Y-1423722D01*
X1551015Y-1423722D02*
X1551015Y-1528484D01*
X1941491Y-1318960D02*
X1770063Y-1576103D01*
X2198634Y-1328484D02*
X2217682Y-1328484D01*
X2217682Y-1328484D02*
X2236729Y-1338008D01*
X2236729Y-1338008D02*
X2246253Y-1347531D01*
X2246253Y-1347531D02*
X2255777Y-1366579D01*
X2255777Y-1366579D02*
X2265301Y-1404674D01*
X2265301Y-1404674D02*
X2265301Y-1452293D01*
X2265301Y-1452293D02*
X2255777Y-1490388D01*
X2255777Y-1490388D02*
X2246253Y-1509436D01*
X2246253Y-1509436D02*
X2236729Y-1518960D01*
X2236729Y-1518960D02*
X2217682Y-1528484D01*
X2217682Y-1528484D02*
X2198634Y-1528484D01*
X2198634Y-1528484D02*
X2179587Y-1518960D01*
X2179587Y-1518960D02*
X2170063Y-1509436D01*
X2170063Y-1509436D02*
X2160539Y-1490388D01*
X2160539Y-1490388D02*
X2151015Y-1452293D01*
X2151015Y-1452293D02*
X2151015Y-1404674D01*
X2151015Y-1404674D02*
X2160539Y-1366579D01*
X2160539Y-1366579D02*
X2170063Y-1347531D01*
X2170063Y-1347531D02*
X2179587Y-1338008D01*
X2179587Y-1338008D02*
X2198634Y-1328484D01*
X2351015Y-1509436D02*
X2360539Y-1518960D01*
X2360539Y-1518960D02*
X2351015Y-1528484D01*
X2351015Y-1528484D02*
X2341491Y-1518960D01*
X2341491Y-1518960D02*
X2351015Y-1509436D01*
X2351015Y-1509436D02*
X2351015Y-1528484D01*
X2551015Y-1528484D02*
X2436729Y-1528484D01*
X2493872Y-1528484D02*
X2493872Y-1328484D01*
X2493872Y-1328484D02*
X2474825Y-1357055D01*
X2474825Y-1357055D02*
X2455777Y-1376103D01*
X2455777Y-1376103D02*
X2436729Y-1385627D01*
X2627206Y-1347531D02*
X2636729Y-1338008D01*
X2636729Y-1338008D02*
X2655777Y-1328484D01*
X2655777Y-1328484D02*
X2703396Y-1328484D01*
X2703396Y-1328484D02*
X2722444Y-1338008D01*
X2722444Y-1338008D02*
X2731968Y-1347531D01*
X2731968Y-1347531D02*
X2741491Y-1366579D01*
X2741491Y-1366579D02*
X2741491Y-1385627D01*
X2741491Y-1385627D02*
X2731968Y-1414198D01*
X2731968Y-1414198D02*
X2617682Y-1528484D01*
X2617682Y-1528484D02*
X2741491Y-1528484D01*
X2912920Y-1328484D02*
X2874825Y-1328484D01*
X2874825Y-1328484D02*
X2855777Y-1338008D01*
X2855777Y-1338008D02*
X2846253Y-1347531D01*
X2846253Y-1347531D02*
X2827206Y-1376103D01*
X2827206Y-1376103D02*
X2817682Y-1414198D01*
X2817682Y-1414198D02*
X2817682Y-1490388D01*
X2817682Y-1490388D02*
X2827206Y-1509436D01*
X2827206Y-1509436D02*
X2836729Y-1518960D01*
X2836729Y-1518960D02*
X2855777Y-1528484D01*
X2855777Y-1528484D02*
X2893872Y-1528484D01*
X2893872Y-1528484D02*
X2912920Y-1518960D01*
X2912920Y-1518960D02*
X2922444Y-1509436D01*
X2922444Y-1509436D02*
X2931967Y-1490388D01*
X2931967Y-1490388D02*
X2931967Y-1442769D01*
X2931967Y-1442769D02*
X2922444Y-1423722D01*
X2922444Y-1423722D02*
X2912920Y-1414198D01*
X2912920Y-1414198D02*
X2893872Y-1404674D01*
X2893872Y-1404674D02*
X2855777Y-1404674D01*
X2855777Y-1404674D02*
X2836729Y-1414198D01*
X2836729Y-1414198D02*
X2827206Y-1423722D01*
X2827206Y-1423722D02*
X2817682Y-1442769D01*
X3055777Y-1328484D02*
X3074825Y-1328484D01*
X3074825Y-1328484D02*
X3093872Y-1338008D01*
X3093872Y-1338008D02*
X3103396Y-1347531D01*
X3103396Y-1347531D02*
X3112920Y-1366579D01*
X3112920Y-1366579D02*
X3122444Y-1404674D01*
X3122444Y-1404674D02*
X3122444Y-1452293D01*
X3122444Y-1452293D02*
X3112920Y-1490388D01*
X3112920Y-1490388D02*
X3103396Y-1509436D01*
X3103396Y-1509436D02*
X3093872Y-1518960D01*
X3093872Y-1518960D02*
X3074825Y-1528484D01*
X3074825Y-1528484D02*
X3055777Y-1528484D01*
X3055777Y-1528484D02*
X3036729Y-1518960D01*
X3036729Y-1518960D02*
X3027206Y-1509436D01*
X3027206Y-1509436D02*
X3017682Y-1490388D01*
X3017682Y-1490388D02*
X3008158Y-1452293D01*
X3008158Y-1452293D02*
X3008158Y-1404674D01*
X3008158Y-1404674D02*
X3017682Y-1366579D01*
X3017682Y-1366579D02*
X3027206Y-1347531D01*
X3027206Y-1347531D02*
X3036729Y-1338008D01*
X3036729Y-1338008D02*
X3055777Y-1328484D01*
X3198634Y-1328484D02*
X3198634Y-1366579D01*
X3274825Y-1328484D02*
X3274825Y-1366579D01*
X3570063Y-1604674D02*
X3560539Y-1595150D01*
X3560539Y-1595150D02*
X3541491Y-1566579D01*
X3541491Y-1566579D02*
X3531968Y-1547531D01*
X3531968Y-1547531D02*
X3522444Y-1518960D01*
X3522444Y-1518960D02*
X3512920Y-1471341D01*
X3512920Y-1471341D02*
X3512920Y-1433246D01*
X3512920Y-1433246D02*
X3522444Y-1385627D01*
X3522444Y-1385627D02*
X3531968Y-1357055D01*
X3531968Y-1357055D02*
X3541491Y-1338008D01*
X3541491Y-1338008D02*
X3560539Y-1309436D01*
X3560539Y-1309436D02*
X3570063Y-1299912D01*
X3731968Y-1395150D02*
X3731968Y-1528484D01*
X3684348Y-1318960D02*
X3636729Y-1461817D01*
X3636729Y-1461817D02*
X3760539Y-1461817D01*
X3989110Y-1528484D02*
X3989110Y-1328484D01*
X4074825Y-1528484D02*
X4074825Y-1423722D01*
X4074825Y-1423722D02*
X4065301Y-1404674D01*
X4065301Y-1404674D02*
X4046253Y-1395150D01*
X4046253Y-1395150D02*
X4017682Y-1395150D01*
X4017682Y-1395150D02*
X3998634Y-1404674D01*
X3998634Y-1404674D02*
X3989110Y-1414198D01*
X4198634Y-1528484D02*
X4179587Y-1518960D01*
X4179587Y-1518960D02*
X4170063Y-1509436D01*
X4170063Y-1509436D02*
X4160539Y-1490388D01*
X4160539Y-1490388D02*
X4160539Y-1433246D01*
X4160539Y-1433246D02*
X4170063Y-1414198D01*
X4170063Y-1414198D02*
X4179587Y-1404674D01*
X4179587Y-1404674D02*
X4198634Y-1395150D01*
X4198634Y-1395150D02*
X4227206Y-1395150D01*
X4227206Y-1395150D02*
X4246253Y-1404674D01*
X4246253Y-1404674D02*
X4255777Y-1414198D01*
X4255777Y-1414198D02*
X4265301Y-1433246D01*
X4265301Y-1433246D02*
X4265301Y-1490388D01*
X4265301Y-1490388D02*
X4255777Y-1509436D01*
X4255777Y-1509436D02*
X4246253Y-1518960D01*
X4246253Y-1518960D02*
X4227206Y-1528484D01*
X4227206Y-1528484D02*
X4198634Y-1528484D01*
X4379587Y-1528484D02*
X4360539Y-1518960D01*
X4360539Y-1518960D02*
X4351015Y-1499912D01*
X4351015Y-1499912D02*
X4351015Y-1328484D01*
X4531968Y-1518960D02*
X4512920Y-1528484D01*
X4512920Y-1528484D02*
X4474825Y-1528484D01*
X4474825Y-1528484D02*
X4455777Y-1518960D01*
X4455777Y-1518960D02*
X4446253Y-1499912D01*
X4446253Y-1499912D02*
X4446253Y-1423722D01*
X4446253Y-1423722D02*
X4455777Y-1404674D01*
X4455777Y-1404674D02*
X4474825Y-1395150D01*
X4474825Y-1395150D02*
X4512920Y-1395150D01*
X4512920Y-1395150D02*
X4531968Y-1404674D01*
X4531968Y-1404674D02*
X4541492Y-1423722D01*
X4541492Y-1423722D02*
X4541492Y-1442769D01*
X4541492Y-1442769D02*
X4446253Y-1461817D01*
X4617682Y-1518960D02*
X4636730Y-1528484D01*
X4636730Y-1528484D02*
X4674825Y-1528484D01*
X4674825Y-1528484D02*
X4693873Y-1518960D01*
X4693873Y-1518960D02*
X4703396Y-1499912D01*
X4703396Y-1499912D02*
X4703396Y-1490388D01*
X4703396Y-1490388D02*
X4693873Y-1471341D01*
X4693873Y-1471341D02*
X4674825Y-1461817D01*
X4674825Y-1461817D02*
X4646253Y-1461817D01*
X4646253Y-1461817D02*
X4627206Y-1452293D01*
X4627206Y-1452293D02*
X4617682Y-1433246D01*
X4617682Y-1433246D02*
X4617682Y-1423722D01*
X4617682Y-1423722D02*
X4627206Y-1404674D01*
X4627206Y-1404674D02*
X4646253Y-1395150D01*
X4646253Y-1395150D02*
X4674825Y-1395150D01*
X4674825Y-1395150D02*
X4693873Y-1404674D01*
X4770063Y-1604674D02*
X4779587Y-1595150D01*
X4779587Y-1595150D02*
X4798634Y-1566579D01*
X4798634Y-1566579D02*
X4808158Y-1547531D01*
X4808158Y-1547531D02*
X4817682Y-1518960D01*
X4817682Y-1518960D02*
X4827206Y-1471341D01*
X4827206Y-1471341D02*
X4827206Y-1433246D01*
X4827206Y-1433246D02*
X4817682Y-1385627D01*
X4817682Y-1385627D02*
X4808158Y-1357055D01*
X4808158Y-1357055D02*
X4798634Y-1338008D01*
X4798634Y-1338008D02*
X4779587Y-1309436D01*
X4779587Y-1309436D02*
X4770063Y-1299912D01*
M02*
