<svg version="1.1" id="Layer_1" xmlns="http://www.w3.org/2000/svg" xmlns:xlink="http://www.w3.org/1999/xlink" x="0px" y="0px"
	 width="100%" viewBox="0 0 666 668" enable-background="new 0 0 666 668" xml:space="preserve">
<path fill="#131313" opacity="1.000000" stroke="none" 
	d="
M616.000000,0.999999 
	C616.750000,1.000000 617.500000,1.000000 618.679688,1.337076 
	C620.470032,2.695167 621.692993,4.060004 623.218018,4.670627 
	C627.265625,6.291375 631.932678,6.848332 635.456360,9.182489 
	C640.873840,12.771076 645.879211,17.163044 650.421875,21.834120 
	C654.122498,25.639330 657.216675,30.154890 659.976624,34.720135 
	C662.710693,39.242546 664.689758,44.221363 667.000000,49.000000 
	C667.000000,50.066677 667.000000,51.133350 666.690796,52.614250 
	C666.133728,53.691162 665.885925,54.353851 665.284424,55.164177 
	C664.620483,57.371948 664.039612,59.431969 664.038757,61.492241 
	C663.994690,163.621735 664.000916,265.751221 664.000549,367.880737 
	C664.000244,448.184845 663.986145,528.488953 664.067139,608.793030 
	C664.069214,610.857910 665.106018,612.921814 665.792725,615.257629 
	C666.283508,615.686096 666.641724,615.843079 667.000000,616.000000 
	C667.000000,617.714417 667.000000,619.428833 666.650269,621.645630 
	C664.081299,626.236145 661.441528,630.156555 659.729919,634.447266 
	C656.117554,643.502991 651.520630,651.537964 642.873474,656.855652 
	C634.966858,661.717773 627.554626,667.552063 617.393921,666.243103 
	C617.012939,666.193970 616.473877,667.371948 615.548706,667.923889 
	C612.259155,667.926819 609.429382,668.033875 606.599670,668.033936 
	C428.552094,668.039429 250.504501,668.038025 72.456909,668.025696 
	C66.300766,668.025269 60.144627,667.906982 53.933090,667.542969 
	C53.246944,666.836914 52.616199,666.431335 51.575523,666.019470 
	C49.799480,666.030457 48.433369,666.047791 47.035168,666.033752 
	C47.003075,666.002319 46.939850,665.938477 46.679260,665.680176 
	C43.595348,665.160950 40.517864,665.531921 37.997417,664.518066 
	C31.049608,661.723450 24.732805,657.934387 19.238897,652.544617 
	C10.817892,644.283142 4.434135,635.256470 3.618763,623.045654 
	C3.547399,621.976868 1.910000,621.012756 0.999998,620.000000 
	C1.000000,619.555542 1.000000,619.111084 1.400067,618.170288 
	C1.864959,617.348328 1.986597,617.022583 1.986599,616.696899 
	C1.987495,458.937683 1.969953,301.178497 1.981944,143.419281 
	C1.984210,113.607872 2.103426,83.796471 2.508971,53.896744 
	C2.817124,52.168907 2.784984,50.529392 2.816390,48.504944 
	C4.475176,43.613293 6.075257,39.108288 7.664533,34.599472 
	C10.087284,27.726057 15.995748,23.711157 20.460266,18.463449 
	C25.485365,12.556821 31.151972,8.165216 38.354168,5.742343 
	C42.817337,4.240900 47.445763,3.230693 52.460281,2.064514 
	C58.750172,2.071665 64.579788,1.963961 70.409409,1.964204 
	C251.317459,1.971734 432.225494,1.991363 613.133545,1.964739 
	C614.089111,1.964598 615.044495,1.335421 616.000000,0.999999 
M634.359070,56.715824 
	C634.221375,55.814617 634.083679,54.913406 634.014404,53.259666 
	C630.547058,41.618740 622.693054,34.869633 610.612915,31.834194 
	C608.705261,31.556803 606.797791,31.038059 604.890015,31.036898 
	C536.116882,30.995001 467.343689,31.000988 398.570526,31.001144 
	C286.668457,31.001400 174.766373,30.994791 62.864334,31.063623 
	C60.909897,31.064825 58.956028,31.977093 56.531120,32.816399 
	C56.363689,32.918240 56.196262,33.020084 55.258671,33.016285 
	C41.501740,35.851933 32.918087,46.586018 32.919018,60.853203 
	C32.924023,137.511841 32.916801,214.170486 32.907558,290.829132 
	C32.894737,397.150787 32.874298,503.472473 32.862972,609.794128 
	C32.861557,623.080627 40.294094,633.030945 53.711636,637.206665 
	C55.486736,637.512756 57.261837,637.818848 59.681286,638.634583 
	C61.163742,638.755554 62.646191,638.982422 64.128654,638.982544 
	C245.031189,638.998352 425.933716,639.000671 606.836243,638.949097 
	C608.535217,638.948669 610.233887,638.219604 611.981567,637.469910 
	C611.981567,637.469910 612.070374,637.116882 612.859131,637.165222 
	C624.357727,635.107422 633.316589,625.274658 634.192993,613.678833 
	C634.192993,613.678833 634.117065,613.301025 634.485779,612.996033 
	C634.695984,612.699341 634.703979,612.397339 634.706787,611.382568 
	C634.649597,610.900208 634.592407,610.417847 634.701538,609.502808 
	C634.701538,609.502808 634.557068,609.062256 634.755310,608.356995 
	C634.710266,607.874023 634.665222,607.390991 634.812744,606.001038 
	C634.825745,604.834351 634.849854,603.667725 634.850098,602.501038 
	C634.878662,448.178162 634.918640,293.855286 634.919739,139.532410 
	C634.919922,113.707771 634.751526,87.883141 634.818542,61.290699 
	C634.756104,60.514069 634.693665,59.737442 634.760254,58.378105 
	C634.564148,58.046867 634.368042,57.715630 634.359070,56.715824 
z"/>
<path fill="#000000" opacity="1.000000" stroke="none" 
	d="
M667.000000,48.531342 
	C664.689758,44.221363 662.710693,39.242546 659.976624,34.720135 
	C657.216675,30.154890 654.122498,25.639330 650.421875,21.834120 
	C645.879211,17.163044 640.873840,12.771076 635.456360,9.182489 
	C631.932678,6.848332 627.265625,6.291375 623.218018,4.670627 
	C621.692993,4.060004 620.470032,2.695167 619.054688,1.337076 
	C634.926758,1.000000 650.853455,1.000000 667.000000,1.000000 
	C667.000000,16.686876 667.000000,32.374779 667.000000,48.531342 
z"/>
<path fill="#000000" opacity="1.000000" stroke="none" 
	d="
M52.000008,1.999980 
	C47.445763,3.230693 42.817337,4.240900 38.354168,5.742343 
	C31.151972,8.165216 25.485365,12.556821 20.460266,18.463449 
	C15.995748,23.711157 10.087284,27.726057 7.664533,34.599472 
	C6.075257,39.108288 4.475176,43.613293 2.527865,48.533806 
	C1.783864,48.965069 1.391932,48.982536 1.000000,49.000000 
	C1.000000,33.071037 1.000000,17.142073 1.000000,1.000000 
	C17.686956,1.000000 34.374821,1.000000 51.502895,1.249995 
	C51.962074,1.666654 51.981041,1.833317 52.000008,1.999980 
z"/>
<path fill="#000000" opacity="1.000000" stroke="none" 
	d="
M616.008484,667.978088 
	C616.473877,667.371948 617.012939,666.193970 617.393921,666.243103 
	C627.554626,667.552063 634.966858,661.717773 642.873474,656.855652 
	C651.520630,651.537964 656.117554,643.502991 659.729919,634.447266 
	C661.441528,630.156555 664.081299,626.236145 666.650269,622.073975 
	C667.000000,637.596375 667.000000,653.192810 667.000000,669.000000 
	C650.313049,669.000000 633.625183,669.000000 616.502686,668.744751 
	C616.048218,668.319092 616.028381,668.148560 616.008484,667.978088 
z"/>
<path fill="#000000" opacity="1.000000" stroke="none" 
	d="
M0.999998,620.468628 
	C1.910000,621.012756 3.547399,621.976868 3.618763,623.045654 
	C4.434135,635.256470 10.817892,644.283142 19.238897,652.544617 
	C24.732805,657.934387 31.049608,661.723450 37.997417,664.518066 
	C40.517864,665.531921 43.595348,665.160950 46.423756,665.705627 
	C46.166573,666.263123 45.904301,666.536743 45.642029,666.810425 
	C45.845669,666.997009 46.049309,667.183594 46.252930,667.370239 
	C46.524361,666.935181 46.795803,666.500183 47.067253,666.065186 
	C48.433369,666.047791 49.799480,666.030457 51.582146,666.363281 
	C52.010876,667.172485 52.023045,667.631531 52.009281,668.317261 
	C51.983345,668.543945 52.000000,669.000000 52.000000,669.000000 
	C35.074718,669.000000 18.149435,669.000000 1.000000,669.000000 
	C1.000000,652.979797 1.000000,636.958557 0.999998,620.468628 
z"/>
<path fill="#B8B8B7" opacity="1.000000" stroke="none" 
	d="
M2.168679,53.985069 
	C2.103426,83.796471 1.984210,113.607872 1.981944,143.419281 
	C1.969953,301.178497 1.987495,458.937683 1.986599,616.696899 
	C1.986597,617.022583 1.864959,617.348328 1.400067,617.837036 
	C1.000000,429.642578 1.000000,241.285187 1.336419,52.517479 
	C1.838119,52.733147 2.003399,53.359108 2.168679,53.985069 
z"/>
<path fill="#D3D3D5" opacity="1.000000" stroke="none" 
	d="
M52.461254,669.000000 
	C52.000000,669.000000 51.983345,668.543945 52.333786,668.262207 
	C53.118977,667.934875 53.553730,667.889221 53.988487,667.843567 
	C60.144627,667.906982 66.300766,668.025269 72.456909,668.025696 
	C250.504501,668.038025 428.552094,668.039429 606.599670,668.033936 
	C609.429382,668.033875 612.259155,667.926819 615.548706,667.923889 
	C616.028381,668.148560 616.048218,668.319092 616.033997,668.744751 
	C428.307495,669.000000 240.615005,669.000000 52.461254,669.000000 
z"/>
<path fill="#D0CFD0" opacity="1.000000" stroke="none" 
	d="
M52.460281,2.064514 
	C51.981041,1.833317 51.962074,1.666654 51.971554,1.249995 
	C239.690750,1.000000 427.381500,1.000000 615.536133,0.999999 
	C615.044495,1.335421 614.089111,1.964598 613.133545,1.964739 
	C432.225494,1.991363 251.317459,1.971734 70.409409,1.964204 
	C64.579788,1.963961 58.750172,2.071665 52.460281,2.064514 
z"/>
<path fill="#FEFEFE" opacity="1.000000" stroke="none" 
	d="
M667.000000,615.532166 
	C666.641724,615.843079 666.283508,615.686096 665.888672,614.798584 
	C665.871277,574.119507 665.901184,534.170959 665.907043,494.222382 
	C665.916504,429.473145 665.910278,364.723938 666.183044,299.979431 
	C666.636963,299.989471 666.818481,299.994751 667.000000,300.000000 
	C667.000000,405.021454 667.000000,510.042877 667.000000,615.532166 
z"/>
<path fill="#FDFEFE" opacity="1.000000" stroke="none" 
	d="
M665.638123,55.016541 
	C665.885925,54.353851 666.133728,53.691162 666.690796,53.014236 
	C667.000000,134.354233 667.000000,215.708450 666.727722,297.539307 
	C666.273926,298.018066 666.092346,298.020264 665.878235,297.553345 
	C665.849426,228.367447 665.863586,159.650681 665.846863,90.933929 
	C665.843994,78.961449 665.710999,66.989006 665.638123,55.016541 
z"/>
<path fill="#060607" opacity="1.000000" stroke="none" 
	d="
M2.508971,53.896744 
	C2.003399,53.359108 1.838119,52.733147 1.336419,52.053593 
	C1.000000,51.250000 1.000000,50.500000 1.000000,49.375000 
	C1.391932,48.982536 1.783864,48.965069 2.464320,48.918739 
	C2.784984,50.529392 2.817124,52.168907 2.508971,53.896744 
z"/>
<path fill="#393837" opacity="1.000000" stroke="none" 
	d="
M665.910706,298.022461 
	C666.092346,298.020264 666.273926,298.018066 666.727722,298.007935 
	C667.000000,298.444336 667.000000,298.888672 667.000000,299.666504 
	C666.818481,299.994751 666.636963,299.989471 665.930603,299.871429 
	C665.574097,299.179962 665.742432,298.601196 665.910706,298.022461 
z"/>
<path fill="#FDDB17" opacity="1.000000" stroke="none" 
	d="
M633.971130,613.993835 
	C633.316589,625.274658 624.357727,635.107422 612.164429,636.840820 
	C609.834473,636.344360 608.199097,636.021667 606.563782,636.021484 
	C423.810760,635.998352 241.057755,635.996948 58.304745,636.034058 
	C56.544521,636.034424 54.784405,636.565369 53.024239,636.848633 
	C40.294094,633.030945 32.861557,623.080627 32.862972,609.794128 
	C32.874298,503.472473 32.894737,397.150787 32.907558,290.829132 
	C32.916801,214.170486 32.924023,137.511841 32.919018,60.853203 
	C32.918087,46.586018 41.501740,35.851933 55.966866,33.324364 
	C58.157139,33.753792 59.639210,33.981319 61.121296,33.981445 
	C242.677490,33.996967 424.233673,33.998436 605.789856,33.954933 
	C607.530212,33.954517 609.270386,33.344955 610.908264,32.913395 
	C610.805847,32.807011 610.890442,32.524033 610.890442,32.524033 
	C622.693054,34.869633 630.547058,41.618740 633.709229,53.949516 
	C633.403992,70.348846 633.403992,86.058319 633.403992,101.767792 
	C633.992676,93.983276 633.910522,86.193687 634.020874,78.406830 
	C634.098145,72.955460 634.438293,67.507812 634.661011,62.058502 
	C634.751526,87.883141 634.919922,113.707771 634.919739,139.532410 
	C634.918640,293.855286 634.878662,448.178162 634.850098,602.501038 
	C634.849854,603.667725 634.825745,604.834351 634.514893,606.105347 
	C634.139771,604.217590 633.995117,602.225586 633.994934,600.233521 
	C633.985046,471.075287 633.987061,341.917023 633.987854,212.758774 
	C633.987854,210.954041 633.987793,209.149292 633.987793,207.344559 
	C633.658630,207.357422 633.329407,207.370285 633.000244,207.383148 
	C633.000244,208.353836 633.000244,209.324509 633.000244,210.295197 
	C633.000183,343.286530 632.996704,476.277893 633.040222,609.269226 
	C633.040771,610.844238 633.647400,612.418945 633.971130,613.993835 
M63.496262,587.171936 
	C63.663795,587.472961 63.831326,587.774048 64.636131,588.607300 
	C65.781624,588.739685 66.927078,588.987488 68.072609,588.987854 
	C119.835899,589.004639 171.599213,589.010132 223.362442,588.945923 
	C224.880035,588.944092 226.396667,588.179749 227.919266,587.337830 
	C227.919266,587.337830 227.854172,586.909607 228.170609,586.254272 
	C234.419540,569.629517 240.631058,552.990662 246.927429,536.383850 
	C253.805145,518.243835 260.761414,500.133667 268.667328,482.008759 
	C312.440857,482.007996 356.214355,482.007263 400.453186,482.558685 
	C407.633057,501.832489 414.756653,521.127563 422.010437,540.373474 
	C427.908142,556.021423 433.961914,571.610657 439.922638,587.615784 
	C439.922638,587.615784 440.001770,587.998474 440.611786,588.566467 
	C441.254578,588.707764 441.897308,588.972351 442.540192,588.972656 
	C495.000458,588.994507 547.460754,589.006348 599.920959,588.937683 
	C601.208984,588.935974 602.495850,588.023987 603.656372,587.088318 
	C603.487671,586.707886 603.318970,586.327454 603.093628,585.191772 
	C589.614258,550.423157 576.203430,515.627808 562.639587,480.892120 
	C542.051270,428.167389 521.398743,375.467682 500.695190,322.788116 
	C480.356384,271.036621 459.941376,219.315018 439.517334,167.597061 
	C428.763672,140.366592 417.919250,113.171967 407.145508,85.482094 
	C407.145508,85.482094 406.920959,85.057892 406.993164,84.585983 
	C406.993164,84.585983 406.964417,84.109619 406.396027,83.500259 
	C405.261444,83.336128 404.126923,83.029152 402.992249,83.028450 
	C357.431427,83.000366 311.870636,82.992859 266.309845,83.028847 
	C264.873047,83.029984 263.436676,83.516068 261.463409,83.998886 
	C261.290802,84.321045 261.118225,84.643204 260.704346,85.400993 
	C260.704346,85.400993 260.676575,85.898209 260.182648,86.378922 
	C257.651337,92.895584 255.147980,99.423271 252.584473,105.927254 
	C219.685562,189.396500 186.731552,272.844086 153.888718,356.335388 
	C130.978043,414.577728 108.202644,472.873291 85.397316,531.156982 
	C78.790382,548.042419 72.288879,564.969055 65.278900,582.391541 
	C64.789970,583.926208 64.301041,585.460815 63.496262,587.171936 
M633.990234,187.489731 
	C633.990234,171.715698 633.990234,155.941666 633.990234,140.167633 
	C633.743042,140.169281 633.495911,140.170944 633.248718,140.172592 
	C633.248718,160.391418 633.248718,180.610229 633.248718,200.829041 
	C633.495911,200.834641 633.743042,200.840240 633.990234,200.845840 
	C633.990234,196.725006 633.990234,192.604187 633.990234,187.489731 
M633.000000,111.744926 
	C633.000000,116.712341 633.000000,121.679756 633.000000,126.647171 
	C633.216125,126.636024 633.432312,126.624886 633.648438,126.613739 
	C633.648438,119.878059 633.648438,113.142380 633.648438,106.406700 
	C633.432312,106.409737 633.216125,106.412773 633.000000,106.415810 
	C633.000000,107.889664 633.000000,109.363510 633.000000,111.744926 
M633.807007,131.094025 
	C633.590149,131.140305 633.373230,131.186569 633.156372,131.232864 
	C633.234009,131.515060 633.311707,131.797256 633.389404,132.079422 
	C633.554626,131.886459 633.719849,131.693497 633.807007,131.094025 
z"/>
<path fill="#080807" opacity="1.000000" stroke="none" 
	d="
M665.878235,297.553345 
	C665.742432,298.601196 665.574097,299.179962 665.658264,299.866699 
	C665.910278,364.723938 665.916504,429.473145 665.907043,494.222382 
	C665.901184,534.170959 665.871277,574.119507 665.756226,614.527100 
	C665.106018,612.921814 664.069214,610.857910 664.067139,608.793030 
	C663.986145,528.488953 664.000244,448.184845 664.000549,367.880737 
	C664.000916,265.751221 663.994690,163.621735 664.038757,61.492241 
	C664.039612,59.431969 664.620483,57.371948 665.284424,55.164177 
	C665.710999,66.989006 665.843994,78.961449 665.846863,90.933929 
	C665.863586,159.650681 665.849426,228.367447 665.878235,297.553345 
z"/>
<path fill="#020608" opacity="1.000000" stroke="none" 
	d="
M57.001892,32.464241 
	C58.956028,31.977093 60.909897,31.064825 62.864334,31.063623 
	C174.766373,30.994791 286.668457,31.001400 398.570526,31.001144 
	C467.343689,31.000988 536.116882,30.995001 604.890015,31.036898 
	C606.797791,31.038059 608.705261,31.556803 610.751709,32.179115 
	C610.890442,32.524033 610.805847,32.807011 610.453552,32.786652 
	C557.972229,32.706726 505.843231,32.599857 453.714203,32.597237 
	C337.628418,32.591404 221.542633,32.645756 105.456841,32.653454 
	C89.305199,32.654526 73.153542,32.530407 57.001892,32.464241 
z"/>
<path fill="#FEEA17" opacity="1.000000" stroke="none" 
	d="
M53.367935,637.027649 
	C54.784405,636.565369 56.544521,636.034424 58.304745,636.034058 
	C241.057755,635.996948 423.810760,635.998352 606.563782,636.021484 
	C608.199097,636.021667 609.834473,636.344360 611.770081,636.816650 
	C612.070374,637.116882 611.981567,637.469910 611.494019,637.640503 
	C593.346680,637.783325 575.686951,637.755432 557.862549,637.541382 
	C557.122620,637.484741 556.547363,637.614197 555.508301,637.800415 
	C540.037415,637.819641 525.030212,637.782104 509.758698,637.531799 
	C507.988281,637.465027 506.482147,637.611145 504.511719,637.810181 
	C484.040527,637.833618 464.033661,637.804138 443.817017,637.573364 
	C442.728851,637.506226 441.850464,637.640503 440.507935,637.827087 
	C431.371094,637.842590 422.698425,637.805664 413.708252,637.544312 
	C410.585114,637.467712 407.779449,637.615540 404.551514,637.815918 
	C402.428864,637.833069 400.728516,637.797791 398.818298,637.560974 
	C397.729462,637.498779 396.850525,637.638062 395.510254,637.831421 
	C390.374146,637.852051 385.699371,637.818604 380.727295,637.565430 
	C378.278503,637.493835 376.127014,637.642029 373.510925,637.840515 
	C359.705627,637.858643 346.364960,637.826538 332.782684,637.585938 
	C331.352509,637.518250 330.163910,637.658936 328.510895,637.851440 
	C319.041748,637.861084 310.037079,637.818909 300.928406,637.635742 
	C300.538452,637.591675 300.252502,637.688599 299.505554,637.839844 
	C294.372711,637.855835 289.700958,637.817566 284.862183,637.595459 
	C284.120392,637.536255 283.545654,637.660889 282.510956,637.838623 
	C277.709106,637.849426 273.367188,637.807129 268.816040,637.563599 
	C267.729614,637.497070 266.852417,637.631714 265.519104,637.819214 
	C261.382538,637.828796 257.702118,637.785583 253.712463,637.521606 
	C250.927841,637.453613 248.452438,637.606445 245.537598,637.809937 
	C242.739624,637.822815 240.381073,637.785095 237.740265,637.530334 
	C235.630920,637.458740 233.803833,637.604248 231.527237,637.801575 
	C228.059647,637.819885 225.041565,637.786377 221.714554,637.531067 
	C218.929001,637.463196 216.452408,637.617126 213.511322,637.822632 
	C200.038849,637.828491 187.030884,637.782837 173.739059,637.522095 
	C171.628662,637.458618 169.802109,637.610168 167.526093,637.813354 
	C164.059418,637.827881 161.042206,637.790833 157.715790,637.532349 
	C154.929230,637.460632 152.451874,637.610352 149.509995,637.810303 
	C125.041504,637.825623 101.037537,637.790771 76.931213,637.611328 
	C76.541122,637.565918 76.253403,637.665039 75.503326,637.819702 
	C69.706299,637.958435 64.371613,638.041687 59.036934,638.124939 
	C57.261837,637.818848 55.486736,637.512756 53.367935,637.027649 
z"/>
<path fill="#FEF52D" opacity="1.000000" stroke="none" 
	d="
M56.766506,32.640320 
	C73.153542,32.530407 89.305199,32.654526 105.456841,32.653454 
	C221.542633,32.645756 337.628418,32.591404 453.714203,32.597237 
	C505.843231,32.599857 557.972229,32.706726 610.555969,32.893036 
	C609.270386,33.344955 607.530212,33.954517 605.789856,33.954933 
	C424.233673,33.998436 242.677490,33.996967 61.121296,33.981445 
	C59.639210,33.981319 58.157139,33.753792 56.351944,33.377182 
	C56.196262,33.020084 56.363689,32.918240 56.766506,32.640320 
z"/>
<path fill="#070A06" opacity="1.000000" stroke="none" 
	d="
M333.024261,637.794434 
	C346.364960,637.826538 359.705627,637.858643 373.942505,637.944702 
	C376.900635,637.927368 378.962646,637.856262 381.024628,637.785156 
	C385.699371,637.818604 390.374146,637.852051 395.886261,637.931702 
	C397.491821,637.906128 398.259979,637.834351 399.028168,637.762573 
	C400.728516,637.797791 402.428864,637.833069 404.994385,637.922180 
	C408.581604,637.906921 411.303680,637.837830 414.025757,637.768799 
	C422.698425,637.805664 431.371094,637.842590 440.883148,637.929077 
	C442.490631,637.910706 443.258728,637.842651 444.026825,637.774658 
	C464.033661,637.804138 484.040527,637.833618 504.924286,637.912720 
	C507.208466,637.889771 508.615753,637.817200 510.023010,637.744629 
	C525.030212,637.782104 540.037415,637.819641 555.846680,637.899902 
	C557.108276,637.870911 557.567688,637.799194 558.027161,637.727539 
	C575.686951,637.755432 593.346680,637.783325 611.469604,637.820923 
	C610.233887,638.219604 608.535217,638.948669 606.836243,638.949097 
	C425.933716,639.000671 245.031189,638.998352 64.128654,638.982544 
	C62.646191,638.982422 61.163742,638.755554 59.359108,638.379761 
	C64.371613,638.041687 69.706299,637.958435 75.770996,637.902832 
	C76.678535,637.872192 76.856056,637.814087 77.033569,637.755920 
	C101.037537,637.790771 125.041504,637.825623 149.947571,637.915894 
	C153.241425,637.898804 155.633209,637.826294 158.024979,637.753784 
	C161.042206,637.790833 164.059418,637.827881 167.949646,637.916199 
	C170.556061,637.890686 172.289490,637.813904 174.022903,637.737122 
	C187.030884,637.782837 200.038849,637.828491 213.949127,637.926147 
	C217.242111,637.903076 219.632812,637.828003 222.023499,637.752930 
	C225.041565,637.786377 228.059647,637.819885 231.950043,637.906738 
	C234.555756,637.889221 236.289139,637.818298 238.022522,637.747437 
	C240.381073,637.785095 242.739624,637.822815 245.974915,637.915222 
	C249.241684,637.894043 251.631683,637.818176 254.021698,637.742371 
	C257.702118,637.785583 261.382538,637.828796 265.893677,637.921509 
	C267.491364,637.902283 268.258301,637.833557 269.025269,637.764832 
	C273.367188,637.807129 277.709106,637.849426 282.849731,637.935730 
	C284.108673,637.912964 284.568939,637.846130 285.029175,637.779358 
	C289.700958,637.817566 294.372711,637.855835 299.772705,637.921021 
	C300.678101,637.890930 300.855225,637.833801 301.032379,637.776733 
	C310.037079,637.818909 319.041748,637.861084 328.908508,637.952332 
	C330.855164,637.932434 331.939697,637.863403 333.024261,637.794434 
z"/>
<path fill="#FEE713" opacity="1.000000" stroke="none" 
	d="
M634.082031,613.836304 
	C633.647400,612.418945 633.040771,610.844238 633.040222,609.269226 
	C632.996704,476.277893 633.000183,343.286530 633.000244,210.295197 
	C633.000244,209.324509 633.000244,208.353836 633.000244,207.383148 
	C633.329407,207.370285 633.658630,207.357422 633.987793,207.344559 
	C633.987793,209.149292 633.987854,210.954041 633.987854,212.758774 
	C633.987061,341.917023 633.985046,471.075287 633.994934,600.233521 
	C633.995117,602.225586 634.139771,604.217590 634.418579,606.558838 
	C634.665222,607.390991 634.710266,607.874023 634.555054,608.798462 
	C634.224609,609.514282 634.284729,609.746094 634.535217,609.935486 
	C634.592407,610.417847 634.649597,610.900208 634.476746,611.911987 
	C634.115784,612.714661 634.072571,613.001221 634.117065,613.301025 
	C634.117065,613.301025 634.192993,613.678833 634.082031,613.836304 
z"/>
<path fill="#FEE713" opacity="1.000000" stroke="none" 
	d="
M634.739807,61.674603 
	C634.438293,67.507812 634.098145,72.955460 634.020874,78.406830 
	C633.910522,86.193687 633.992676,93.983276 633.403992,101.767792 
	C633.403992,86.058319 633.403992,70.348846 633.674988,54.325783 
	C634.083679,54.913406 634.221375,55.814617 634.258972,57.335381 
	C634.316345,58.290226 634.473755,58.625519 634.631226,58.960812 
	C634.693665,59.737442 634.756104,60.514069 634.739807,61.674603 
z"/>
<path fill="#060707" opacity="1.000000" stroke="none" 
	d="
M53.933090,667.542969 
	C53.553730,667.889221 53.118977,667.934875 52.359718,668.035522 
	C52.023045,667.631531 52.010876,667.172485 51.992081,666.369629 
	C52.616199,666.431335 53.246944,666.836914 53.933090,667.542969 
z"/>
<path fill="#FDDB17" opacity="1.000000" stroke="none" 
	d="
M634.301392,613.148560 
	C634.072571,613.001221 634.115784,612.714661 634.378235,612.265625 
	C634.703979,612.397339 634.695984,612.699341 634.301392,613.148560 
z"/>
<path fill="#FDDB17" opacity="1.000000" stroke="none" 
	d="
M634.618408,609.719116 
	C634.284729,609.746094 634.224609,609.514282 634.455933,609.151123 
	C634.557068,609.062256 634.701538,609.502808 634.618408,609.719116 
z"/>
<path fill="#FDDB17" opacity="1.000000" stroke="none" 
	d="
M634.695740,58.669456 
	C634.473755,58.625519 634.316345,58.290226 634.165405,57.669662 
	C634.368042,57.715630 634.564148,58.046867 634.695740,58.669456 
z"/>
<path fill="#131313" opacity="1.000000" stroke="none" 
	d="
M47.035160,666.033752 
	C46.795803,666.500183 46.524361,666.935181 46.252930,667.370239 
	C46.049309,667.183594 45.845669,666.997009 45.642029,666.810425 
	C45.904301,666.536743 46.166573,666.263123 46.684349,665.963989 
	C46.939850,665.938477 47.003075,666.002319 47.035160,666.033752 
z"/>
<path fill="#141413" opacity="1.000000" stroke="none" 
	d="
M65.739044,581.876831 
	C72.288879,564.969055 78.790382,548.042419 85.397316,531.156982 
	C108.202644,472.873291 130.978043,414.577728 153.888718,356.335388 
	C186.731552,272.844086 219.685562,189.396500 252.584473,105.927254 
	C255.147980,99.423271 257.651337,92.895584 260.856323,86.162949 
	C263.674469,85.487213 265.818970,85.027443 268.407837,84.438858 
	C272.238251,84.377228 275.624298,84.444420 279.183472,84.845779 
	C280.767395,85.452988 282.178070,85.963501 283.589111,85.964523 
	C324.764648,85.994560 365.940247,85.973785 407.115814,85.961151 
	C417.919250,113.171967 428.763672,140.366592 439.517334,167.597061 
	C459.941376,219.315018 480.356384,271.036621 500.695190,322.788116 
	C521.398743,375.467682 542.051270,428.167389 562.639587,480.892120 
	C576.203430,515.627808 589.614258,550.423157 602.643555,585.583923 
	C587.435425,585.984192 572.677063,585.949829 557.919800,586.060425 
	C556.287231,586.072632 554.660889,586.912964 552.606934,587.508728 
	C550.110596,587.559204 548.038940,587.470093 545.791565,587.060303 
	C541.421814,586.955627 537.227783,587.171692 532.615723,587.523926 
	C530.453613,587.569458 528.709534,587.478760 526.788757,587.063843 
	C526.018616,586.500671 525.425964,586.055542 524.831665,586.053223 
	C512.868958,586.006042 500.905823,585.978455 488.943542,586.062134 
	C487.969818,586.068970 487.001923,586.906860 485.607117,587.499573 
	C483.111755,587.551575 481.040588,587.462708 478.790161,587.051208 
	C469.420959,586.774414 460.231049,586.820312 450.665466,586.919861 
	C448.834198,587.179016 447.378571,587.384399 445.541382,587.623047 
	C444.139465,587.637451 443.119110,587.618713 441.954041,587.416382 
	C441.532471,587.087769 441.245209,586.967285 440.886902,586.740356 
	C440.596497,586.378540 440.346619,586.372192 440.008636,586.741821 
	C439.940643,586.893494 439.946472,587.225891 439.946472,587.225891 
	C433.961914,571.610657 427.908142,556.021423 422.010437,540.373474 
	C414.756653,521.127563 407.633057,501.832489 400.243378,482.004700 
	C399.999359,481.083038 399.965149,480.715393 399.690369,479.999084 
	C398.170807,479.433258 396.891907,479.027313 395.612701,479.026337 
	C354.597382,478.995483 313.582031,478.989990 272.566803,479.061218 
	C271.068512,479.063812 269.571564,479.876099 268.029541,480.600647 
	C267.884552,481.263641 267.784027,481.637054 267.683472,482.010468 
	C260.761414,500.133667 253.805145,518.243835 246.927429,536.383850 
	C240.631058,552.990662 234.419540,569.629517 227.772522,586.569336 
	C227.374451,586.884460 226.897995,586.823303 226.586624,586.577515 
	C222.193649,586.684814 218.112030,587.037903 213.604263,587.524414 
	C211.108475,587.567505 209.038864,587.477295 206.798828,587.068115 
	C203.095016,586.952820 199.561615,587.156494 195.636719,587.499634 
	C194.153671,587.547974 193.062134,587.456970 191.790604,587.044006 
	C191.014221,586.487915 190.418518,586.051392 189.821320,586.049377 
	C176.855728,586.004700 163.889801,585.979126 150.924622,586.062622 
	C149.956894,586.068848 148.994629,586.924011 147.637451,587.521240 
	C146.152893,587.568970 145.060715,587.480103 143.792374,587.066101 
	C143.022598,586.501099 142.429764,586.053955 141.835312,586.051758 
	C129.196915,586.005310 116.558144,585.978577 103.920204,586.062683 
	C102.953629,586.069092 101.992722,586.928406 100.597290,587.526978 
	C97.766586,587.558594 95.367767,587.454529 92.824646,587.065002 
	C90.796745,586.967041 88.913132,587.154480 86.580627,587.485657 
	C80.114517,587.645935 74.097313,587.662537 67.866928,587.487244 
	C67.095390,587.162720 66.537048,587.030151 65.993393,586.544312 
	C65.918404,584.753052 65.828720,583.314941 65.739044,581.876831 
M178.413025,373.679657 
	C177.016647,375.638672 175.170105,377.416687 174.297653,379.586395 
	C169.019592,392.712158 163.998795,405.941010 158.828049,419.110291 
	C141.248184,463.883972 123.634857,508.644531 106.072792,553.425232 
	C105.439796,555.039246 105.211563,556.812073 104.645020,559.120850 
	C107.854004,559.365967 110.460365,559.734558 113.067238,559.738220 
	C142.221176,559.779175 171.376801,559.603516 200.527832,559.896851 
	C206.467484,559.956665 209.420670,558.044250 211.461487,552.464966 
	C222.781097,521.518921 234.456390,490.703094 245.944702,459.818451 
	C247.380569,455.958344 248.431000,452.645996 253.895584,452.664612 
	C307.205139,452.846130 360.515594,452.812958 413.825562,452.713440 
	C417.636688,452.706329 419.443604,454.114441 420.739044,457.605316 
	C432.609283,489.591339 444.723785,521.487000 456.498322,553.507874 
	C458.234863,558.230408 460.701904,559.867249 465.621735,559.839905 
	C495.774323,559.672302 525.928406,559.781372 556.081909,559.740417 
	C558.328247,559.737366 560.573914,559.282715 563.425232,558.971985 
	C562.341187,555.769531 561.593872,553.238892 560.638123,550.789612 
	C552.772278,530.632385 544.832214,510.504089 536.982605,490.340576 
	C522.491333,453.116180 508.089722,415.856720 493.472229,378.682098 
	C492.608856,376.486389 490.163086,374.912903 489.023590,372.393250 
	C488.830444,368.902344 489.479584,365.095306 488.307404,361.971802 
	C480.701202,341.703644 472.763184,321.558685 464.810791,301.421997 
	C452.822723,271.066223 440.700104,240.763611 428.697662,210.413513 
	C416.876617,180.522079 405.188904,150.577850 393.325836,120.703163 
	C389.400848,110.818970 386.772766,109.224083 376.009369,109.205551 
	C360.058624,109.178078 344.106445,109.066940 328.157501,109.236511 
	C314.014008,109.386879 299.875061,109.930374 285.731995,110.178810 
	C280.251831,110.275078 277.346344,113.201653 275.454590,118.040947 
	C265.328827,143.943420 255.054382,169.787674 244.885376,195.673279 
	C232.098145,228.223770 219.404419,260.811035 206.591583,293.351471 
	C197.379913,316.746094 187.919724,340.044037 178.914062,363.516998 
	C177.839493,366.317810 178.927811,369.948425 178.413025,373.679657 
z"/>
<path fill="#FEF322" opacity="1.000000" stroke="none" 
	d="
M268.175415,482.009613 
	C267.784027,481.637054 267.884552,481.263641 268.337555,480.569641 
	C269.101196,480.261078 269.512421,480.273102 270.132080,480.497467 
	C271.254791,480.587158 272.169006,480.464447 273.544952,480.303650 
	C315.981445,480.292908 357.956177,480.320343 399.930939,480.347748 
	C399.965149,480.715393 399.999359,481.083038 400.010742,481.728607 
	C356.214355,482.007263 312.440857,482.007996 268.175415,482.009613 
z"/>
<path fill="#05080F" opacity="1.000000" stroke="none" 
	d="
M407.130676,85.721619 
	C365.940247,85.973785 324.764648,85.994560 283.589111,85.964523 
	C282.178070,85.963501 280.767395,85.452988 279.642578,84.749687 
	C321.586395,84.315849 363.244202,84.312271 405.088501,84.519623 
	C405.823639,84.839661 406.372314,84.948776 406.920959,85.057892 
	C406.920959,85.057892 407.145508,85.482094 407.130676,85.721619 
z"/>
<path fill="#FDEC1C" opacity="1.000000" stroke="none" 
	d="
M442.098724,587.599915 
	C443.119110,587.618713 444.139465,587.637451 445.966339,587.766235 
	C448.250092,587.775879 449.727356,587.675476 451.659027,587.602783 
	C461.065430,587.544983 470.017426,587.459412 478.969421,587.373840 
	C481.040588,587.462708 483.111755,587.551575 486.057922,587.625366 
	C500.277130,587.536194 513.621338,587.462158 526.965515,587.388062 
	C528.709534,587.478760 530.453613,587.569458 533.061279,587.648438 
	C537.939087,587.551453 541.953186,587.466248 545.967346,587.380981 
	C548.038940,587.470093 550.110596,587.559204 553.057739,587.634521 
	C569.580261,587.581238 585.227234,587.541748 601.186890,587.625916 
	C601.710388,587.673523 601.921265,587.597473 602.407349,587.538513 
	C603.049438,587.549316 603.416321,587.542908 603.783203,587.536621 
	C602.495850,588.023987 601.208984,588.935974 599.920959,588.937683 
	C547.460754,589.006348 495.000458,588.994507 442.540192,588.972656 
	C441.897308,588.972351 441.254578,588.707764 440.666840,588.264282 
	C441.180847,587.841431 441.639771,587.720642 442.098724,587.599915 
z"/>
<path fill="#FEEE1D" opacity="1.000000" stroke="none" 
	d="
M206.969238,587.387146 
	C209.038864,587.477295 211.108475,587.567505 214.038422,587.646790 
	C217.899170,587.620544 220.899612,587.605225 224.279663,587.743164 
	C225.744095,587.854553 226.828918,587.812744 227.913757,587.770935 
	C226.396667,588.179749 224.880035,588.944092 223.362442,588.945923 
	C171.599213,589.010132 119.835899,589.004639 68.072609,588.987854 
	C66.927078,588.987488 65.781624,588.739685 64.729218,588.314575 
	C65.908249,587.907715 66.994179,587.793457 68.080109,587.679199 
	C74.097313,587.662537 80.114517,587.645935 86.991295,587.611572 
	C89.556892,587.512695 91.262917,587.431580 92.968948,587.350464 
	C95.367767,587.454529 97.766586,587.558594 101.049347,587.648254 
	C115.945038,587.552979 129.956787,587.472107 143.968552,587.391235 
	C145.060715,587.480103 146.152893,587.568970 148.089081,587.643982 
	C163.278915,587.542053 177.624756,587.454041 191.970581,587.365967 
	C193.062134,587.456970 194.153671,587.547974 196.077637,587.624634 
	C200.263123,587.535828 203.616180,587.461487 206.969238,587.387146 
z"/>
<path fill="#FEF21C" opacity="1.000000" stroke="none" 
	d="
M404.902039,84.308701 
	C363.244202,84.312271 321.586395,84.315849 279.469452,84.415520 
	C275.624298,84.444420 272.238251,84.377228 268.015808,84.325089 
	C265.816650,84.319992 264.453888,84.299835 262.832520,84.123108 
	C262.382629,83.903053 262.191345,83.839561 262.000092,83.776077 
	C263.436676,83.516068 264.873047,83.029984 266.309845,83.028847 
	C311.870636,82.992859 357.431427,83.000366 402.992249,83.028450 
	C404.126923,83.029152 405.261444,83.336128 406.328918,83.766541 
	C405.808563,84.124779 405.355316,84.216736 404.902039,84.308701 
z"/>
<path fill="#05080E" opacity="1.000000" stroke="none" 
	d="
M603.719788,587.312439 
	C603.416321,587.542908 603.049438,587.549316 602.292114,587.372864 
	C601.559204,587.294128 601.216675,587.398132 600.874146,587.502197 
	C585.227234,587.541748 569.580261,587.581238 553.482483,587.494995 
	C554.660889,586.912964 556.287231,586.072632 557.919800,586.060425 
	C572.677063,585.949829 587.435425,585.984192 602.671814,585.961548 
	C603.318970,586.327454 603.487671,586.707886 603.719788,587.312439 
z"/>
<path fill="#FEE713" opacity="1.000000" stroke="none" 
	d="
M633.990234,187.986542 
	C633.990234,192.604187 633.990234,196.725006 633.990234,200.845840 
	C633.743042,200.840240 633.495911,200.834641 633.248718,200.829041 
	C633.248718,180.610229 633.248718,160.391418 633.248718,140.172592 
	C633.495911,140.170944 633.743042,140.169281 633.990234,140.167633 
	C633.990234,155.941666 633.990234,171.715698 633.990234,187.986542 
z"/>
<path fill="#FEE713" opacity="1.000000" stroke="none" 
	d="
M633.000000,111.291145 
	C633.000000,109.363510 633.000000,107.889664 633.000000,106.415810 
	C633.216125,106.412773 633.432312,106.409737 633.648438,106.406700 
	C633.648438,113.142380 633.648438,119.878059 633.648438,126.613739 
	C633.432312,126.624886 633.216125,126.636024 633.000000,126.647171 
	C633.000000,121.679756 633.000000,116.712341 633.000000,111.291145 
z"/>
<path fill="#05080F" opacity="1.000000" stroke="none" 
	d="
M263.091095,84.279686 
	C264.453888,84.299835 265.816650,84.319992 267.571472,84.453911 
	C265.818970,85.027443 263.674469,85.487213 261.103271,85.922592 
	C260.676575,85.898209 260.704346,85.400993 261.114166,85.149994 
	C262.046356,84.692558 262.568726,84.486122 263.091095,84.279686 
z"/>
<path fill="#06090E" opacity="1.000000" stroke="none" 
	d="
M65.508972,582.134155 
	C65.828720,583.314941 65.918404,584.753052 65.633835,586.586914 
	C64.777100,586.986938 64.294609,586.991211 63.812119,586.995483 
	C64.301041,585.460815 64.789970,583.926208 65.508972,582.134155 
z"/>
<path fill="#695F1C" opacity="1.000000" stroke="none" 
	d="
M63.654190,587.083679 
	C64.294609,586.991211 64.777100,586.986938 65.619141,586.940063 
	C66.537048,587.030151 67.095390,587.162720 67.866928,587.487305 
	C66.994179,587.793457 65.908249,587.907715 64.410583,588.048462 
	C63.831326,587.774048 63.663795,587.472961 63.654190,587.083679 
z"/>
<path fill="#695F1C" opacity="1.000000" stroke="none" 
	d="
M227.916504,587.554382 
	C226.828918,587.812744 225.744095,587.854553 224.526672,587.543213 
	C225.228714,587.067810 226.063354,586.945557 226.897995,586.823303 
	C226.897995,586.823303 227.374451,586.884460 227.614319,586.897034 
	C227.854172,586.909607 227.919266,587.337830 227.916504,587.554382 
z"/>
<path fill="#FEE713" opacity="1.000000" stroke="none" 
	d="
M633.846069,131.297272 
	C633.719849,131.693497 633.554626,131.886459 633.389404,132.079437 
	C633.311707,131.797256 633.234009,131.515060 633.156372,131.232849 
	C633.373230,131.186569 633.590149,131.140305 633.846069,131.297272 
z"/>
<path fill="#655F1B" opacity="1.000000" stroke="none" 
	d="
M405.088501,84.519623 
	C405.355316,84.216736 405.808563,84.124779 406.613129,84.071220 
	C406.964417,84.109619 406.993164,84.585983 406.957062,84.821938 
	C406.372314,84.948776 405.823639,84.839661 405.088501,84.519623 
z"/>
<path fill="#655F1B" opacity="1.000000" stroke="none" 
	d="
M262.832520,84.123108 
	C262.568726,84.486122 262.046356,84.692558 261.234802,84.932175 
	C261.118225,84.643204 261.290802,84.321045 261.731750,83.887482 
	C262.191345,83.839561 262.382629,83.903053 262.832520,84.123108 
z"/>
<path fill="#685E1B" opacity="1.000000" stroke="none" 
	d="
M441.954041,587.416382 
	C441.639771,587.720642 441.180847,587.841431 440.361816,587.980347 
	C440.001770,587.998474 439.922638,587.615784 439.934570,587.420837 
	C439.946472,587.225891 439.940643,586.893494 440.210327,586.861816 
	C440.480011,586.830200 440.947601,586.871521 440.947601,586.871521 
	C441.245209,586.967285 441.532471,587.087769 441.954041,587.416382 
z"/>
<path fill="#CCBF1E" opacity="1.000000" stroke="none" 
	d="
M413.708252,637.544312 
	C411.303680,637.837830 408.581604,637.906921 405.416656,637.869751 
	C407.779449,637.615540 410.585114,637.467712 413.708252,637.544312 
z"/>
<path fill="#CCBF1E" opacity="1.000000" stroke="none" 
	d="
M253.712463,637.521606 
	C251.631683,637.818176 249.241684,637.894043 246.414352,637.864624 
	C248.452438,637.606445 250.927841,637.453613 253.712463,637.521606 
z"/>
<path fill="#CCBF1E" opacity="1.000000" stroke="none" 
	d="
M221.714554,637.531067 
	C219.632812,637.828003 217.242111,637.903076 214.413605,637.874634 
	C216.452408,637.617126 218.929001,637.463196 221.714554,637.531067 
z"/>
<path fill="#CCBF1E" opacity="1.000000" stroke="none" 
	d="
M157.715790,637.532349 
	C155.633209,637.826294 153.241425,637.898804 150.412079,637.865723 
	C152.451874,637.610352 154.929230,637.460632 157.715790,637.532349 
z"/>
<path fill="#CCBF1E" opacity="1.000000" stroke="none" 
	d="
M380.727295,637.565430 
	C378.962646,637.856262 376.900635,637.927368 374.407104,637.894409 
	C376.127014,637.642029 378.278503,637.493835 380.727295,637.565430 
z"/>
<path fill="#CCBF1E" opacity="1.000000" stroke="none" 
	d="
M237.740265,637.530396 
	C236.289139,637.818298 234.555756,637.889221 232.399567,637.854980 
	C233.803833,637.604248 235.630920,637.458740 237.740265,637.530396 
z"/>
<path fill="#CCBF1E" opacity="1.000000" stroke="none" 
	d="
M173.739059,637.522095 
	C172.289490,637.813904 170.556061,637.890686 168.399109,637.864624 
	C169.802109,637.610168 171.628662,637.458618 173.739059,637.522095 
z"/>
<path fill="#CCBF1E" opacity="1.000000" stroke="none" 
	d="
M509.758698,637.531799 
	C508.615753,637.817200 507.208466,637.889771 505.388611,637.859741 
	C506.482147,637.611145 507.988281,637.465027 509.758698,637.531799 
z"/>
<path fill="#CCBF1E" opacity="1.000000" stroke="none" 
	d="
M332.782684,637.585938 
	C331.939697,637.863403 330.855164,637.932434 329.372986,637.900513 
	C330.163910,637.658936 331.352509,637.518250 332.782684,637.585938 
z"/>
<path fill="#CCBF1E" opacity="1.000000" stroke="none" 
	d="
M443.817017,637.573364 
	C443.258728,637.842651 442.490631,637.910706 441.347290,637.876709 
	C441.850464,637.640503 442.728851,637.506226 443.817017,637.573364 
z"/>
<path fill="#CCBF1E" opacity="1.000000" stroke="none" 
	d="
M268.816040,637.563599 
	C268.258301,637.833557 267.491364,637.902283 266.349792,637.868652 
	C266.852417,637.631714 267.729614,637.497070 268.816040,637.563599 
z"/>
<path fill="#CCBF1E" opacity="1.000000" stroke="none" 
	d="
M398.818298,637.561035 
	C398.259979,637.834351 397.491821,637.906128 396.347595,637.877625 
	C396.850525,637.638062 397.729462,637.498779 398.818298,637.561035 
z"/>
<path fill="#CCBF1E" opacity="1.000000" stroke="none" 
	d="
M557.862549,637.541382 
	C557.567688,637.799194 557.108276,637.870911 556.310425,637.843140 
	C556.547363,637.614197 557.122620,637.484741 557.862549,637.541382 
z"/>
<path fill="#CCBF1E" opacity="1.000000" stroke="none" 
	d="
M284.862183,637.595459 
	C284.568939,637.846130 284.108673,637.912964 283.309662,637.882629 
	C283.545654,637.660889 284.120392,637.536255 284.862183,637.595459 
z"/>
<path fill="#CCBF1E" opacity="1.000000" stroke="none" 
	d="
M300.928406,637.635742 
	C300.855225,637.833801 300.678101,637.890930 300.233765,637.866821 
	C300.252502,637.688599 300.538452,637.591675 300.928406,637.635742 
z"/>
<path fill="#CCBF1E" opacity="1.000000" stroke="none" 
	d="
M76.931213,637.611328 
	C76.856056,637.814087 76.678535,637.872192 76.233353,637.847290 
	C76.253403,637.665039 76.541122,637.565918 76.931213,637.611328 
z"/>
<path fill="#ED5FA6" opacity="1.000000" stroke="none" 
	d="
M488.453705,373.049866 
	C490.163086,374.912903 492.608856,376.486389 493.472229,378.682098 
	C508.089722,415.856720 522.491333,453.116180 536.982605,490.340576 
	C544.832214,510.504089 552.772278,530.632385 560.638123,550.789612 
	C561.593872,553.238892 562.341187,555.769531 563.425232,558.971985 
	C560.573914,559.282715 558.328247,559.737366 556.081909,559.740417 
	C525.928406,559.781372 495.774323,559.672302 465.621735,559.839905 
	C460.701904,559.867249 458.234863,558.230408 456.498322,553.507874 
	C444.723785,521.487000 432.609283,489.591339 420.739044,457.605316 
	C419.443604,454.114441 417.636688,452.706329 413.825562,452.713440 
	C360.515594,452.812958 307.205139,452.846130 253.895584,452.664612 
	C248.431000,452.645996 247.380569,455.958344 245.944702,459.818451 
	C234.456390,490.703094 222.781097,521.518921 211.461487,552.464966 
	C209.420670,558.044250 206.467484,559.956665 200.527832,559.896851 
	C171.376801,559.603516 142.221176,559.779175 113.067238,559.738220 
	C110.460365,559.734558 107.854004,559.365967 104.645020,559.120850 
	C105.211563,556.812073 105.439796,555.039246 106.072792,553.425232 
	C123.634857,508.644531 141.248184,463.883972 158.828049,419.110291 
	C163.998795,405.941010 169.019592,392.712158 174.297653,379.586395 
	C175.170105,377.416687 177.016647,375.638672 179.011444,373.492554 
	C183.738007,373.765961 187.864014,374.600952 191.994659,374.624725 
	C214.657181,374.755249 237.321442,374.772705 259.983551,374.611115 
	C264.259430,374.580627 268.528320,373.565979 273.279297,373.102844 
	C287.574310,373.214325 301.390472,373.255737 315.206543,373.236633 
	C341.504181,373.200287 367.801727,373.129333 394.441193,373.252319 
	C397.905975,373.849274 401.027435,374.615662 404.152069,374.628693 
	C428.314972,374.729492 452.478912,374.757660 476.641357,374.611603 
	C480.581818,374.587769 484.516418,373.594849 488.453705,373.049866 
z"/>
<path fill="#1EB000" opacity="1.000000" stroke="none" 
	d="
M272.800415,373.005493 
	C268.528320,373.565979 264.259430,374.580627 259.983551,374.611115 
	C237.321442,374.772705 214.657181,374.755249 191.994659,374.624725 
	C187.864014,374.600952 183.738007,373.765961 179.311722,373.249939 
	C178.927811,369.948425 177.839493,366.317810 178.914062,363.516998 
	C187.919724,340.044037 197.379913,316.746094 206.591583,293.351471 
	C219.404419,260.811035 232.098145,228.223770 244.885376,195.673279 
	C255.054382,169.787674 265.328827,143.943420 275.454590,118.040947 
	C277.346344,113.201653 280.251831,110.275078 285.731995,110.178810 
	C299.875061,109.930374 314.014008,109.386879 328.157501,109.236511 
	C344.106445,109.066940 360.058624,109.178078 376.009369,109.205551 
	C386.772766,109.224083 389.400848,110.818970 393.325836,120.703163 
	C405.188904,150.577850 416.876617,180.522079 428.697662,210.413513 
	C440.700104,240.763611 452.822723,271.066223 464.810791,301.421997 
	C472.763184,321.558685 480.701202,341.703644 488.307404,361.971802 
	C489.479584,365.095306 488.830444,368.902344 488.738647,372.721558 
	C484.516418,373.594849 480.581818,374.587769 476.641357,374.611603 
	C452.478912,374.757660 428.314972,374.729492 404.152069,374.628693 
	C401.027435,374.615662 397.905975,373.849274 394.252014,372.951477 
	C392.636047,370.612518 391.289978,368.856995 390.509552,366.878326 
	C386.233826,356.037720 382.039551,345.164032 377.922668,334.261902 
	C364.217224,297.967773 350.571014,261.651215 336.832153,225.369736 
	C336.209045,223.724136 334.904297,222.336655 332.997833,219.425186 
	C330.590546,225.737930 328.762329,230.474548 326.975616,235.226791 
	C312.619781,273.410065 298.388855,311.641022 283.826447,349.745300 
	C280.772552,357.736206 276.507385,365.264191 272.800415,373.005493 
z"/>
<path fill="#020806" opacity="1.000000" stroke="none" 
	d="
M269.923615,480.285095 
	C269.512421,480.273102 269.101196,480.261078 268.382019,480.280060 
	C269.571564,479.876099 271.068512,479.063812 272.566803,479.061218 
	C313.582031,478.989990 354.597382,478.995483 395.612701,479.026337 
	C396.891907,479.027313 398.170807,479.433258 399.690369,479.999084 
	C357.956177,480.320343 315.981445,480.292908 273.162781,480.167664 
	C271.520447,480.141602 270.722015,480.213348 269.923615,480.285095 
z"/>
<path fill="#06090E" opacity="1.000000" stroke="none" 
	d="
M191.790604,587.044006 
	C177.624756,587.454041 163.278915,587.542053 148.481461,587.507324 
	C148.994629,586.924011 149.956894,586.068848 150.924622,586.062622 
	C163.889801,585.979126 176.855728,586.004700 189.821320,586.049377 
	C190.418518,586.051392 191.014221,586.487915 191.790604,587.044006 
z"/>
<path fill="#06090E" opacity="1.000000" stroke="none" 
	d="
M143.792374,587.066040 
	C129.956787,587.472107 115.945038,587.552979 101.481232,587.512573 
	C101.992722,586.928406 102.953629,586.069092 103.920204,586.062683 
	C116.558144,585.978577 129.196915,586.005310 141.835312,586.051758 
	C142.429764,586.053955 143.022598,586.501099 143.792374,587.066040 
z"/>
<path fill="#05080E" opacity="1.000000" stroke="none" 
	d="
M526.788757,587.063843 
	C513.621338,587.462158 500.277130,587.536194 486.482117,587.484436 
	C487.001923,586.906860 487.969818,586.068970 488.943542,586.062134 
	C500.905823,585.978455 512.868958,586.006042 524.831665,586.053223 
	C525.425964,586.055542 526.018616,586.500671 526.788757,587.063843 
z"/>
<path fill="#05080E" opacity="1.000000" stroke="none" 
	d="
M478.790161,587.051208 
	C470.017426,587.459412 461.065430,587.544983 451.666748,587.414368 
	C451.220093,587.198181 451.041107,586.866150 451.041107,586.866150 
	C460.231049,586.820312 469.420959,586.774414 478.790161,587.051208 
z"/>
<path fill="#05080E" opacity="1.000000" stroke="none" 
	d="
M545.791565,587.060303 
	C541.953186,587.466248 537.939087,587.551453 533.479370,587.512207 
	C537.227783,587.171692 541.421814,586.955627 545.791565,587.060303 
z"/>
<path fill="#06090E" opacity="1.000000" stroke="none" 
	d="
M226.586624,586.577515 
	C226.063354,586.945557 225.228714,587.067810 224.147064,587.390015 
	C220.899612,587.605225 217.899170,587.620544 214.464569,587.513428 
	C218.112030,587.037903 222.193649,586.684814 226.586624,586.577515 
z"/>
<path fill="#06090E" opacity="1.000000" stroke="none" 
	d="
M206.798828,587.068115 
	C203.616180,587.461487 200.263123,587.535828 196.469131,587.485168 
	C199.561615,587.156494 203.095016,586.952820 206.798828,587.068115 
z"/>
<path fill="#06090E" opacity="1.000000" stroke="none" 
	d="
M92.824646,587.064941 
	C91.262917,587.431580 89.556892,587.512695 87.440201,587.467896 
	C88.913132,587.154480 90.796745,586.967041 92.824646,587.064941 
z"/>
<path fill="#685E1B" opacity="1.000000" stroke="none" 
	d="
M450.665466,586.919861 
	C451.041107,586.866150 451.220093,587.198181 451.212341,587.386597 
	C449.727356,587.675476 448.250092,587.775879 446.347870,587.733032 
	C447.378571,587.384399 448.834198,587.179016 450.665466,586.919861 
z"/>
<path fill="#05080E" opacity="1.000000" stroke="none" 
	d="
M440.886902,586.740356 
	C440.947601,586.871521 440.480011,586.830200 440.278320,586.710205 
	C440.346619,586.372192 440.596497,586.378540 440.886902,586.740356 
z"/>
<path fill="#B19E1D" opacity="1.000000" stroke="none" 
	d="
M270.132080,480.497467 
	C270.722015,480.213348 271.520447,480.141602 272.701050,480.205811 
	C272.169006,480.464447 271.254791,480.587158 270.132080,480.497467 
z"/>
<path fill="#685E1B" opacity="1.000000" stroke="none" 
	d="
M601.186890,587.625854 
	C601.216675,587.398132 601.559204,587.294128 602.016968,587.355713 
	C601.921265,587.597473 601.710388,587.673523 601.186890,587.625854 
z"/>
<path fill="#141513" opacity="1.000000" stroke="none" 
	d="
M273.279297,373.102875 
	C276.507385,365.264191 280.772552,357.736206 283.826447,349.745300 
	C298.388855,311.641022 312.619781,273.410065 326.975616,235.226791 
	C328.762329,230.474548 330.590546,225.737930 332.997833,219.425186 
	C334.904297,222.336655 336.209045,223.724136 336.832153,225.369736 
	C350.571014,261.651215 364.217224,297.967773 377.922668,334.261902 
	C382.039551,345.164032 386.233826,356.037720 390.509552,366.878326 
	C391.289978,368.856995 392.636047,370.612518 393.910156,372.771912 
	C367.801727,373.129333 341.504181,373.200287 315.206543,373.236633 
	C301.390472,373.255737 287.574310,373.214325 273.279297,373.102875 
M313.250427,346.899872 
	C313.939484,347.259430 314.626740,347.928589 315.317841,347.932556 
	C327.524628,348.002197 339.732300,348.033691 351.938354,347.920105 
	C352.981018,347.910431 354.013641,346.818634 354.941772,345.471313 
	C353.935272,342.992615 352.928772,340.513947 351.895142,337.287903 
	C345.921753,321.800629 339.948334,306.313354 333.618408,289.901733 
	C327.485687,306.632507 321.736298,322.317596 315.519257,338.542450 
	C314.666870,341.082611 313.814484,343.622772 313.250427,346.899872 
z"/>
<path fill="#FADA17" opacity="1.000000" stroke="none" 
	d="
M315.986877,338.002716 
	C321.736298,322.317596 327.485687,306.632507 333.618408,289.901733 
	C339.948334,306.313354 345.921753,321.800629 351.685730,337.887329 
	C351.202515,341.021088 352.704254,344.785156 348.343018,344.897705 
	C338.726471,345.145905 329.095154,345.102844 319.481354,344.805969 
	C318.325714,344.770264 317.045929,342.545166 316.200439,341.112457 
	C315.728363,340.312469 316.032532,339.054382 315.986877,338.002716 
z"/>
<path fill="#03060F" opacity="1.000000" stroke="none" 
	d="
M355.050934,346.229492 
	C354.013641,346.818634 352.981018,347.910431 351.938354,347.920105 
	C339.732300,348.033691 327.524628,348.002197 315.317841,347.932556 
	C314.626740,347.928589 313.939484,347.259430 313.576904,346.554810 
	C322.904144,346.255219 331.904907,346.300659 341.178223,346.556519 
	C342.999786,346.641754 344.548798,346.516632 346.542053,346.360840 
	C349.674500,346.296600 352.362732,346.263031 355.050934,346.229492 
z"/>
<path fill="#F8E713" opacity="1.000000" stroke="none" 
	d="
M340.905670,346.346069 
	C331.904907,346.300659 322.904144,346.255219 313.432739,346.186371 
	C313.814484,343.622772 314.666870,341.082611 315.753052,338.272583 
	C316.032532,339.054382 315.728363,340.312469 316.200439,341.112457 
	C317.045929,342.545166 318.325714,344.770264 319.481354,344.805969 
	C329.095154,345.102844 338.726471,345.145905 348.343018,344.897705 
	C352.704254,344.785156 351.202515,341.021088 351.699280,338.260986 
	C352.928772,340.513947 353.935272,342.992615 354.996338,345.850403 
	C352.362732,346.263031 349.674500,346.296600 346.124634,346.221191 
	C343.810547,346.190186 342.358093,346.268127 340.905670,346.346069 
z"/>
<path fill="#5D571B" opacity="1.000000" stroke="none" 
	d="
M341.178223,346.556488 
	C342.358093,346.268127 343.810547,346.190186 345.680420,346.251862 
	C344.548798,346.516632 342.999786,346.641754 341.178223,346.556488 
z"/>
</svg>